<svg xmlns="http://www.w3.org/2000/svg" xmlns:xlink="http://www.w3.org/1999/xlink" width="400" zoomAndPan="magnify" viewBox="0 0 300 299.999988" height="400" preserveAspectRatio="xMidYMid meet" version="1.0"><defs><clipPath id="040921add4"><path d="M 77 41 L 234.453125 41 L 234.453125 270.636719 L 77 270.636719 Z M 77 41 " clip-rule="nonzero"/></clipPath><clipPath id="b67f68998b"><path d="M 65.425781 31 L 234 31 L 234 270 L 65.425781 270 Z M 65.425781 31 " clip-rule="nonzero"/></clipPath><clipPath id="aecdcb3205"><path d="M 65.425781 29.382812 L 223 29.382812 L 223 259 L 65.425781 259 Z M 65.425781 29.382812 " clip-rule="nonzero"/></clipPath><clipPath id="451b34be66"><path d="M 65.425781 258 L 81 258 L 81 270.636719 L 65.425781 270.636719 Z M 65.425781 258 " clip-rule="nonzero"/></clipPath><clipPath id="d19a388a02"><path d="M 80.054688 84.300781 L 211 84.300781 L 211 172.746094 L 80.054688 172.746094 Z M 80.054688 84.300781 " clip-rule="nonzero"/></clipPath><clipPath id="c8675bb610"><path d="M 80.054688 84.300781 L 212 84.300781 L 212 172.746094 L 80.054688 172.746094 Z M 80.054688 84.300781 " clip-rule="nonzero"/></clipPath></defs><g clip-path="url(#040921add4)"><path fill="#a0f0f0" d="M 225.976562 270.585938 L 77.847656 270.585938 L 77.847656 41.828125 L 225.976562 41.828125 C 226.542969 41.828125 227.101562 41.886719 227.65625 41.996094 C 228.210938 42.105469 228.746094 42.269531 229.269531 42.484375 C 229.792969 42.699219 230.285156 42.964844 230.757812 43.277344 C 231.226562 43.59375 231.660156 43.949219 232.058594 44.347656 C 232.457031 44.746094 232.816406 45.183594 233.128906 45.652344 C 233.441406 46.121094 233.707031 46.617188 233.925781 47.140625 C 234.140625 47.660156 234.304688 48.199219 234.414062 48.753906 C 234.523438 49.304688 234.578125 49.867188 234.578125 50.429688 L 234.578125 261.992188 C 234.578125 262.558594 234.523438 263.117188 234.414062 263.671875 C 234.300781 264.222656 234.136719 264.761719 233.921875 265.28125 C 233.707031 265.804688 233.441406 266.300781 233.128906 266.769531 C 232.8125 267.238281 232.457031 267.671875 232.058594 268.070312 C 231.65625 268.46875 231.222656 268.824219 230.753906 269.140625 C 230.285156 269.453125 229.789062 269.71875 229.269531 269.933594 C 228.746094 270.148438 228.207031 270.3125 227.65625 270.421875 C 227.101562 270.53125 226.542969 270.585938 225.976562 270.585938 Z M 225.976562 270.585938 " fill-opacity="1" fill-rule="nonzero"/></g><g clip-path="url(#b67f68998b)"><path fill="#ffffff" d="M 224.597656 269.207031 L 76.472656 269.207031 L 65.425781 258.160156 L 76.472656 40.453125 L 218.660156 31.089844 C 220.988281 31.089844 229.039062 41.378906 230.589844 42.882812 C 231.425781 43.691406 232.070312 44.632812 232.519531 45.703125 C 232.972656 46.773438 233.199219 47.890625 233.199219 49.054688 L 233.199219 260.605469 C 233.199219 261.171875 233.144531 261.730469 233.03125 262.285156 C 232.921875 262.839844 232.757812 263.375 232.542969 263.898438 C 232.328125 264.421875 232.0625 264.914062 231.75 265.386719 C 231.433594 265.855469 231.078125 266.289062 230.679688 266.6875 C 230.28125 267.089844 229.84375 267.445312 229.375 267.757812 C 228.90625 268.070312 228.410156 268.335938 227.886719 268.554688 C 227.367188 268.769531 226.828125 268.933594 226.273438 269.042969 C 225.722656 269.152344 225.160156 269.207031 224.597656 269.207031 Z M 224.597656 269.207031 " fill-opacity="1" fill-rule="nonzero"/></g><path fill="#000000" d="M 216.3125 261.058594 L 69.566406 261.058594 L 69.566406 260.78125 L 216.3125 260.78125 C 216.867188 260.78125 217.417969 260.726562 217.960938 260.617188 C 218.503906 260.507812 219.035156 260.347656 219.546875 260.136719 C 220.0625 259.921875 220.546875 259.660156 221.011719 259.351562 C 221.472656 259.042969 221.898438 258.695312 222.292969 258.300781 C 222.683594 257.90625 223.035156 257.480469 223.34375 257.019531 C 223.652344 256.558594 223.914062 256.070312 224.125 255.558594 C 224.339844 255.042969 224.5 254.515625 224.609375 253.96875 C 224.71875 253.425781 224.773438 252.875 224.773438 252.320312 L 224.773438 40.765625 L 225.050781 40.765625 L 225.050781 252.320312 C 225.046875 252.894531 224.992188 253.460938 224.878906 254.023438 C 224.765625 254.585938 224.601562 255.132812 224.382812 255.664062 C 224.160156 256.191406 223.890625 256.695312 223.574219 257.171875 C 223.253906 257.648438 222.894531 258.089844 222.488281 258.496094 C 222.082031 258.902344 221.640625 259.265625 221.164062 259.582031 C 220.6875 259.902344 220.183594 260.171875 219.652344 260.390625 C 219.125 260.609375 218.578125 260.777344 218.015625 260.890625 C 217.453125 261.003906 216.882812 261.058594 216.3125 261.058594 Z M 216.3125 261.058594 " fill-opacity="1" fill-rule="nonzero"/><path fill="#000000" d="M 219.074219 263.820312 L 72.328125 263.820312 L 72.328125 263.542969 L 219.074219 263.542969 C 219.628906 263.542969 220.179688 263.488281 220.722656 263.378906 C 221.269531 263.269531 221.796875 263.109375 222.308594 262.898438 C 222.824219 262.683594 223.308594 262.425781 223.773438 262.113281 C 224.234375 261.804688 224.660156 261.457031 225.054688 261.0625 C 225.445312 260.671875 225.796875 260.242188 226.105469 259.78125 C 226.414062 259.320312 226.675781 258.832031 226.886719 258.320312 C 227.101562 257.804688 227.261719 257.277344 227.371094 256.730469 C 227.480469 256.1875 227.535156 255.636719 227.535156 255.082031 L 227.535156 43.53125 L 227.8125 43.53125 L 227.8125 255.082031 C 227.8125 255.65625 227.757812 256.222656 227.644531 256.785156 C 227.53125 257.347656 227.367188 257.894531 227.144531 258.425781 C 226.925781 258.953125 226.65625 259.457031 226.335938 259.933594 C 226.019531 260.414062 225.65625 260.855469 225.25 261.257812 C 224.84375 261.664062 224.402344 262.027344 223.925781 262.347656 C 223.449219 262.664062 222.945312 262.933594 222.417969 263.152344 C 221.886719 263.375 221.339844 263.539062 220.777344 263.652344 C 220.214844 263.765625 219.644531 263.820312 219.074219 263.820312 Z M 219.074219 263.820312 " fill-opacity="1" fill-rule="nonzero"/><path fill="#000000" d="M 221.835938 266.582031 L 74.816406 266.582031 L 74.816406 266.308594 L 221.835938 266.308594 C 222.390625 266.304688 222.941406 266.25 223.484375 266.144531 C 224.03125 266.035156 224.558594 265.875 225.070312 265.660156 C 225.585938 265.449219 226.070312 265.1875 226.535156 264.878906 C 226.996094 264.570312 227.421875 264.21875 227.816406 263.824219 C 228.207031 263.433594 228.558594 263.003906 228.867188 262.542969 C 229.175781 262.082031 229.4375 261.59375 229.648438 261.082031 C 229.863281 260.570312 230.023438 260.039062 230.132812 259.496094 C 230.242188 258.949219 230.296875 258.398438 230.296875 257.84375 L 230.296875 46.292969 L 230.574219 46.292969 L 230.574219 257.84375 C 230.570312 258.417969 230.515625 258.988281 230.402344 259.550781 C 230.289062 260.113281 230.125 260.65625 229.90625 261.1875 C 229.683594 261.71875 229.414062 262.21875 229.097656 262.695312 C 228.777344 263.175781 228.417969 263.617188 228.011719 264.019531 C 227.605469 264.425781 227.164062 264.789062 226.6875 265.105469 C 226.210938 265.425781 225.707031 265.695312 225.175781 265.914062 C 224.648438 266.136719 224.101562 266.300781 223.539062 266.414062 C 222.976562 266.527344 222.410156 266.582031 221.835938 266.582031 Z M 221.835938 266.582031 " fill-opacity="1" fill-rule="nonzero"/><g clip-path="url(#aecdcb3205)"><path fill="#a0f0f0" d="M 213.546875 258.160156 L 65.425781 258.160156 L 65.425781 29.40625 L 213.546875 29.40625 C 214.113281 29.40625 214.671875 29.460938 215.226562 29.570312 C 215.78125 29.679688 216.316406 29.84375 216.839844 30.058594 C 217.363281 30.277344 217.855469 30.539062 218.328125 30.855469 C 218.796875 31.167969 219.230469 31.523438 219.628906 31.925781 C 220.03125 32.324219 220.386719 32.757812 220.699219 33.226562 C 221.011719 33.695312 221.277344 34.191406 221.496094 34.714844 C 221.710938 35.234375 221.875 35.773438 221.984375 36.328125 C 222.09375 36.882812 222.148438 37.441406 222.148438 38.003906 L 222.148438 249.558594 C 222.148438 250.121094 222.09375 250.683594 221.984375 251.234375 C 221.875 251.789062 221.710938 252.328125 221.496094 252.847656 C 221.277344 253.371094 221.011719 253.867188 220.699219 254.335938 C 220.386719 254.804688 220.03125 255.238281 219.628906 255.640625 C 219.230469 256.039062 218.796875 256.394531 218.328125 256.710938 C 217.855469 257.023438 217.363281 257.289062 216.839844 257.503906 C 216.316406 257.71875 215.78125 257.882812 215.226562 257.992188 C 214.671875 258.105469 214.113281 258.160156 213.546875 258.160156 Z M 213.546875 258.160156 " fill-opacity="1" fill-rule="nonzero"/></g><g clip-path="url(#451b34be66)"><path fill="#a0f0f0" d="M 80.40625 270.585938 L 77.644531 270.585938 L 65.425781 258.15625 L 68.1875 258.15625 Z M 80.40625 270.585938 " fill-opacity="1" fill-rule="nonzero"/></g><g clip-path="url(#d19a388a02)"><path fill="#fffff7" d="M 112.914062 103.8125 C 112.980469 103.535156 113.046875 103.265625 113.125 102.996094 C 113.46875 101.757812 113.917969 100.589844 114.441406 99.488281 C 116.664062 94.785156 120.300781 91.253906 124.707031 88.839844 C 128.929688 86.53125 133.867188 85.257812 138.933594 84.949219 C 146.398438 84.492188 154.15625 86.140625 160.34375 89.65625 C 164.859375 92.21875 168.539062 95.777344 170.71875 100.214844 C 170.941406 100.675781 171.171875 101.128906 171.402344 101.570312 C 181.609375 97.910156 190.230469 98.847656 196.78125 102.390625 C 206.867188 107.847656 212.078125 119.550781 210.617188 130.640625 C 209.027344 142.6875 199.613281 154.089844 179.941406 155.78125 L 179.941406 171.359375 C 179.941406 171.742188 179.738281 172.097656 179.40625 172.292969 C 179.074219 172.488281 178.660156 172.488281 178.328125 172.300781 C 156.871094 160.152344 134.582031 160.097656 111.441406 172.316406 C 111.105469 172.492188 110.703125 172.480469 110.375 172.285156 C 110.050781 172.089844 109.851562 171.738281 109.851562 171.359375 L 109.851562 158.691406 C 89.578125 157.867188 80.203125 143.910156 80.847656 130.324219 C 81.5 116.597656 92.410156 103.109375 112.914062 103.8125 Z M 112.914062 103.8125 " fill-opacity="1" fill-rule="evenodd"/></g><g clip-path="url(#c8675bb610)"><path fill="#000000" d="M 112.800781 103.667969 C 112.859375 103.429688 112.921875 103.195312 112.984375 102.960938 C 113.332031 101.714844 113.785156 100.539062 114.308594 99.429688 C 116.546875 94.695312 120.207031 91.144531 124.636719 88.71875 C 128.878906 86.398438 133.835938 85.117188 138.925781 84.808594 C 146.417969 84.351562 154.203125 86.003906 160.414062 89.53125 C 164.957031 92.109375 168.65625 95.691406 170.847656 100.152344 C 171.050781 100.574219 171.261719 100.988281 171.472656 101.394531 C 181.671875 97.769531 190.296875 98.71875 196.851562 102.265625 C 206.988281 107.753906 212.230469 119.515625 210.761719 130.664062 C 209.167969 142.738281 199.757812 154.179688 180.085938 155.917969 L 180.085938 171.359375 C 180.085938 171.796875 179.855469 172.199219 179.476562 172.421875 C 179.101562 172.640625 178.636719 172.644531 178.253906 172.429688 C 156.847656 160.304688 134.601562 160.25 111.507812 172.445312 C 111.128906 172.644531 110.671875 172.632812 110.300781 172.410156 C 109.933594 172.1875 109.710938 171.789062 109.710938 171.359375 L 109.710938 158.832031 C 89.425781 157.945312 80.058594 143.945312 80.703125 130.320312 C 81.359375 116.550781 92.273438 103.015625 112.800781 103.667969 Z M 134.640625 139.921875 C 127.171875 141.171875 119.679688 143.746094 112.160156 147.628906 L 112.160156 169.347656 C 134.769531 157.996094 156.589844 158.046875 177.632812 169.285156 L 177.632812 149.230469 C 160.597656 157.703125 144.367188 152.09375 134.820312 140.105469 C 134.753906 140.050781 134.695312 139.992188 134.640625 139.921875 Z M 187.921875 113.167969 C 184.226562 114.128906 181.023438 113.75 178.1875 112.3125 C 176.878906 111.652344 175.660156 110.757812 174.519531 109.652344 C 172.332031 107.535156 170.460938 104.636719 168.734375 101.195312 C 166.730469 97.164062 163.339844 93.96875 159.21875 91.648438 C 153.386719 88.359375 146.097656 86.835938 139.074219 87.261719 C 134.351562 87.546875 129.75 88.726562 125.796875 90.851562 C 121.777344 93.015625 118.429688 96.167969 116.335938 100.40625 C 115.84375 101.40625 115.421875 102.46875 115.0625 103.582031 C 114.722656 104.648438 114.425781 105.757812 114.21875 106.929688 C 113.882812 108.730469 113.851562 111.367188 114.046875 113.945312 C 114.257812 116.691406 114.710938 119.363281 115.367188 120.878906 C 115.46875 121.089844 115.378906 121.339844 115.167969 121.4375 C 114.960938 121.542969 114.707031 121.453125 114.605469 121.246094 C 113.792969 119.714844 113.074219 116.964844 112.632812 114.105469 C 112.214844 111.386719 112.0625 108.582031 112.277344 106.640625 C 112.296875 106.464844 112.320312 106.285156 112.34375 106.109375 C 93.753906 105.6875 83.75 117.886719 83.152344 130.4375 C 82.5625 142.875 91.234375 155.507812 109.710938 156.378906 L 109.710938 153.480469 C 108.296875 153.785156 106.976562 153.902344 105.75 153.78125 C 104.726562 153.675781 103.765625 153.429688 102.882812 153.03125 C 101.777344 152.527344 100.792969 151.828125 99.925781 150.910156 C 99.171875 150.105469 98.515625 149.167969 97.941406 148.066406 C 97.792969 147.839844 97.855469 147.535156 98.082031 147.386719 C 98.304688 147.234375 98.609375 147.292969 98.761719 147.511719 C 99.335938 148.1875 99.9375 148.75 100.5625 149.253906 C 101.535156 150.035156 102.570312 150.550781 103.691406 150.894531 C 104.40625 151.113281 105.15625 151.238281 105.949219 151.285156 C 107.042969 151.351562 108.21875 151.277344 109.484375 150.988281 L 109.710938 150.933594 L 109.710938 148.164062 L 108.984375 148.007812 L 108.980469 148.007812 C 106.472656 147.347656 104.304688 146.347656 102.507812 144.960938 C 101.222656 143.972656 100.117188 142.800781 99.210938 141.449219 C 98.160156 139.882812 97.363281 138.085938 96.8125 136.070312 C 96.335938 134.335938 96.054688 132.453125 95.933594 130.402344 C 95.902344 130.136719 96.09375 129.890625 96.363281 129.855469 C 96.632812 129.824219 96.878906 130.011719 96.914062 130.28125 C 97.207031 131.800781 97.597656 133.199219 98.054688 134.507812 C 98.8125 136.671875 99.820312 138.519531 101.0625 140.101562 C 101.921875 141.195312 102.902344 142.144531 104.011719 142.964844 C 105.59375 144.128906 107.441406 145.03125 109.613281 145.609375 L 110.382812 145.792969 C 117.984375 141.789062 125.554688 139.09375 133.101562 137.703125 C 132.824219 137.25 132.542969 136.761719 132.265625 136.234375 C 131.660156 135.070312 131.082031 133.722656 130.617188 132.203125 C 130.328125 131.25 130.070312 130.230469 129.910156 129.148438 C 129.8125 128.476562 129.726562 127.78125 129.726562 127.0625 C 129.726562 125.949219 129.886719 124.832031 130.109375 123.632812 C 130.121094 123.398438 130.316406 123.21875 130.546875 123.226562 C 130.78125 123.230469 130.964844 123.421875 130.964844 123.652344 C 131.113281 124.796875 131.382812 125.828125 131.613281 126.855469 C 131.753906 127.5 131.878906 128.125 132.027344 128.734375 C 132.265625 129.703125 132.53125 130.617188 132.835938 131.46875 C 133.320312 132.824219 133.886719 134.027344 134.453125 135.074219 C 135.132812 136.335938 135.808594 137.371094 136.386719 138.164062 C 136.441406 138.210938 136.492188 138.265625 136.539062 138.324219 C 145.476562 149.757812 160.902344 155.066406 177.039062 146.785156 C 177.070312 146.765625 177.101562 146.746094 177.136719 146.730469 C 177.15625 146.722656 177.175781 146.714844 177.191406 146.703125 C 177.492188 146.546875 177.796875 146.386719 178.101562 146.21875 C 179.1875 145.589844 180.683594 144.550781 182.238281 142.933594 C 183.132812 142.007812 184.046875 140.898438 184.929688 139.558594 C 185.835938 138.1875 186.699219 136.589844 187.484375 134.710938 C 188.144531 133.128906 188.777344 131.394531 189.273438 129.402344 C 189.316406 129.15625 189.554688 128.988281 189.804688 129.03125 C 190.050781 129.070312 190.21875 129.308594 190.183594 129.558594 C 189.992188 131.683594 189.667969 133.585938 189.183594 135.300781 C 188.585938 137.417969 187.777344 139.222656 186.894531 140.769531 C 186.007812 142.316406 185.023438 143.59375 184.046875 144.644531 C 182.640625 146.15625 181.238281 147.199219 180.085938 147.914062 L 180.085938 149.921875 C 181.46875 149.632812 182.652344 149.195312 183.703125 148.699219 C 184.515625 148.316406 185.246094 147.910156 185.886719 147.40625 C 187.046875 146.492188 187.953125 145.402344 188.570312 144.007812 C 188.652344 143.753906 188.929688 143.609375 189.1875 143.691406 C 189.445312 143.769531 189.59375 144.042969 189.515625 144.300781 C 189.316406 145.390625 188.96875 146.378906 188.460938 147.300781 C 187.933594 148.253906 187.234375 149.097656 186.359375 149.839844 C 185.71875 150.382812 184.972656 150.847656 184.132812 151.246094 C 183.070312 151.75 181.839844 152.101562 180.472656 152.375 L 180.085938 152.441406 L 180.085938 153.453125 C 198.09375 151.78125 206.863281 141.449219 208.328125 130.34375 C 209.667969 120.171875 204.929688 109.425781 195.683594 104.421875 C 189.726562 101.199219 181.921875 100.386719 172.695312 103.566406 C 173.75 105.300781 174.882812 106.816406 176.097656 108.082031 C 177.054688 109.082031 178.054688 109.933594 179.144531 110.601562 C 181.5625 112.082031 184.351562 112.695312 187.714844 112.175781 C 187.992188 112.121094 188.253906 112.296875 188.3125 112.570312 C 188.367188 112.84375 188.191406 113.109375 187.921875 113.167969 Z M 187.921875 113.167969 " fill-opacity="1" fill-rule="evenodd"/></g></svg>