<svg xmlns="http://www.w3.org/2000/svg" xmlns:xlink="http://www.w3.org/1999/xlink" width="400" zoomAndPan="magnify" viewBox="0 0 300 299.999988" height="400" preserveAspectRatio="xMidYMid meet" version="1.0"><defs><clipPath id="399fc7c62f"><path d="M 178 124.199219 L 214.425781 124.199219 L 214.425781 201 L 178 201 Z M 178 124.199219 " clip-rule="nonzero"/></clipPath><clipPath id="24fc036726"><path d="M 148.011719 124.199219 L 173 124.199219 L 173 244.574219 L 148.011719 244.574219 Z M 148.011719 124.199219 " clip-rule="nonzero"/></clipPath><clipPath id="b58d2fc355"><path d="M 263 124.199219 L 299.761719 124.199219 L 299.761719 201 L 263 201 Z M 263 124.199219 " clip-rule="nonzero"/></clipPath><clipPath id="412d570926"><path d="M 233.34375 124.199219 L 258 124.199219 L 258 244.574219 L 233.34375 244.574219 Z M 233.34375 124.199219 " clip-rule="nonzero"/></clipPath><clipPath id="290d805a9a"><path d="M 50 55.160156 L 129.71875 55.160156 L 129.71875 193.179688 L 50 193.179688 Z M 50 55.160156 " clip-rule="nonzero"/></clipPath><clipPath id="df71208546"><path d="M 0 60 L 81 60 L 81 193.179688 L 0 193.179688 Z M 0 60 " clip-rule="nonzero"/></clipPath></defs><g clip-path="url(#399fc7c62f)"><path fill="#ffffff" d="M 188.804688 124.199219 L 178.617188 124.199219 L 178.617188 144.5625 L 182.777344 144.5625 C 186.808594 144.5625 190.074219 147.828125 190.074219 151.859375 L 190.074219 171.066406 C 190.265625 177.84375 186.808594 181.035156 182.777344 181.035156 L 178.617188 181.035156 L 178.617188 200.15625 L 183.425781 200.15625 C 197.695312 200.15625 214.640625 195.988281 214.640625 172.621094 L 214.640625 150.035156 C 214.640625 135.765625 203.074219 124.199219 188.804688 124.199219 Z M 188.804688 124.199219 " fill-opacity="1" fill-rule="nonzero"/></g><g clip-path="url(#24fc036726)"><path fill="#ffffff" d="M 172.320312 237.429688 L 172.320312 124.199219 L 148.019531 124.199219 L 148.019531 244.835938 L 172.585938 244.835938 L 172.585938 237.429688 Z M 172.320312 237.429688 " fill-opacity="1" fill-rule="nonzero"/></g><g clip-path="url(#b58d2fc355)"><path fill="#ffffff" d="M 274.140625 124.199219 L 263.953125 124.199219 L 263.953125 144.5625 L 268.113281 144.5625 C 272.140625 144.5625 275.410156 147.828125 275.410156 151.859375 L 275.410156 171.066406 C 275.597656 177.84375 272.140625 181.035156 268.113281 181.035156 L 263.953125 181.035156 L 263.953125 200.15625 L 268.757812 200.15625 C 283.027344 200.15625 299.972656 195.988281 299.972656 172.621094 L 299.972656 150.035156 C 299.976562 135.765625 288.410156 124.199219 274.140625 124.199219 Z M 274.140625 124.199219 " fill-opacity="1" fill-rule="nonzero"/></g><g clip-path="url(#412d570926)"><path fill="#ffffff" d="M 257.652344 237.429688 L 257.652344 124.199219 L 233.355469 124.199219 L 233.355469 244.835938 L 257.921875 244.835938 L 257.921875 237.429688 Z M 257.652344 237.429688 " fill-opacity="1" fill-rule="nonzero"/></g><g clip-path="url(#290d805a9a)"><path fill="#ffffff" d="M 80.542969 55.160156 L 50.617188 55.160156 C 56.789062 72.675781 93.578125 177.136719 99.234375 193.226562 L 129.15625 193.226562 Z M 80.542969 55.160156 " fill-opacity="1" fill-rule="nonzero"/></g><g clip-path="url(#df71208546)"><path fill="#ffffff" d="M 51.121094 132.742188 L 61.714844 102.632812 L 46.769531 60.152344 L -0.09375 193.226562 L 29.828125 193.226562 C 31.148438 189.472656 42.003906 158.597656 42.996094 155.84375 C 45.964844 155.824219 76.628906 155.855469 80.460938 155.84375 L 72.3125 132.742188 Z M 51.121094 132.742188 " fill-opacity="1" fill-rule="nonzero"/></g></svg>