<svg xmlns="http://www.w3.org/2000/svg" xmlns:xlink="http://www.w3.org/1999/xlink" width="200" zoomAndPan="magnify" viewBox="0 0 150 149.999998" height="200" preserveAspectRatio="xMidYMid meet" version="1.0"><defs><clipPath id="e58395beeb"><path d="M 15 15 L 135 15 L 135 135 L 15 135 Z M 15 15 " clip-rule="nonzero"/></clipPath></defs><g clip-path="url(#e58395beeb)"><path fill="#000000" d="M 74.722656 14.722656 C 41.605469 14.722656 14.722656 41.605469 14.722656 74.722656 C 14.722656 107.835938 41.605469 134.722656 74.722656 134.722656 C 107.835938 134.722656 134.722656 107.835938 134.722656 74.722656 C 134.722656 41.605469 107.835938 14.722656 74.722656 14.722656 Z M 74.722656 23.09375 C 103.214844 23.09375 126.347656 46.226562 126.347656 74.722656 C 126.347656 103.214844 103.214844 126.347656 74.722656 126.347656 C 46.226562 126.347656 23.09375 103.214844 23.09375 74.722656 C 23.09375 46.226562 46.226562 23.09375 74.722656 23.09375 Z M 74.722656 23.09375 " fill-opacity="1" fill-rule="evenodd"/></g><path fill="#000000" d="M 46.8125 78.90625 L 102.628906 78.90625 C 104.9375 78.90625 106.8125 77.03125 106.8125 74.722656 C 106.8125 72.410156 104.9375 70.535156 102.628906 70.535156 L 46.8125 70.535156 C 44.503906 70.535156 42.628906 72.410156 42.628906 74.722656 C 42.628906 77.03125 44.503906 78.90625 46.8125 78.90625 Z M 46.8125 78.90625 " fill-opacity="1" fill-rule="evenodd"/><path fill="#000000" d="M 78.90625 102.628906 L 78.90625 46.8125 C 78.90625 44.503906 77.03125 42.628906 74.722656 42.628906 C 72.410156 42.628906 70.535156 44.503906 70.535156 46.8125 L 70.535156 102.628906 C 70.535156 104.9375 72.410156 106.8125 74.722656 106.8125 C 77.03125 106.8125 78.90625 104.9375 78.90625 102.628906 Z M 78.90625 102.628906 " fill-opacity="1" fill-rule="evenodd"/></svg>