<svg xmlns="http://www.w3.org/2000/svg" xmlns:xlink="http://www.w3.org/1999/xlink" width="200" zoomAndPan="magnify" viewBox="0 0 150 149.999998" height="200" preserveAspectRatio="xMidYMid meet" version="1.0"><path fill="#000000" d="M 135 66.929688 L 135 83.070312 C 135 83.703125 134.9375 84.324219 134.816406 84.945312 C 134.691406 85.5625 134.511719 86.164062 134.269531 86.746094 C 134.027344 87.328125 133.730469 87.878906 133.382812 88.40625 C 133.03125 88.929688 132.632812 89.414062 132.1875 89.859375 C 131.742188 90.304688 131.257812 90.703125 130.734375 91.054688 C 130.210938 91.402344 129.65625 91.699219 129.074219 91.941406 C 128.492188 92.183594 127.890625 92.363281 127.273438 92.488281 C 126.65625 92.609375 126.03125 92.671875 125.398438 92.671875 L 92.671875 92.671875 L 92.671875 125.398438 C 92.671875 126.03125 92.609375 126.65625 92.488281 127.273438 C 92.363281 127.890625 92.183594 128.492188 91.941406 129.074219 C 91.699219 129.65625 91.402344 130.210938 91.054688 130.734375 C 90.703125 131.257812 90.304688 131.742188 89.859375 132.1875 C 89.414062 132.632812 88.929688 133.03125 88.40625 133.382812 C 87.878906 133.730469 87.328125 134.027344 86.746094 134.269531 C 86.164062 134.511719 85.5625 134.691406 84.945312 134.816406 C 84.324219 134.9375 83.703125 135 83.070312 135 L 66.929688 135 C 66.296875 135 65.675781 134.9375 65.054688 134.816406 C 64.4375 134.691406 63.835938 134.511719 63.253906 134.269531 C 62.671875 134.027344 62.121094 133.730469 61.59375 133.382812 C 61.070312 133.03125 60.585938 132.632812 60.140625 132.1875 C 59.695312 131.742188 59.296875 131.257812 58.945312 130.734375 C 58.597656 130.210938 58.300781 129.65625 58.058594 129.074219 C 57.816406 128.492188 57.636719 127.890625 57.511719 127.273438 C 57.390625 126.65625 57.328125 126.03125 57.328125 125.398438 L 57.328125 92.671875 L 24.601562 92.671875 C 23.96875 92.671875 23.34375 92.609375 22.726562 92.488281 C 22.109375 92.363281 21.507812 92.183594 20.925781 91.941406 C 20.34375 91.699219 19.789062 91.402344 19.265625 91.054688 C 18.742188 90.703125 18.257812 90.304688 17.8125 89.859375 C 17.367188 89.414062 16.96875 88.929688 16.617188 88.40625 C 16.269531 87.878906 15.972656 87.328125 15.730469 86.746094 C 15.488281 86.164062 15.308594 85.5625 15.183594 84.945312 C 15.0625 84.324219 15 83.703125 15 83.070312 L 15 66.929688 C 15 66.296875 15.0625 65.675781 15.183594 65.054688 C 15.308594 64.4375 15.488281 63.835938 15.730469 63.253906 C 15.972656 62.671875 16.269531 62.121094 16.617188 61.59375 C 16.96875 61.070312 17.367188 60.585938 17.8125 60.140625 C 18.257812 59.695312 18.742188 59.296875 19.265625 58.945312 C 19.789062 58.597656 20.34375 58.300781 20.925781 58.058594 C 21.507812 57.816406 22.109375 57.636719 22.726562 57.511719 C 23.34375 57.390625 23.96875 57.328125 24.601562 57.328125 L 57.328125 57.328125 L 57.328125 24.601562 C 57.328125 23.96875 57.390625 23.34375 57.511719 22.726562 C 57.636719 22.109375 57.816406 21.507812 58.058594 20.925781 C 58.300781 20.34375 58.597656 19.789062 58.945312 19.265625 C 59.296875 18.742188 59.695312 18.257812 60.140625 17.8125 C 60.585938 17.367188 61.070312 16.96875 61.59375 16.617188 C 62.121094 16.269531 62.671875 15.972656 63.253906 15.730469 C 63.835938 15.488281 64.4375 15.308594 65.054688 15.183594 C 65.675781 15.0625 66.296875 15 66.929688 15 L 83.070312 15 C 83.703125 15 84.324219 15.0625 84.945312 15.183594 C 85.5625 15.308594 86.164062 15.488281 86.746094 15.730469 C 87.328125 15.972656 87.878906 16.269531 88.40625 16.617188 C 88.929688 16.96875 89.414062 17.367188 89.859375 17.8125 C 90.304688 18.257812 90.703125 18.742188 91.054688 19.265625 C 91.402344 19.789062 91.699219 20.34375 91.941406 20.925781 C 92.183594 21.507812 92.363281 22.109375 92.488281 22.726562 C 92.609375 23.34375 92.671875 23.96875 92.671875 24.601562 L 92.671875 57.328125 L 125.398438 57.328125 C 126.03125 57.328125 126.65625 57.390625 127.273438 57.511719 C 127.890625 57.636719 128.492188 57.820312 129.074219 58.058594 C 129.65625 58.300781 130.210938 58.597656 130.734375 58.945312 C 131.257812 59.296875 131.742188 59.695312 132.1875 60.140625 C 132.632812 60.585938 133.03125 61.070312 133.382812 61.59375 C 133.730469 62.121094 134.027344 62.671875 134.269531 63.253906 C 134.511719 63.835938 134.691406 64.4375 134.816406 65.054688 C 134.9375 65.675781 135 66.296875 135 66.929688 Z M 135 66.929688 " fill-opacity="1" fill-rule="nonzero"/></svg>