<svg xmlns="http://www.w3.org/2000/svg" xmlns:xlink="http://www.w3.org/1999/xlink" width="200" zoomAndPan="magnify" viewBox="0 0 150 149.999998" height="200" preserveAspectRatio="xMidYMid meet" version="1.0"><defs><clipPath id="aa48c5f338"><path d="M 15 9.726562 L 135 9.726562 L 135 129.726562 L 15 129.726562 Z M 15 9.726562 " clip-rule="nonzero"/></clipPath></defs><g clip-path="url(#aa48c5f338)"><path fill="#ffffff" d="M 135 61.652344 L 135 77.796875 C 135 78.425781 134.9375 79.050781 134.816406 79.667969 C 134.691406 80.289062 134.511719 80.886719 134.269531 81.46875 C 134.027344 82.054688 133.730469 82.605469 133.382812 83.128906 C 133.03125 83.65625 132.632812 84.140625 132.1875 84.585938 C 131.742188 85.03125 131.257812 85.429688 130.734375 85.777344 C 130.210938 86.128906 129.65625 86.425781 129.074219 86.667969 C 128.492188 86.90625 127.890625 87.089844 127.273438 87.210938 C 126.65625 87.335938 126.03125 87.398438 125.398438 87.398438 L 92.671875 87.398438 L 92.671875 120.125 C 92.671875 120.753906 92.609375 121.378906 92.488281 122 C 92.363281 122.617188 92.183594 123.21875 91.941406 123.800781 C 91.699219 124.382812 91.402344 124.933594 91.054688 125.457031 C 90.703125 125.984375 90.304688 126.46875 89.859375 126.914062 C 89.414062 127.359375 88.929688 127.757812 88.40625 128.109375 C 87.878906 128.457031 87.328125 128.753906 86.746094 128.996094 C 86.164062 129.234375 85.5625 129.417969 84.945312 129.539062 C 84.324219 129.664062 83.703125 129.726562 83.070312 129.726562 L 66.929688 129.726562 C 66.296875 129.726562 65.675781 129.664062 65.054688 129.539062 C 64.4375 129.417969 63.835938 129.234375 63.253906 128.996094 C 62.671875 128.753906 62.121094 128.457031 61.59375 128.109375 C 61.070312 127.757812 60.585938 127.359375 60.140625 126.914062 C 59.695312 126.46875 59.296875 125.984375 58.945312 125.457031 C 58.597656 124.933594 58.300781 124.382812 58.058594 123.800781 C 57.816406 123.21875 57.636719 122.617188 57.511719 122 C 57.390625 121.378906 57.328125 120.753906 57.328125 120.125 L 57.328125 87.398438 L 24.601562 87.398438 C 23.96875 87.398438 23.34375 87.335938 22.726562 87.210938 C 22.109375 87.089844 21.507812 86.90625 20.925781 86.667969 C 20.34375 86.425781 19.789062 86.128906 19.265625 85.777344 C 18.742188 85.429688 18.257812 85.03125 17.8125 84.585938 C 17.367188 84.140625 16.96875 83.65625 16.617188 83.128906 C 16.269531 82.605469 15.972656 82.054688 15.730469 81.46875 C 15.488281 80.886719 15.308594 80.289062 15.183594 79.667969 C 15.0625 79.050781 15 78.425781 15 77.796875 L 15 61.652344 C 15 61.023438 15.0625 60.398438 15.183594 59.78125 C 15.308594 59.164062 15.488281 58.5625 15.730469 57.980469 C 15.972656 57.398438 16.269531 56.84375 16.617188 56.320312 C 16.96875 55.796875 17.367188 55.3125 17.8125 54.867188 C 18.257812 54.421875 18.742188 54.023438 19.265625 53.671875 C 19.789062 53.320312 20.34375 53.027344 20.925781 52.785156 C 21.507812 52.542969 22.109375 52.363281 22.726562 52.238281 C 23.34375 52.117188 23.96875 52.054688 24.601562 52.054688 L 57.328125 52.054688 L 57.328125 19.324219 C 57.328125 18.695312 57.390625 18.070312 57.511719 17.453125 C 57.636719 16.835938 57.816406 16.234375 58.058594 15.652344 C 58.300781 15.070312 58.597656 14.515625 58.945312 13.992188 C 59.296875 13.46875 59.695312 12.984375 60.140625 12.539062 C 60.585938 12.089844 61.070312 11.695312 61.59375 11.34375 C 62.121094 10.992188 62.671875 10.699219 63.253906 10.457031 C 63.835938 10.214844 64.4375 10.03125 65.054688 9.910156 C 65.675781 9.785156 66.296875 9.726562 66.929688 9.726562 L 83.070312 9.726562 C 83.703125 9.726562 84.324219 9.785156 84.945312 9.910156 C 85.5625 10.03125 86.164062 10.214844 86.746094 10.457031 C 87.328125 10.699219 87.878906 10.992188 88.40625 11.34375 C 88.929688 11.695312 89.414062 12.089844 89.859375 12.539062 C 90.304688 12.984375 90.703125 13.46875 91.054688 13.992188 C 91.402344 14.515625 91.699219 15.070312 91.941406 15.652344 C 92.183594 16.234375 92.363281 16.835938 92.488281 17.453125 C 92.609375 18.070312 92.671875 18.695312 92.671875 19.324219 L 92.671875 52.054688 L 125.398438 52.054688 C 126.03125 52.054688 126.65625 52.117188 127.273438 52.238281 C 127.890625 52.363281 128.492188 52.542969 129.074219 52.785156 C 129.65625 53.027344 130.210938 53.320312 130.734375 53.671875 C 131.257812 54.023438 131.742188 54.421875 132.1875 54.867188 C 132.632812 55.3125 133.03125 55.796875 133.382812 56.320312 C 133.730469 56.84375 134.027344 57.398438 134.269531 57.980469 C 134.511719 58.5625 134.691406 59.164062 134.816406 59.78125 C 134.9375 60.398438 135 61.023438 135 61.652344 Z M 135 61.652344 " fill-opacity="1" fill-rule="nonzero"/></g></svg>