<svg xmlns="http://www.w3.org/2000/svg" xmlns:xlink="http://www.w3.org/1999/xlink" width="200" zoomAndPan="magnify" viewBox="0 0 150 149.999998" height="200" preserveAspectRatio="xMidYMid meet" version="1.0"><defs><clipPath id="677bf663a3"><path d="M 17.230469 63 L 132.730469 63 L 132.730469 87 L 17.230469 87 Z M 17.230469 63 " clip-rule="nonzero"/></clipPath><clipPath id="80cff9893e"><path d="M 63 17.230469 L 87 17.230469 L 87 132.730469 L 63 132.730469 Z M 63 17.230469 " clip-rule="nonzero"/></clipPath></defs><g clip-path="url(#677bf663a3)"><path fill="#000000" d="M 126.953125 86.527344 L 23.003906 86.527344 C 19.539062 86.527344 17.230469 84.21875 17.230469 80.753906 L 17.230469 69.203125 C 17.230469 65.738281 19.539062 63.429688 23.003906 63.429688 L 126.953125 63.429688 C 130.417969 63.429688 132.730469 65.738281 132.730469 69.203125 L 132.730469 80.753906 C 132.730469 84.21875 130.417969 86.527344 126.953125 86.527344 Z M 126.953125 86.527344 " fill-opacity="1" fill-rule="nonzero"/></g><g clip-path="url(#80cff9893e)"><path fill="#000000" d="M 63.429688 126.953125 L 63.429688 23.003906 C 63.429688 19.539062 65.738281 17.230469 69.203125 17.230469 L 80.753906 17.230469 C 84.21875 17.230469 86.527344 19.539062 86.527344 23.003906 L 86.527344 126.953125 C 86.527344 130.417969 84.21875 132.730469 80.753906 132.730469 L 69.203125 132.730469 C 65.738281 132.730469 63.429688 130.417969 63.429688 126.953125 Z M 63.429688 126.953125 " fill-opacity="1" fill-rule="nonzero"/></g></svg>