<svg xmlns="http://www.w3.org/2000/svg" xmlns:xlink="http://www.w3.org/1999/xlink" width="200" zoomAndPan="magnify" viewBox="0 0 150 149.999998" height="200" preserveAspectRatio="xMidYMid meet" version="1.0"><defs><clipPath id="95a2aa455b"><path d="M 33 15 L 116.925781 15 L 116.925781 135 L 33 135 Z M 33 15 " clip-rule="nonzero"/></clipPath></defs><g clip-path="url(#95a2aa455b)"><path fill="#000000" d="M 36.660156 123.15625 C 37.851562 124.390625 39.234375 125.34375 40.8125 126.007812 C 42.390625 126.675781 44.039062 127.007812 45.75 127.003906 L 51.367188 127.003906 L 51.367188 133.464844 C 51.367188 133.585938 51.382812 133.707031 51.414062 133.828125 C 51.441406 133.945312 51.488281 134.058594 51.546875 134.167969 C 51.605469 134.273438 51.675781 134.375 51.761719 134.464844 C 51.84375 134.554688 51.9375 134.628906 52.039062 134.695312 C 52.144531 134.761719 52.253906 134.816406 52.371094 134.855469 C 52.488281 134.890625 52.605469 134.914062 52.730469 134.921875 C 52.851562 134.933594 52.972656 134.925781 53.09375 134.902344 C 53.214844 134.878906 53.328125 134.84375 53.441406 134.792969 L 60.710938 131.414062 L 67.980469 134.792969 C 68.089844 134.84375 68.207031 134.878906 68.328125 134.902344 C 68.449219 134.925781 68.570312 134.933594 68.691406 134.921875 C 68.816406 134.914062 68.933594 134.890625 69.050781 134.855469 C 69.167969 134.816406 69.277344 134.761719 69.378906 134.695312 C 69.484375 134.628906 69.578125 134.554688 69.660156 134.464844 C 69.746094 134.375 69.816406 134.273438 69.875 134.167969 C 69.933594 134.058594 69.976562 133.945312 70.007812 133.828125 C 70.039062 133.707031 70.054688 133.585938 70.054688 133.464844 L 70.054688 115.761719 L 106.925781 115.761719 C 106.984375 116.792969 107.175781 117.796875 107.496094 118.777344 L 74.484375 118.777344 C 74.289062 118.777344 74.105469 118.816406 73.925781 118.890625 C 73.746094 118.964844 73.589844 119.070312 73.453125 119.207031 C 73.3125 119.34375 73.207031 119.5 73.132812 119.679688 C 73.0625 119.859375 73.023438 120.046875 73.023438 120.242188 C 73.023438 120.433594 73.0625 120.621094 73.132812 120.800781 C 73.207031 120.980469 73.3125 121.136719 73.453125 121.273438 C 73.589844 121.410156 73.746094 121.515625 73.925781 121.589844 C 74.105469 121.664062 74.289062 121.703125 74.484375 121.703125 L 112.640625 121.703125 C 112.816406 121.703125 112.984375 121.738281 113.148438 121.804688 C 113.3125 121.871094 113.453125 121.96875 113.578125 122.09375 C 113.703125 122.21875 113.800781 122.363281 113.867188 122.527344 C 113.933594 122.6875 113.96875 122.859375 113.96875 123.035156 L 113.96875 124.078125 L 74.484375 124.078125 C 74.289062 124.078125 74.105469 124.113281 73.925781 124.1875 C 73.746094 124.261719 73.589844 124.367188 73.453125 124.507812 C 73.3125 124.644531 73.207031 124.800781 73.132812 124.980469 C 73.0625 125.160156 73.023438 125.347656 73.023438 125.539062 C 73.023438 125.734375 73.0625 125.921875 73.132812 126.101562 C 73.207031 126.277344 73.3125 126.4375 73.453125 126.574219 C 73.589844 126.710938 73.746094 126.816406 73.925781 126.890625 C 74.105469 126.964844 74.289062 127.003906 74.484375 127.003906 L 115.429688 127.003906 C 115.621094 127.003906 115.808594 126.964844 115.988281 126.890625 C 116.167969 126.816406 116.324219 126.710938 116.460938 126.574219 C 116.597656 126.4375 116.703125 126.277344 116.777344 126.101562 C 116.851562 125.921875 116.890625 125.734375 116.890625 125.539062 L 116.890625 123.035156 C 116.890625 122.757812 116.863281 122.480469 116.808594 122.207031 C 116.753906 121.929688 116.671875 121.664062 116.566406 121.40625 C 116.457031 121.148438 116.328125 120.902344 116.171875 120.671875 C 116.015625 120.4375 115.839844 120.222656 115.644531 120.027344 C 115.445312 119.828125 115.230469 119.652344 115 119.496094 C 114.765625 119.339844 114.523438 119.210938 114.265625 119.101562 C 114.007812 118.996094 113.742188 118.914062 113.46875 118.859375 C 113.195312 118.804688 112.917969 118.777344 112.640625 118.777344 L 110.636719 118.777344 C 109.113281 115.488281 110.121094 111.957031 110.707031 110.421875 L 112.636719 110.421875 C 112.917969 110.421875 113.195312 110.394531 113.46875 110.335938 C 113.742188 110.28125 114.007812 110.203125 114.265625 110.09375 C 114.523438 109.988281 114.765625 109.855469 115 109.703125 C 115.230469 109.546875 115.445312 109.371094 115.640625 109.171875 C 115.839844 108.972656 116.015625 108.757812 116.171875 108.527344 C 116.324219 108.292969 116.457031 108.050781 116.5625 107.792969 C 116.671875 107.535156 116.75 107.265625 116.804688 106.992188 C 116.859375 106.71875 116.886719 106.441406 116.886719 106.164062 L 116.886719 16.460938 C 116.886719 16.269531 116.851562 16.082031 116.777344 15.902344 C 116.703125 15.722656 116.597656 15.566406 116.460938 15.429688 C 116.324219 15.292969 116.164062 15.1875 115.988281 15.113281 C 115.808594 15.039062 115.621094 15 115.429688 15 L 45.984375 15 C 45.960938 15 45.9375 15.007812 45.914062 15.007812 C 45.886719 15.007812 45.867188 15.003906 45.84375 15.007812 C 44.429688 15.140625 43.070312 15.492188 41.765625 16.054688 C 40.460938 16.621094 39.273438 17.375 38.207031 18.3125 C 37.394531 19.03125 36.664062 19.824219 36.019531 20.699219 C 35.378906 21.574219 34.835938 22.507812 34.390625 23.496094 C 33.949219 24.488281 33.617188 25.515625 33.394531 26.578125 C 33.171875 27.640625 33.0625 28.714844 33.074219 29.800781 L 33.074219 113.988281 C 33.027344 115.695312 33.3125 117.347656 33.9375 118.9375 C 34.558594 120.527344 35.46875 121.933594 36.660156 123.15625 Z M 67.132812 131.175781 L 61.324219 128.476562 C 60.914062 128.285156 60.507812 128.285156 60.097656 128.476562 L 54.285156 131.175781 L 54.285156 115.761719 L 67.136719 115.761719 Z M 107.0625 112.835938 L 47.3125 112.835938 C 47.117188 112.835938 46.929688 112.875 46.753906 112.949219 C 46.574219 113.023438 46.414062 113.128906 46.277344 113.265625 C 46.140625 113.402344 46.035156 113.558594 45.960938 113.738281 C 45.886719 113.917969 45.851562 114.105469 45.851562 114.296875 C 45.851562 114.492188 45.886719 114.679688 45.960938 114.859375 C 46.035156 115.039062 46.140625 115.195312 46.277344 115.332031 C 46.414062 115.46875 46.574219 115.574219 46.753906 115.648438 C 46.929688 115.722656 47.117188 115.761719 47.3125 115.761719 L 51.367188 115.761719 L 51.367188 118.777344 L 45.75 118.777344 C 45.46875 118.777344 45.1875 118.75 44.914062 118.691406 C 44.636719 118.636719 44.367188 118.550781 44.109375 118.441406 C 43.847656 118.328125 43.601562 118.191406 43.371094 118.03125 C 43.140625 117.871094 42.925781 117.6875 42.730469 117.480469 C 42.535156 117.277344 42.363281 117.054688 42.214844 116.8125 C 42.0625 116.574219 41.941406 116.320312 41.839844 116.054688 C 41.742188 115.789062 41.671875 115.519531 41.628906 115.238281 C 41.585938 114.960938 41.570312 114.679688 41.585938 114.394531 C 41.625 113.851562 41.765625 113.332031 42.003906 112.84375 C 42.242188 112.351562 42.5625 111.921875 42.964844 111.554688 C 43.367188 111.183594 43.820312 110.902344 44.332031 110.707031 C 44.839844 110.511719 45.367188 110.414062 45.910156 110.421875 L 107.613281 110.421875 C 107.367188 111.210938 107.183594 112.015625 107.0625 112.835938 Z M 113.96875 106.164062 C 113.96875 106.339844 113.933594 106.507812 113.867188 106.671875 C 113.800781 106.835938 113.703125 106.980469 113.578125 107.105469 C 113.453125 107.230469 113.3125 107.324219 113.148438 107.394531 C 112.984375 107.460938 112.816406 107.496094 112.640625 107.496094 L 45.910156 107.496094 C 45.453125 107.488281 45 107.527344 44.550781 107.609375 C 44.101562 107.6875 43.664062 107.8125 43.238281 107.976562 C 42.8125 108.140625 42.402344 108.347656 42.015625 108.589844 C 41.628906 108.832031 41.269531 109.109375 40.933594 109.421875 C 40.601562 109.734375 40.296875 110.074219 40.03125 110.445312 C 39.761719 110.816406 39.527344 111.207031 39.335938 111.621094 C 39.140625 112.035156 38.988281 112.464844 38.875 112.910156 C 38.761719 113.351562 38.695312 113.800781 38.667969 114.257812 C 38.644531 114.738281 38.671875 115.21875 38.742188 115.691406 C 38.816406 116.167969 38.9375 116.628906 39.105469 117.082031 C 39.273438 117.53125 39.484375 117.960938 39.738281 118.367188 C 39.992188 118.777344 40.285156 119.152344 40.617188 119.5 C 40.949219 119.851562 41.3125 120.160156 41.707031 120.433594 C 42.101562 120.710938 42.519531 120.941406 42.960938 121.132812 C 43.398438 121.320312 43.855469 121.464844 44.328125 121.558594 C 44.796875 121.65625 45.273438 121.703125 45.75 121.703125 L 51.367188 121.703125 L 51.367188 124.078125 L 45.75 124.078125 C 45.097656 124.078125 44.453125 124.015625 43.8125 123.882812 C 43.171875 123.753906 42.554688 123.5625 41.953125 123.308594 C 41.351562 123.054688 40.78125 122.742188 40.242188 122.375 C 39.703125 122.003906 39.207031 121.585938 38.75 121.117188 C 38.296875 120.648438 37.894531 120.140625 37.539062 119.589844 C 37.1875 119.039062 36.890625 118.460938 36.65625 117.851562 C 36.417969 117.242188 36.242188 116.613281 36.132812 115.972656 C 36.019531 115.328125 35.972656 114.679688 35.992188 114.023438 C 36.136719 108.785156 40.617188 104.519531 45.984375 104.519531 L 113.96875 104.519531 Z M 40.117188 20.527344 C 41.402344 19.398438 42.871094 18.621094 44.523438 18.195312 L 44.523438 96.046875 C 44.523438 96.238281 44.5625 96.425781 44.636719 96.605469 C 44.710938 96.785156 44.816406 96.941406 44.953125 97.078125 C 45.089844 97.214844 45.246094 97.324219 45.425781 97.398438 C 45.605469 97.472656 45.792969 97.507812 45.984375 97.507812 C 46.179688 97.507812 46.363281 97.472656 46.542969 97.398438 C 46.722656 97.324219 46.878906 97.214844 47.015625 97.078125 C 47.15625 96.941406 47.261719 96.785156 47.335938 96.605469 C 47.40625 96.425781 47.445312 96.238281 47.445312 96.046875 L 47.445312 17.925781 L 113.96875 17.925781 L 113.96875 101.59375 L 45.984375 101.59375 C 45.03125 101.597656 44.089844 101.703125 43.160156 101.910156 C 42.226562 102.121094 41.332031 102.425781 40.46875 102.832031 C 39.605469 103.242188 38.796875 103.734375 38.039062 104.320312 C 37.285156 104.902344 36.605469 105.5625 35.992188 106.296875 L 35.992188 29.800781 C 35.976562 28.027344 36.328125 26.332031 37.046875 24.714844 C 37.765625 23.09375 38.789062 21.699219 40.117188 20.527344 Z M 40.117188 20.527344 " fill-opacity="1" fill-rule="nonzero"/></g></svg>