<svg xmlns="http://www.w3.org/2000/svg" xmlns:xlink="http://www.w3.org/1999/xlink" width="200" zoomAndPan="magnify" viewBox="0 0 150 149.999998" height="200" preserveAspectRatio="xMidYMid meet" version="1.0"><defs><clipPath id="74825e8734"><path d="M 33 15 L 116.925781 15 L 116.925781 135 L 33 135 Z M 33 15 " clip-rule="nonzero"/></clipPath></defs><g clip-path="url(#74825e8734)"><path fill="#ffffff" d="M 36.667969 123.15625 C 37.859375 124.390625 39.246094 125.34375 40.828125 126.007812 C 42.410156 126.675781 44.058594 127.007812 45.773438 127.003906 L 51.398438 127.003906 L 51.398438 133.464844 C 51.398438 133.585938 51.414062 133.707031 51.441406 133.828125 C 51.472656 133.945312 51.519531 134.058594 51.578125 134.167969 C 51.636719 134.273438 51.707031 134.375 51.792969 134.464844 C 51.875 134.554688 51.96875 134.628906 52.074219 134.695312 C 52.175781 134.761719 52.285156 134.816406 52.402344 134.855469 C 52.519531 134.890625 52.640625 134.914062 52.761719 134.921875 C 52.882812 134.933594 53.007812 134.925781 53.125 134.902344 C 53.246094 134.878906 53.363281 134.84375 53.476562 134.792969 L 60.757812 131.414062 L 68.039062 134.792969 C 68.152344 134.84375 68.265625 134.878906 68.386719 134.902344 C 68.507812 134.925781 68.628906 134.933594 68.753906 134.921875 C 68.875 134.914062 68.996094 134.890625 69.109375 134.855469 C 69.226562 134.816406 69.339844 134.761719 69.441406 134.695312 C 69.542969 134.628906 69.636719 134.554688 69.722656 134.464844 C 69.804688 134.375 69.878906 134.273438 69.9375 134.167969 C 69.996094 134.058594 70.039062 133.945312 70.070312 133.828125 C 70.101562 133.707031 70.117188 133.585938 70.117188 133.464844 L 70.117188 115.761719 L 107.050781 115.761719 C 107.109375 116.792969 107.296875 117.796875 107.621094 118.777344 L 74.554688 118.777344 C 74.359375 118.777344 74.171875 118.816406 73.992188 118.890625 C 73.8125 118.964844 73.65625 119.070312 73.519531 119.207031 C 73.382812 119.34375 73.277344 119.5 73.203125 119.679688 C 73.128906 119.859375 73.089844 120.046875 73.089844 120.242188 C 73.089844 120.433594 73.128906 120.621094 73.203125 120.800781 C 73.277344 120.980469 73.382812 121.136719 73.519531 121.273438 C 73.65625 121.410156 73.8125 121.515625 73.992188 121.589844 C 74.171875 121.664062 74.359375 121.703125 74.554688 121.703125 L 112.773438 121.703125 C 112.949219 121.703125 113.121094 121.738281 113.28125 121.804688 C 113.445312 121.871094 113.589844 121.96875 113.714844 122.09375 C 113.839844 122.21875 113.9375 122.363281 114.003906 122.527344 C 114.070312 122.6875 114.105469 122.859375 114.105469 123.035156 L 114.105469 124.078125 L 74.554688 124.078125 C 74.359375 124.078125 74.171875 124.113281 73.992188 124.1875 C 73.8125 124.261719 73.65625 124.367188 73.519531 124.507812 C 73.382812 124.644531 73.277344 124.800781 73.203125 124.980469 C 73.128906 125.160156 73.089844 125.347656 73.089844 125.539062 C 73.089844 125.734375 73.128906 125.921875 73.203125 126.101562 C 73.277344 126.277344 73.382812 126.4375 73.519531 126.574219 C 73.65625 126.710938 73.8125 126.816406 73.992188 126.890625 C 74.171875 126.964844 74.359375 127.003906 74.554688 127.003906 L 115.566406 127.003906 C 115.761719 127.003906 115.949219 126.964844 116.128906 126.890625 C 116.304688 126.816406 116.464844 126.710938 116.601562 126.574219 C 116.738281 126.4375 116.84375 126.277344 116.917969 126.101562 C 116.992188 125.921875 117.03125 125.734375 117.03125 125.539062 L 117.03125 123.035156 C 117.03125 122.757812 117.003906 122.480469 116.949219 122.207031 C 116.894531 121.929688 116.8125 121.664062 116.703125 121.40625 C 116.597656 121.148438 116.464844 120.902344 116.3125 120.671875 C 116.15625 120.4375 115.980469 120.222656 115.78125 120.027344 C 115.585938 119.828125 115.367188 119.652344 115.136719 119.496094 C 114.90625 119.339844 114.660156 119.210938 114.402344 119.101562 C 114.144531 118.996094 113.875 118.914062 113.601562 118.859375 C 113.328125 118.804688 113.050781 118.777344 112.773438 118.777344 L 110.765625 118.777344 C 109.238281 115.488281 110.25 111.957031 110.839844 110.421875 L 112.773438 110.421875 C 113.050781 110.421875 113.328125 110.394531 113.601562 110.335938 C 113.875 110.28125 114.140625 110.203125 114.398438 110.09375 C 114.65625 109.988281 114.902344 109.855469 115.136719 109.703125 C 115.367188 109.546875 115.582031 109.371094 115.78125 109.171875 C 115.976562 108.972656 116.15625 108.757812 116.308594 108.527344 C 116.464844 108.292969 116.597656 108.050781 116.703125 107.792969 C 116.8125 107.535156 116.890625 107.265625 116.945312 106.992188 C 117 106.71875 117.027344 106.441406 117.027344 106.164062 L 117.027344 16.460938 C 117.027344 16.269531 116.992188 16.082031 116.917969 15.902344 C 116.84375 15.722656 116.738281 15.566406 116.601562 15.429688 C 116.464844 15.292969 116.304688 15.1875 116.125 15.113281 C 115.945312 15.039062 115.761719 15 115.566406 15 L 46.007812 15 C 45.980469 15 45.957031 15.007812 45.933594 15.007812 C 45.910156 15.007812 45.886719 15.003906 45.863281 15.007812 C 44.449219 15.140625 43.085938 15.492188 41.78125 16.054688 C 40.472656 16.621094 39.285156 17.375 38.21875 18.3125 C 37.402344 19.03125 36.671875 19.824219 36.027344 20.699219 C 35.382812 21.574219 34.835938 22.507812 34.394531 23.496094 C 33.949219 24.488281 33.617188 25.515625 33.394531 26.578125 C 33.171875 27.640625 33.066406 28.714844 33.074219 29.800781 L 33.074219 113.988281 C 33.027344 115.695312 33.3125 117.347656 33.9375 118.9375 C 34.5625 120.527344 35.472656 121.933594 36.667969 123.15625 Z M 67.191406 131.175781 L 61.371094 128.476562 C 60.960938 128.285156 60.550781 128.285156 60.140625 128.476562 L 54.324219 131.175781 L 54.324219 115.761719 L 67.191406 115.761719 Z M 107.183594 112.835938 L 47.335938 112.835938 C 47.140625 112.835938 46.953125 112.875 46.777344 112.949219 C 46.597656 113.023438 46.4375 113.128906 46.300781 113.265625 C 46.164062 113.402344 46.058594 113.558594 45.984375 113.738281 C 45.910156 113.917969 45.871094 114.105469 45.871094 114.296875 C 45.871094 114.492188 45.910156 114.679688 45.984375 114.859375 C 46.058594 115.039062 46.164062 115.195312 46.300781 115.332031 C 46.4375 115.46875 46.597656 115.574219 46.777344 115.648438 C 46.953125 115.722656 47.140625 115.761719 47.335938 115.761719 L 51.398438 115.761719 L 51.398438 118.777344 L 45.773438 118.777344 C 45.488281 118.777344 45.210938 118.75 44.933594 118.691406 C 44.65625 118.636719 44.386719 118.550781 44.125 118.441406 C 43.867188 118.328125 43.621094 118.191406 43.386719 118.03125 C 43.15625 117.871094 42.941406 117.6875 42.746094 117.480469 C 42.550781 117.277344 42.378906 117.054688 42.230469 116.8125 C 42.078125 116.574219 41.957031 116.320312 41.855469 116.054688 C 41.757812 115.789062 41.6875 115.519531 41.644531 115.238281 C 41.601562 114.960938 41.585938 114.679688 41.597656 114.394531 C 41.640625 113.851562 41.78125 113.332031 42.019531 112.84375 C 42.257812 112.351562 42.578125 111.921875 42.980469 111.554688 C 43.382812 111.183594 43.839844 110.902344 44.351562 110.707031 C 44.859375 110.511719 45.386719 110.414062 45.933594 110.421875 L 107.738281 110.421875 C 107.492188 111.210938 107.308594 112.015625 107.183594 112.835938 Z M 114.105469 106.164062 C 114.105469 106.339844 114.070312 106.507812 114.003906 106.671875 C 113.933594 106.835938 113.839844 106.980469 113.714844 107.105469 C 113.589844 107.230469 113.445312 107.324219 113.28125 107.394531 C 113.117188 107.460938 112.949219 107.496094 112.773438 107.496094 L 45.933594 107.496094 C 45.476562 107.488281 45.019531 107.527344 44.570312 107.609375 C 44.121094 107.6875 43.679688 107.8125 43.253906 107.976562 C 42.828125 108.140625 42.417969 108.347656 42.03125 108.589844 C 41.644531 108.832031 41.28125 109.109375 40.949219 109.421875 C 40.613281 109.734375 40.3125 110.074219 40.042969 110.445312 C 39.773438 110.816406 39.539062 111.207031 39.34375 111.621094 C 39.152344 112.035156 38.996094 112.464844 38.886719 112.910156 C 38.773438 113.351562 38.703125 113.800781 38.675781 114.257812 C 38.65625 114.738281 38.679688 115.21875 38.753906 115.691406 C 38.828125 116.167969 38.949219 116.628906 39.117188 117.082031 C 39.285156 117.53125 39.496094 117.960938 39.75 118.367188 C 40.003906 118.777344 40.300781 119.152344 40.628906 119.5 C 40.960938 119.851562 41.324219 120.160156 41.71875 120.433594 C 42.117188 120.710938 42.535156 120.941406 42.976562 121.132812 C 43.417969 121.320312 43.875 121.464844 44.34375 121.558594 C 44.816406 121.65625 45.292969 121.703125 45.773438 121.703125 L 51.398438 121.703125 L 51.398438 124.078125 L 45.773438 124.078125 C 45.121094 124.078125 44.472656 124.015625 43.832031 123.882812 C 43.191406 123.753906 42.570312 123.5625 41.96875 123.308594 C 41.363281 123.054688 40.792969 122.742188 40.253906 122.375 C 39.714844 122.003906 39.21875 121.585938 38.761719 121.117188 C 38.304688 120.648438 37.902344 120.140625 37.546875 119.589844 C 37.195312 119.039062 36.898438 118.460938 36.660156 117.851562 C 36.425781 117.242188 36.25 116.613281 36.136719 115.972656 C 36.027344 115.328125 35.980469 114.679688 35.996094 114.023438 C 36.140625 108.785156 40.632812 104.519531 46.007812 104.519531 L 114.105469 104.519531 Z M 40.128906 20.527344 C 41.414062 19.398438 42.886719 18.621094 44.542969 18.195312 L 44.542969 96.046875 C 44.542969 96.238281 44.582031 96.425781 44.65625 96.605469 C 44.730469 96.785156 44.835938 96.941406 44.972656 97.078125 C 45.109375 97.214844 45.269531 97.324219 45.449219 97.398438 C 45.625 97.472656 45.8125 97.507812 46.007812 97.507812 C 46.199219 97.507812 46.386719 97.472656 46.566406 97.398438 C 46.746094 97.324219 46.902344 97.214844 47.042969 97.078125 C 47.179688 96.941406 47.285156 96.785156 47.359375 96.605469 C 47.433594 96.425781 47.46875 96.238281 47.46875 96.046875 L 47.46875 17.925781 L 114.105469 17.925781 L 114.105469 101.59375 L 46.007812 101.59375 C 45.050781 101.597656 44.109375 101.703125 43.175781 101.910156 C 42.242188 102.121094 41.34375 102.425781 40.480469 102.832031 C 39.617188 103.242188 38.804688 103.734375 38.050781 104.320312 C 37.292969 104.902344 36.609375 105.5625 36 106.296875 L 36 29.800781 C 35.980469 28.027344 36.332031 26.332031 37.054688 24.714844 C 37.773438 23.09375 38.800781 21.699219 40.128906 20.527344 Z M 40.128906 20.527344 " fill-opacity="1" fill-rule="nonzero"/></g></svg>