<svg xmlns="http://www.w3.org/2000/svg" xmlns:xlink="http://www.w3.org/1999/xlink" width="200" zoomAndPan="magnify" viewBox="0 0 150 149.999998" height="200" preserveAspectRatio="xMidYMid meet" version="1.0"><defs><clipPath id="b4615aca35"><path d="M 11.308594 24.839844 L 131.308594 24.839844 L 131.308594 119.339844 L 11.308594 119.339844 Z M 11.308594 24.839844 " clip-rule="nonzero"/></clipPath></defs><g clip-path="url(#b4615aca35)"><path fill="#000000" d="M 125.300781 40.808594 L 100.148438 40.808594 L 99.300781 34.796875 L 98.648438 30.746094 C 98.382812 29.117188 97.519531 27.761719 96.164062 26.632812 C 94.777344 25.476562 93.289062 24.871094 91.65625 24.871094 L 50.765625 24.871094 C 49.132812 24.871094 47.628906 25.457031 46.257812 26.632812 C 44.886719 27.808594 44.15625 29.1875 43.90625 30.746094 L 43.253906 34.796875 L 42.339844 40.808594 L 17.320312 40.808594 C 13.988281 40.808594 11.308594 43.484375 11.308594 46.6875 L 11.308594 113.316406 C 11.308594 116.648438 13.988281 119.324219 17.320312 119.324219 L 125.296875 119.324219 C 128.628906 119.324219 131.308594 116.648438 131.308594 113.316406 L 131.308594 46.6875 C 131.308594 43.484375 128.628906 40.808594 125.296875 40.808594 Z M 124.058594 112.078125 L 18.496094 112.078125 L 18.496094 47.992188 L 42.339844 47.992188 C 45.933594 47.992188 49.035156 45.320312 49.523438 41.855469 L 50.375 35.84375 L 51.027344 32.121094 L 91.527344 32.121094 L 92.113281 35.84375 L 93.027344 41.855469 C 93.554688 45.316406 96.6875 47.992188 100.148438 47.992188 L 124.058594 47.992188 Z M 124.058594 112.078125 " fill-opacity="1" fill-rule="nonzero"/></g><path fill="#000000" d="M 112.429688 65.042969 C 115.566406 65.042969 118.179688 62.367188 118.179688 59.230469 C 118.179688 56.027344 115.632812 53.351562 112.429688 53.351562 C 109.230469 53.351562 106.683594 56.027344 106.683594 59.230469 C 106.683594 62.367188 109.292969 65.042969 112.429688 65.042969 Z M 112.429688 65.042969 " fill-opacity="1" fill-rule="nonzero"/><path fill="#000000" d="M 71.210938 49.886719 C 63.832031 49.886719 57.429688 52.566406 52.136719 57.855469 C 46.84375 63.148438 44.167969 69.550781 44.167969 76.933594 C 44.167969 84.3125 46.84375 90.714844 52.136719 96.003906 C 57.429688 101.296875 63.832031 103.800781 71.210938 103.910156 C 85.84375 104.125 98.425781 91.433594 98.253906 76.933594 C 98.167969 69.484375 95.574219 63.148438 90.285156 57.855469 C 84.992188 52.566406 78.65625 49.886719 71.210938 49.886719 Z M 85.191406 90.976562 C 81.335938 94.828125 76.699219 96.722656 71.210938 96.722656 C 65.789062 96.722656 61.152344 94.828125 57.296875 90.976562 C 53.441406 87.121094 51.546875 82.417969 51.546875 76.933594 C 51.546875 71.507812 53.441406 66.804688 57.296875 62.953125 C 61.152344 59.097656 65.789062 57.136719 71.210938 57.136719 C 76.699219 57.136719 81.335938 59.097656 85.191406 62.953125 C 89.042969 66.804688 91.003906 71.507812 91.003906 76.933594 C 91.003906 82.417969 89.042969 87.121094 85.191406 90.976562 Z M 85.191406 90.976562 " fill-opacity="1" fill-rule="nonzero"/></svg>