<svg xmlns="http://www.w3.org/2000/svg" xmlns:xlink="http://www.w3.org/1999/xlink" width="200" zoomAndPan="magnify" viewBox="0 0 150 149.999998" height="200" preserveAspectRatio="xMidYMid meet" version="1.0"><defs><clipPath id="f41d57a841"><path d="M 11.308594 24.839844 L 138.808594 24.839844 L 138.808594 125.339844 L 11.308594 125.339844 Z M 11.308594 24.839844 " clip-rule="nonzero"/></clipPath></defs><g clip-path="url(#f41d57a841)"><path fill="#000000" d="M 132.421875 41.824219 L 105.703125 41.824219 L 104.800781 35.433594 L 104.105469 31.125 C 103.828125 29.390625 102.910156 27.953125 101.46875 26.75 C 99.992188 25.519531 98.414062 24.875 96.679688 24.875 L 53.230469 24.875 C 51.496094 24.875 49.898438 25.5 48.441406 26.75 C 46.984375 28 46.210938 29.46875 45.945312 31.125 L 45.25 35.433594 L 44.277344 41.824219 L 17.695312 41.824219 C 14.152344 41.824219 11.308594 44.671875 11.308594 48.078125 L 11.308594 118.929688 C 11.308594 122.472656 14.152344 125.320312 17.695312 125.320312 L 132.421875 125.320312 C 135.960938 125.320312 138.808594 122.472656 138.808594 118.929688 L 138.808594 48.078125 C 138.808594 44.671875 135.960938 41.824219 132.421875 41.824219 Z M 131.105469 117.613281 L 18.945312 117.613281 L 18.945312 49.464844 L 44.277344 49.464844 C 48.09375 49.464844 51.390625 46.625 51.914062 42.9375 L 52.816406 36.546875 L 53.507812 32.585938 L 96.539062 32.585938 L 97.164062 36.546875 L 98.136719 42.9375 C 98.695312 46.617188 102.023438 49.464844 105.703125 49.464844 L 131.105469 49.464844 Z M 131.105469 117.613281 " fill-opacity="1" fill-rule="nonzero"/></g><path fill="#000000" d="M 118.75 67.597656 C 122.082031 67.597656 124.859375 64.75 124.859375 61.414062 C 124.859375 58.011719 122.152344 55.164062 118.75 55.164062 C 115.347656 55.164062 112.644531 58.011719 112.644531 61.414062 C 112.640625 64.75 115.417969 67.597656 118.75 67.597656 Z M 118.75 67.597656 " fill-opacity="1" fill-rule="nonzero"/><path fill="#000000" d="M 74.953125 51.480469 C 67.113281 51.480469 60.3125 54.328125 54.6875 59.953125 C 49.066406 65.582031 46.21875 72.390625 46.21875 80.238281 C 46.21875 88.085938 49.066406 94.894531 54.6875 100.523438 C 60.3125 106.148438 67.113281 108.8125 74.953125 108.929688 C 90.503906 109.15625 103.871094 95.660156 103.6875 80.238281 C 103.59375 72.320312 100.84375 65.582031 95.222656 59.953125 C 89.597656 54.328125 82.867188 51.480469 74.953125 51.480469 Z M 89.808594 95.175781 C 85.714844 99.269531 80.785156 101.285156 74.953125 101.285156 C 69.195312 101.285156 64.265625 99.273438 60.171875 95.175781 C 56.074219 91.074219 54.0625 86.074219 54.0625 80.238281 C 54.0625 74.472656 56.074219 69.472656 60.171875 65.371094 C 64.265625 61.273438 69.195312 59.191406 74.953125 59.191406 C 80.785156 59.191406 85.714844 61.273438 89.808594 65.371094 C 93.902344 69.472656 95.984375 74.472656 95.984375 80.238281 C 95.984375 86.074219 93.902344 91.074219 89.808594 95.175781 Z M 89.808594 95.175781 " fill-opacity="1" fill-rule="nonzero"/></svg>