<svg xmlns="http://www.w3.org/2000/svg" xmlns:xlink="http://www.w3.org/1999/xlink" width="200" zoomAndPan="magnify" viewBox="0 0 150 149.999998" height="200" preserveAspectRatio="xMidYMid meet" version="1.0"><defs><clipPath id="de2c17112f"><path d="M 15 24.839844 L 135 24.839844 L 135 119.339844 L 15 119.339844 Z M 15 24.839844 " clip-rule="nonzero"/></clipPath></defs><g clip-path="url(#de2c17112f)"><path fill="#ffffff" d="M 128.988281 40.808594 L 103.839844 40.808594 L 102.992188 34.796875 L 102.339844 30.746094 C 102.074219 29.117188 101.210938 27.761719 99.855469 26.632812 C 98.46875 25.476562 96.980469 24.871094 95.347656 24.871094 L 54.457031 24.871094 C 52.824219 24.871094 51.320312 25.457031 49.949219 26.632812 C 48.578125 27.808594 47.847656 29.1875 47.597656 30.746094 L 46.945312 34.796875 L 46.03125 40.808594 L 21.011719 40.808594 C 17.675781 40.808594 15 43.484375 15 46.6875 L 15 113.316406 C 15 116.648438 17.675781 119.324219 21.011719 119.324219 L 128.988281 119.324219 C 132.320312 119.324219 135 116.648438 135 113.316406 L 135 46.6875 C 135 43.484375 132.320312 40.808594 128.988281 40.808594 Z M 127.75 112.078125 L 22.1875 112.078125 L 22.1875 47.992188 L 46.03125 47.992188 C 49.621094 47.992188 52.726562 45.320312 53.214844 41.855469 L 54.0625 35.84375 L 54.71875 32.121094 L 95.21875 32.121094 L 95.804688 35.84375 L 96.71875 41.855469 C 97.246094 45.316406 100.378906 47.992188 103.839844 47.992188 L 127.75 47.992188 Z M 127.75 112.078125 " fill-opacity="1" fill-rule="nonzero"/></g><path fill="#ffffff" d="M 116.121094 65.042969 C 119.257812 65.042969 121.871094 62.367188 121.871094 59.230469 C 121.871094 56.027344 119.324219 53.351562 116.121094 53.351562 C 112.921875 53.351562 110.375 56.027344 110.375 59.230469 C 110.371094 62.367188 112.984375 65.042969 116.121094 65.042969 Z M 116.121094 65.042969 " fill-opacity="1" fill-rule="nonzero"/><path fill="#ffffff" d="M 74.902344 49.886719 C 67.523438 49.886719 61.121094 52.566406 55.828125 57.855469 C 50.535156 63.148438 47.859375 69.550781 47.859375 76.933594 C 47.859375 84.3125 50.535156 90.714844 55.828125 96.003906 C 61.121094 101.296875 67.523438 103.800781 74.902344 103.910156 C 89.535156 104.125 102.117188 91.433594 101.945312 76.933594 C 101.855469 69.484375 99.265625 63.148438 93.976562 57.855469 C 88.683594 52.566406 82.347656 49.886719 74.902344 49.886719 Z M 88.882812 90.976562 C 85.027344 94.828125 80.390625 96.722656 74.902344 96.722656 C 69.480469 96.722656 64.84375 94.828125 60.988281 90.976562 C 57.132812 87.121094 55.238281 82.417969 55.238281 76.933594 C 55.238281 71.507812 57.132812 66.804688 60.988281 62.953125 C 64.84375 59.097656 69.480469 57.136719 74.902344 57.136719 C 80.390625 57.136719 85.027344 59.097656 88.882812 62.953125 C 92.734375 66.804688 94.695312 71.507812 94.695312 76.933594 C 94.695312 82.417969 92.734375 87.121094 88.882812 90.976562 Z M 88.882812 90.976562 " fill-opacity="1" fill-rule="nonzero"/></svg>