<svg xmlns="http://www.w3.org/2000/svg" xmlns:xlink="http://www.w3.org/1999/xlink" width="200" zoomAndPan="magnify" viewBox="0 0 150 149.999998" height="200" preserveAspectRatio="xMidYMid meet" version="1.0"><defs><clipPath id="3fce189959"><path d="M 23.023438 15 L 127.273438 15 L 127.273438 135 L 23.023438 135 Z M 23.023438 15 " clip-rule="nonzero"/></clipPath></defs><g clip-path="url(#3fce189959)"><path fill="#000000" d="M 23.023438 122.976562 C 23.023438 123.761719 23.101562 124.542969 23.257812 125.316406 C 23.410156 126.085938 23.636719 126.835938 23.941406 127.566406 C 24.242188 128.292969 24.613281 128.984375 25.050781 129.636719 C 25.492188 130.292969 25.988281 130.898438 26.546875 131.457031 C 27.105469 132.011719 27.714844 132.507812 28.371094 132.945312 C 29.027344 133.382812 29.722656 133.753906 30.449219 134.054688 C 31.179688 134.355469 31.933594 134.585938 32.707031 134.738281 C 33.480469 134.890625 34.265625 134.96875 35.054688 134.96875 L 91.1875 134.96875 C 91.976562 134.96875 92.761719 134.890625 93.535156 134.738281 C 94.308594 134.585938 95.0625 134.355469 95.792969 134.054688 C 96.519531 133.753906 97.214844 133.382812 97.871094 132.945312 C 98.527344 132.507812 99.136719 132.011719 99.695312 131.457031 C 100.253906 130.898438 100.75 130.292969 101.191406 129.636719 C 101.628906 128.984375 102 128.292969 102.300781 127.566406 C 102.605469 126.835938 102.832031 126.085938 102.984375 125.316406 C 103.140625 124.542969 103.21875 123.761719 103.21875 122.976562 L 103.21875 118.976562 L 115.246094 118.976562 C 116.035156 118.976562 116.816406 118.898438 117.59375 118.746094 C 118.367188 118.59375 119.121094 118.363281 119.847656 118.0625 C 120.578125 117.761719 121.273438 117.394531 121.929688 116.957031 C 122.585938 116.519531 123.191406 116.019531 123.75 115.464844 C 124.308594 114.90625 124.808594 114.300781 125.246094 113.648438 C 125.6875 112.992188 126.058594 112.300781 126.359375 111.574219 C 126.660156 110.84375 126.890625 110.09375 127.042969 109.324219 C 127.199219 108.550781 127.273438 107.769531 127.273438 106.984375 L 127.273438 27.023438 C 127.273438 26.238281 127.199219 25.457031 127.042969 24.683594 C 126.890625 23.914062 126.660156 23.164062 126.359375 22.433594 C 126.058594 21.707031 125.6875 21.015625 125.246094 20.363281 C 124.808594 19.707031 124.308594 19.101562 123.75 18.542969 C 123.191406 17.988281 122.585938 17.492188 121.929688 17.054688 C 121.273438 16.617188 120.578125 16.246094 119.847656 15.945312 C 119.121094 15.644531 118.367188 15.414062 117.59375 15.261719 C 116.816406 15.109375 116.035156 15.03125 115.246094 15.03125 L 59.113281 15.03125 C 58.320312 15.03125 57.539062 15.109375 56.765625 15.261719 C 55.988281 15.414062 55.238281 15.644531 54.507812 15.945312 C 53.777344 16.246094 53.085938 16.617188 52.429688 17.054688 C 51.773438 17.492188 51.164062 17.988281 50.605469 18.542969 C 50.046875 19.101562 49.546875 19.707031 49.109375 20.363281 C 48.671875 21.015625 48.300781 21.707031 48 22.433594 C 47.695312 23.164062 47.46875 23.914062 47.3125 24.683594 C 47.160156 25.457031 47.082031 26.238281 47.082031 27.023438 L 47.082031 31.023438 L 35.054688 31.023438 C 34.265625 31.023438 33.480469 31.101562 32.707031 31.253906 C 31.933594 31.40625 31.179688 31.632812 30.449219 31.9375 C 29.722656 32.238281 29.027344 32.605469 28.371094 33.042969 C 27.714844 33.480469 27.105469 33.980469 26.546875 34.535156 C 25.988281 35.09375 25.492188 35.699219 25.050781 36.351562 C 24.613281 37.007812 24.242188 37.699219 23.941406 38.425781 C 23.636719 39.15625 23.410156 39.90625 23.257812 40.675781 C 23.101562 41.449219 23.023438 42.230469 23.023438 43.015625 Z M 55.101562 27.023438 C 55.101562 26.761719 55.128906 26.503906 55.179688 26.246094 C 55.230469 25.988281 55.304688 25.738281 55.40625 25.496094 C 55.507812 25.253906 55.632812 25.023438 55.777344 24.804688 C 55.925781 24.585938 56.089844 24.382812 56.277344 24.199219 C 56.460938 24.011719 56.664062 23.847656 56.882812 23.699219 C 57.101562 23.554688 57.332031 23.433594 57.578125 23.332031 C 57.820312 23.230469 58.070312 23.15625 58.328125 23.105469 C 58.585938 23.054688 58.847656 23.027344 59.113281 23.027344 L 115.246094 23.027344 C 115.507812 23.027344 115.769531 23.054688 116.027344 23.105469 C 116.285156 23.15625 116.539062 23.230469 116.78125 23.332031 C 117.023438 23.433594 117.253906 23.554688 117.472656 23.699219 C 117.691406 23.847656 117.894531 24.011719 118.082031 24.199219 C 118.265625 24.382812 118.433594 24.585938 118.578125 24.804688 C 118.726562 25.023438 118.851562 25.253906 118.949219 25.496094 C 119.050781 25.738281 119.128906 25.988281 119.179688 26.246094 C 119.230469 26.503906 119.253906 26.761719 119.253906 27.023438 L 119.253906 106.984375 C 119.253906 107.246094 119.230469 107.503906 119.179688 107.761719 C 119.128906 108.019531 119.050781 108.269531 118.949219 108.511719 C 118.851562 108.753906 118.726562 108.984375 118.578125 109.203125 C 118.433594 109.421875 118.265625 109.625 118.082031 109.808594 C 117.894531 109.996094 117.691406 110.160156 117.472656 110.308594 C 117.253906 110.453125 117.023438 110.578125 116.78125 110.675781 C 116.539062 110.777344 116.285156 110.851562 116.027344 110.902344 C 115.769531 110.957031 115.507812 110.980469 115.246094 110.980469 L 103.21875 110.980469 L 103.21875 43.015625 C 103.21875 42.230469 103.140625 41.449219 102.984375 40.675781 C 102.832031 39.90625 102.605469 39.15625 102.300781 38.425781 C 102 37.699219 101.628906 37.007812 101.191406 36.351562 C 100.75 35.699219 100.253906 35.09375 99.695312 34.535156 C 99.136719 33.980469 98.527344 33.480469 97.871094 33.042969 C 97.214844 32.605469 96.519531 32.238281 95.792969 31.9375 C 95.0625 31.632812 94.308594 31.40625 93.535156 31.253906 C 92.761719 31.101562 91.976562 31.023438 91.1875 31.023438 L 55.101562 31.023438 Z M 31.042969 43.015625 C 31.042969 42.753906 31.070312 42.496094 31.121094 42.238281 C 31.171875 41.980469 31.25 41.730469 31.347656 41.488281 C 31.449219 41.246094 31.574219 41.015625 31.71875 40.796875 C 31.867188 40.578125 32.03125 40.375 32.21875 40.191406 C 32.40625 40.003906 32.605469 39.839844 32.828125 39.691406 C 33.046875 39.546875 33.277344 39.421875 33.519531 39.324219 C 33.761719 39.222656 34.011719 39.148438 34.273438 39.097656 C 34.53125 39.042969 34.789062 39.019531 35.054688 39.019531 L 91.1875 39.019531 C 91.453125 39.019531 91.710938 39.042969 91.96875 39.097656 C 92.230469 39.148438 92.480469 39.222656 92.722656 39.324219 C 92.964844 39.421875 93.195312 39.546875 93.417969 39.691406 C 93.636719 39.839844 93.835938 40.003906 94.023438 40.191406 C 94.210938 40.375 94.375 40.578125 94.523438 40.796875 C 94.667969 41.015625 94.792969 41.246094 94.894531 41.488281 C 94.992188 41.730469 95.070312 41.980469 95.121094 42.238281 C 95.171875 42.496094 95.199219 42.753906 95.199219 43.015625 L 95.199219 122.976562 C 95.199219 123.238281 95.171875 123.496094 95.121094 123.753906 C 95.070312 124.011719 94.992188 124.261719 94.894531 124.503906 C 94.792969 124.746094 94.667969 124.976562 94.523438 125.195312 C 94.375 125.414062 94.210938 125.617188 94.023438 125.800781 C 93.835938 125.988281 93.636719 126.152344 93.417969 126.300781 C 93.195312 126.445312 92.964844 126.566406 92.722656 126.667969 C 92.480469 126.769531 92.230469 126.84375 91.96875 126.894531 C 91.710938 126.945312 91.453125 126.972656 91.1875 126.972656 L 35.054688 126.972656 C 34.789062 126.972656 34.53125 126.945312 34.273438 126.894531 C 34.011719 126.84375 33.761719 126.769531 33.519531 126.667969 C 33.277344 126.566406 33.046875 126.445312 32.828125 126.300781 C 32.605469 126.152344 32.40625 125.988281 32.21875 125.800781 C 32.03125 125.617188 31.867188 125.414062 31.71875 125.195312 C 31.574219 124.976562 31.449219 124.746094 31.347656 124.503906 C 31.25 124.261719 31.171875 124.011719 31.121094 123.753906 C 31.070312 123.496094 31.042969 123.238281 31.042969 122.976562 Z M 31.042969 43.015625 " fill-opacity="1" fill-rule="nonzero"/></g></svg>