<svg xmlns="http://www.w3.org/2000/svg" xmlns:xlink="http://www.w3.org/1999/xlink" width="200" zoomAndPan="magnify" viewBox="0 0 150 149.999998" height="200" preserveAspectRatio="xMidYMid meet" version="1.0"><defs><clipPath id="5c69acf6ba"><path d="M 23.023438 9.667969 L 127 9.667969 L 127 129.667969 L 23.023438 129.667969 Z M 23.023438 9.667969 " clip-rule="nonzero"/></clipPath></defs><g clip-path="url(#5c69acf6ba)"><path fill="#ffffff" d="M 23.023438 117.644531 C 23.023438 118.429688 23.101562 119.210938 23.253906 119.984375 C 23.410156 120.753906 23.636719 121.503906 23.9375 122.234375 C 24.238281 122.960938 24.609375 123.652344 25.046875 124.308594 C 25.484375 124.960938 25.980469 125.566406 26.539062 126.125 C 27.09375 126.679688 27.699219 127.179688 28.355469 127.617188 C 29.011719 128.054688 29.703125 128.421875 30.429688 128.722656 C 31.15625 129.027344 31.90625 129.253906 32.679688 129.40625 C 33.453125 129.558594 34.230469 129.636719 35.019531 129.636719 L 90.988281 129.636719 C 91.777344 129.636719 92.558594 129.558594 93.328125 129.40625 C 94.101562 129.253906 94.851562 129.027344 95.578125 128.722656 C 96.304688 128.421875 96.996094 128.054688 97.652344 127.617188 C 98.308594 127.179688 98.914062 126.679688 99.46875 126.125 C 100.027344 125.566406 100.523438 124.960938 100.960938 124.308594 C 101.398438 123.652344 101.769531 122.960938 102.070312 122.234375 C 102.371094 121.503906 102.597656 120.753906 102.753906 119.984375 C 102.90625 119.210938 102.984375 118.429688 102.984375 117.644531 L 102.984375 113.644531 L 114.976562 113.644531 C 115.765625 113.644531 116.542969 113.570312 117.316406 113.414062 C 118.089844 113.261719 118.839844 113.035156 119.566406 112.734375 C 120.292969 112.429688 120.984375 112.0625 121.640625 111.625 C 122.292969 111.1875 122.902344 110.691406 123.457031 110.132812 C 124.015625 109.574219 124.511719 108.96875 124.949219 108.316406 C 125.386719 107.660156 125.757812 106.96875 126.058594 106.242188 C 126.359375 105.515625 126.585938 104.765625 126.738281 103.992188 C 126.894531 103.21875 126.96875 102.4375 126.96875 101.652344 L 126.96875 21.695312 C 126.96875 20.90625 126.894531 20.125 126.738281 19.355469 C 126.585938 18.582031 126.359375 17.832031 126.058594 17.105469 C 125.757812 16.375 125.386719 15.683594 124.949219 15.03125 C 124.511719 14.375 124.015625 13.769531 123.457031 13.214844 C 122.902344 12.65625 122.292969 12.160156 121.640625 11.722656 C 120.984375 11.285156 120.292969 10.914062 119.566406 10.613281 C 118.839844 10.3125 118.089844 10.085938 117.316406 9.929688 C 116.542969 9.777344 115.765625 9.699219 114.976562 9.699219 L 59.007812 9.699219 C 58.21875 9.699219 57.4375 9.777344 56.667969 9.929688 C 55.894531 10.085938 55.144531 10.3125 54.417969 10.613281 C 53.6875 10.914062 52.996094 11.285156 52.34375 11.722656 C 51.6875 12.160156 51.082031 12.65625 50.523438 13.214844 C 49.96875 13.769531 49.472656 14.375 49.035156 15.03125 C 48.597656 15.683594 48.226562 16.375 47.925781 17.105469 C 47.625 17.832031 47.394531 18.582031 47.242188 19.355469 C 47.089844 20.125 47.011719 20.90625 47.011719 21.695312 L 47.011719 25.691406 L 35.019531 25.691406 C 34.230469 25.691406 33.453125 25.769531 32.679688 25.921875 C 31.90625 26.074219 31.15625 26.304688 30.429688 26.605469 C 29.703125 26.90625 29.011719 27.277344 28.355469 27.714844 C 27.699219 28.152344 27.09375 28.648438 26.539062 29.203125 C 25.980469 29.761719 25.484375 30.367188 25.046875 31.023438 C 24.609375 31.675781 24.238281 32.367188 23.9375 33.09375 C 23.636719 33.824219 23.410156 34.574219 23.253906 35.34375 C 23.101562 36.117188 23.023438 36.898438 23.023438 37.683594 Z M 55.007812 21.695312 C 55.007812 21.429688 55.035156 21.171875 55.085938 20.914062 C 55.136719 20.65625 55.210938 20.40625 55.3125 20.164062 C 55.414062 19.921875 55.535156 19.691406 55.683594 19.472656 C 55.828125 19.253906 55.992188 19.050781 56.179688 18.867188 C 56.363281 18.679688 56.566406 18.515625 56.785156 18.371094 C 57.003906 18.222656 57.234375 18.101562 57.476562 18 C 57.71875 17.898438 57.96875 17.824219 58.226562 17.773438 C 58.484375 17.722656 58.742188 17.695312 59.007812 17.695312 L 114.976562 17.695312 C 115.238281 17.695312 115.5 17.722656 115.757812 17.773438 C 116.015625 17.824219 116.265625 17.898438 116.507812 18 C 116.75 18.101562 116.980469 18.222656 117.199219 18.371094 C 117.414062 18.515625 117.617188 18.679688 117.804688 18.867188 C 117.988281 19.050781 118.15625 19.253906 118.300781 19.472656 C 118.445312 19.691406 118.570312 19.921875 118.671875 20.164062 C 118.769531 20.40625 118.847656 20.65625 118.898438 20.914062 C 118.949219 21.171875 118.972656 21.429688 118.972656 21.695312 L 118.972656 101.652344 C 118.972656 101.914062 118.949219 102.175781 118.898438 102.433594 C 118.847656 102.6875 118.769531 102.9375 118.671875 103.183594 C 118.570312 103.425781 118.445312 103.65625 118.300781 103.871094 C 118.15625 104.089844 117.988281 104.292969 117.804688 104.480469 C 117.617188 104.664062 117.414062 104.832031 117.199219 104.976562 C 116.980469 105.121094 116.75 105.246094 116.507812 105.34375 C 116.265625 105.445312 116.015625 105.523438 115.757812 105.574219 C 115.5 105.625 115.238281 105.648438 114.976562 105.648438 L 102.984375 105.648438 L 102.984375 37.683594 C 102.984375 36.898438 102.90625 36.117188 102.753906 35.34375 C 102.597656 34.574219 102.371094 33.824219 102.070312 33.09375 C 101.769531 32.367188 101.398438 31.675781 100.960938 31.023438 C 100.523438 30.367188 100.027344 29.761719 99.46875 29.203125 C 98.914062 28.648438 98.308594 28.152344 97.652344 27.714844 C 96.996094 27.277344 96.304688 26.90625 95.578125 26.605469 C 94.851562 26.304688 94.101562 26.074219 93.328125 25.921875 C 92.558594 25.769531 91.777344 25.691406 90.988281 25.691406 L 55.007812 25.691406 Z M 31.019531 37.683594 C 31.019531 37.421875 31.046875 37.164062 31.097656 36.90625 C 31.148438 36.648438 31.226562 36.398438 31.324219 36.15625 C 31.425781 35.914062 31.546875 35.683594 31.695312 35.464844 C 31.839844 35.246094 32.007812 35.042969 32.191406 34.859375 C 32.378906 34.671875 32.578125 34.507812 32.796875 34.363281 C 33.015625 34.214844 33.246094 34.09375 33.488281 33.992188 C 33.730469 33.890625 33.980469 33.816406 34.238281 33.765625 C 34.496094 33.714844 34.757812 33.6875 35.019531 33.6875 L 90.988281 33.6875 C 91.25 33.6875 91.511719 33.714844 91.769531 33.765625 C 92.027344 33.816406 92.277344 33.890625 92.519531 33.992188 C 92.761719 34.09375 92.992188 34.214844 93.210938 34.363281 C 93.429688 34.507812 93.628906 34.671875 93.816406 34.859375 C 94 35.042969 94.167969 35.246094 94.3125 35.464844 C 94.460938 35.683594 94.582031 35.914062 94.683594 36.15625 C 94.785156 36.398438 94.859375 36.648438 94.910156 36.90625 C 94.960938 37.164062 94.988281 37.421875 94.988281 37.683594 L 94.988281 117.644531 C 94.988281 117.90625 94.960938 118.164062 94.910156 118.421875 C 94.859375 118.679688 94.785156 118.929688 94.683594 119.171875 C 94.582031 119.414062 94.460938 119.644531 94.3125 119.863281 C 94.167969 120.082031 94 120.285156 93.816406 120.46875 C 93.628906 120.65625 93.429688 120.820312 93.210938 120.96875 C 92.992188 121.113281 92.761719 121.238281 92.519531 121.335938 C 92.277344 121.4375 92.027344 121.511719 91.769531 121.566406 C 91.511719 121.617188 91.25 121.640625 90.988281 121.640625 L 35.019531 121.640625 C 34.757812 121.640625 34.496094 121.617188 34.238281 121.566406 C 33.980469 121.511719 33.730469 121.4375 33.488281 121.335938 C 33.246094 121.238281 33.015625 121.113281 32.796875 120.96875 C 32.578125 120.820312 32.378906 120.65625 32.191406 120.46875 C 32.007812 120.285156 31.839844 120.082031 31.695312 119.863281 C 31.546875 119.644531 31.425781 119.414062 31.324219 119.171875 C 31.226562 118.929688 31.148438 118.679688 31.097656 118.421875 C 31.046875 118.164062 31.019531 117.90625 31.019531 117.644531 Z M 31.019531 37.683594 " fill-opacity="1" fill-rule="nonzero"/></g></svg>