<svg xmlns="http://www.w3.org/2000/svg" xmlns:xlink="http://www.w3.org/1999/xlink" width="200" zoomAndPan="magnify" viewBox="0 0 150 149.999998" height="200" preserveAspectRatio="xMidYMid meet" version="1.0"><defs><clipPath id="96750f234a"><path d="M 43 43 L 107 43 L 107 107.304688 L 43 107.304688 Z M 43 43 " clip-rule="nonzero"/></clipPath></defs><g clip-path="url(#96750f234a)"><path fill="#000000" d="M 82.9375 75.34375 L 104.8125 53.308594 C 107.0625 51.042969 107.0625 47.386719 104.8125 45.121094 C 102.5625 42.855469 98.9375 42.855469 96.6875 45.121094 L 74.8125 67.160156 L 52.9375 45.121094 C 50.6875 42.855469 47.0625 42.855469 44.8125 45.121094 C 42.5625 47.386719 42.5625 51.042969 44.8125 53.308594 L 66.6875 75.34375 L 44.8125 97.382812 C 42.5625 99.648438 42.5625 103.304688 44.8125 105.570312 C 45.9375 106.703125 47.40625 107.257812 48.875 107.257812 C 50.34375 107.257812 51.8125 106.703125 52.9375 105.570312 L 74.8125 83.53125 L 96.6875 105.570312 C 97.8125 106.703125 99.28125 107.257812 100.75 107.257812 C 102.21875 107.257812 103.6875 106.703125 104.8125 105.570312 C 107.0625 103.304688 107.0625 99.648438 104.8125 97.382812 Z M 82.9375 75.34375 " fill-opacity="1" fill-rule="nonzero"/></g></svg>