<svg xmlns="http://www.w3.org/2000/svg" xmlns:xlink="http://www.w3.org/1999/xlink" width="200" zoomAndPan="magnify" viewBox="0 0 150 149.999998" height="200" preserveAspectRatio="xMidYMid meet" version="1.0"><defs><clipPath id="f96582f3c8"><path d="M 43 43 L 107 43 L 107 107.304688 L 43 107.304688 Z M 43 43 " clip-rule="nonzero"/></clipPath></defs><g clip-path="url(#f96582f3c8)"><path fill="#ffffff" d="M 83.167969 75.285156 L 105.164062 53.289062 C 107.425781 51.027344 107.425781 47.378906 105.164062 45.117188 C 102.902344 42.855469 99.253906 42.855469 96.992188 45.117188 L 74.996094 67.113281 L 52.996094 45.117188 C 50.734375 42.855469 47.085938 42.855469 44.824219 45.117188 C 42.5625 47.378906 42.5625 51.027344 44.824219 53.289062 L 66.824219 75.285156 L 44.824219 97.285156 C 42.5625 99.546875 42.5625 103.195312 44.824219 105.457031 C 45.957031 106.585938 47.433594 107.140625 48.910156 107.140625 C 50.386719 107.140625 51.867188 106.585938 52.996094 105.457031 L 74.996094 83.457031 L 96.992188 105.457031 C 98.125 106.585938 99.601562 107.140625 101.078125 107.140625 C 102.554688 107.140625 104.035156 106.585938 105.164062 105.457031 C 107.425781 103.195312 107.425781 99.546875 105.164062 97.285156 Z M 83.167969 75.285156 " fill-opacity="1" fill-rule="nonzero"/></g></svg>