<svg xmlns="http://www.w3.org/2000/svg" xmlns:xlink="http://www.w3.org/1999/xlink" width="200" zoomAndPan="magnify" viewBox="0 0 150 149.999998" height="200" preserveAspectRatio="xMidYMid meet" version="1.0"><defs><clipPath id="f701adbfd2"><path d="M 15 9.261719 L 135 9.261719 L 135 140.511719 L 15 140.511719 Z M 15 9.261719 " clip-rule="nonzero"/></clipPath></defs><g clip-path="url(#f701adbfd2)"><path fill="#000000" d="M 129.285156 32.101562 L 103.570312 32.101562 L 103.570312 28.082031 C 103.570312 27.464844 103.539062 26.851562 103.476562 26.238281 C 103.417969 25.628906 103.324219 25.019531 103.203125 24.417969 C 103.082031 23.8125 102.933594 23.21875 102.753906 22.628906 C 102.574219 22.039062 102.367188 21.460938 102.128906 20.894531 C 101.894531 20.324219 101.628906 19.769531 101.339844 19.226562 C 101.050781 18.683594 100.730469 18.15625 100.390625 17.644531 C 100.046875 17.132812 99.679688 16.640625 99.289062 16.164062 C 98.898438 15.6875 98.484375 15.234375 98.046875 14.796875 C 97.613281 14.363281 97.15625 13.949219 96.679688 13.558594 C 96.203125 13.167969 95.710938 12.804688 95.195312 12.460938 C 94.683594 12.121094 94.15625 11.804688 93.613281 11.511719 C 93.070312 11.222656 92.511719 10.960938 91.945312 10.722656 C 91.375 10.488281 90.796875 10.28125 90.207031 10.101562 C 89.617188 9.921875 89.019531 9.773438 88.414062 9.652344 C 87.808594 9.53125 87.199219 9.4375 86.585938 9.378906 C 85.972656 9.316406 85.359375 9.285156 84.742188 9.285156 L 65.257812 9.285156 C 64.640625 9.285156 64.027344 9.316406 63.414062 9.378906 C 62.800781 9.4375 62.191406 9.53125 61.585938 9.652344 C 60.980469 9.773438 60.382812 9.921875 59.792969 10.101562 C 59.203125 10.28125 58.625 10.488281 58.054688 10.722656 C 57.488281 10.960938 56.929688 11.222656 56.386719 11.511719 C 55.84375 11.804688 55.316406 12.121094 54.804688 12.460938 C 54.289062 12.804688 53.796875 13.167969 53.320312 13.558594 C 52.84375 13.949219 52.386719 14.363281 51.953125 14.796875 C 51.515625 15.234375 51.101562 15.6875 50.710938 16.164062 C 50.320312 16.640625 49.953125 17.132812 49.609375 17.644531 C 49.269531 18.15625 48.949219 18.683594 48.660156 19.226562 C 48.371094 19.769531 48.105469 20.324219 47.871094 20.894531 C 47.632812 21.460938 47.425781 22.039062 47.246094 22.628906 C 47.066406 23.21875 46.914062 23.8125 46.796875 24.417969 C 46.675781 25.019531 46.582031 25.628906 46.523438 26.238281 C 46.460938 26.851562 46.429688 27.464844 46.429688 28.082031 L 46.429688 32.101562 L 20.714844 32.101562 C 20.339844 32.101562 19.96875 32.140625 19.597656 32.214844 C 19.230469 32.285156 18.875 32.394531 18.527344 32.539062 C 18.179688 32.679688 17.851562 32.855469 17.539062 33.066406 C 17.226562 33.273438 16.9375 33.507812 16.671875 33.773438 C 16.410156 34.039062 16.171875 34.328125 15.964844 34.636719 C 15.753906 34.949219 15.578125 35.277344 15.433594 35.625 C 15.292969 35.972656 15.183594 36.328125 15.109375 36.695312 C 15.035156 37.0625 15 37.433594 15 37.808594 C 15 38.183594 15.035156 38.554688 15.109375 38.921875 C 15.183594 39.289062 15.292969 39.644531 15.433594 39.992188 C 15.578125 40.335938 15.753906 40.664062 15.964844 40.976562 C 16.171875 41.289062 16.410156 41.578125 16.671875 41.839844 C 16.9375 42.105469 17.226562 42.34375 17.539062 42.550781 C 17.851562 42.757812 18.179688 42.933594 18.527344 43.078125 C 18.875 43.222656 19.230469 43.328125 19.597656 43.402344 C 19.96875 43.476562 20.339844 43.511719 20.714844 43.511719 L 29.285156 43.511719 L 29.285156 121.609375 C 29.285156 122.226562 29.316406 122.84375 29.378906 123.460938 C 29.441406 124.074219 29.53125 124.6875 29.65625 125.292969 C 29.777344 125.902344 29.925781 126.5 30.109375 127.09375 C 30.289062 127.683594 30.496094 128.265625 30.734375 128.835938 C 30.972656 129.40625 31.238281 129.964844 31.53125 130.511719 C 31.824219 131.058594 32.144531 131.585938 32.488281 132.101562 C 32.832031 132.617188 33.203125 133.113281 33.597656 133.589844 C 33.988281 134.066406 34.40625 134.523438 34.84375 134.960938 C 35.28125 135.398438 35.742188 135.8125 36.222656 136.207031 C 36.699219 136.597656 37.199219 136.964844 37.714844 137.308594 C 38.230469 137.652344 38.761719 137.972656 39.308594 138.261719 C 39.855469 138.554688 40.414062 138.816406 40.984375 139.054688 C 41.558594 139.289062 42.140625 139.5 42.734375 139.679688 C 43.328125 139.859375 43.929688 140.007812 44.535156 140.128906 C 45.144531 140.25 45.757812 140.339844 46.375 140.398438 C 46.992188 140.460938 47.609375 140.492188 48.230469 140.492188 L 101.800781 140.492188 C 102.417969 140.488281 103.035156 140.457031 103.652344 140.398438 C 104.269531 140.335938 104.878906 140.246094 105.488281 140.125 C 106.09375 140.003906 106.695312 139.851562 107.289062 139.671875 C 107.878906 139.492188 108.460938 139.28125 109.035156 139.046875 C 109.605469 138.808594 110.164062 138.542969 110.710938 138.253906 C 111.257812 137.960938 111.785156 137.644531 112.300781 137.300781 C 112.816406 136.957031 113.3125 136.589844 113.792969 136.195312 C 114.269531 135.804688 114.726562 135.390625 115.167969 134.953125 C 115.605469 134.515625 116.019531 134.058594 116.414062 133.578125 C 116.804688 133.101562 117.171875 132.605469 117.519531 132.09375 C 117.863281 131.578125 118.179688 131.050781 118.472656 130.503906 C 118.765625 129.960938 119.03125 129.402344 119.265625 128.832031 C 119.503906 128.257812 119.714844 127.679688 119.894531 127.085938 C 120.074219 126.496094 120.226562 125.898438 120.347656 125.289062 C 120.46875 124.683594 120.558594 124.074219 120.621094 123.457031 C 120.683594 122.84375 120.714844 122.226562 120.714844 121.609375 L 120.714844 43.511719 L 129.285156 43.511719 C 129.660156 43.511719 130.03125 43.476562 130.402344 43.402344 C 130.769531 43.328125 131.125 43.222656 131.472656 43.078125 C 131.820312 42.933594 132.148438 42.757812 132.460938 42.550781 C 132.773438 42.34375 133.0625 42.105469 133.328125 41.839844 C 133.589844 41.578125 133.828125 41.289062 134.035156 40.976562 C 134.246094 40.664062 134.421875 40.335938 134.566406 39.992188 C 134.707031 39.644531 134.816406 39.289062 134.890625 38.921875 C 134.964844 38.554688 135 38.183594 135 37.808594 C 135 37.433594 134.964844 37.0625 134.890625 36.695312 C 134.816406 36.328125 134.707031 35.972656 134.566406 35.625 C 134.421875 35.277344 134.246094 34.949219 134.035156 34.636719 C 133.828125 34.328125 133.589844 34.039062 133.328125 33.773438 C 133.0625 33.507812 132.773438 33.273438 132.460938 33.066406 C 132.148438 32.855469 131.820312 32.679688 131.472656 32.539062 C 131.125 32.394531 130.769531 32.285156 130.402344 32.214844 C 130.03125 32.140625 129.660156 32.101562 129.285156 32.101562 Z M 57.855469 28.082031 C 57.855469 27.597656 57.90625 27.117188 58 26.640625 C 58.09375 26.164062 58.234375 25.703125 58.421875 25.253906 C 58.605469 24.804688 58.835938 24.378906 59.105469 23.976562 C 59.375 23.574219 59.679688 23.199219 60.023438 22.859375 C 60.367188 22.515625 60.742188 22.207031 61.144531 21.9375 C 61.550781 21.667969 61.976562 21.441406 62.425781 21.257812 C 62.875 21.070312 63.335938 20.929688 63.8125 20.835938 C 64.289062 20.742188 64.769531 20.695312 65.257812 20.695312 L 84.742188 20.695312 C 85.230469 20.695312 85.710938 20.742188 86.1875 20.835938 C 86.664062 20.929688 87.125 21.070312 87.574219 21.257812 C 88.023438 21.441406 88.449219 21.667969 88.855469 21.9375 C 89.257812 22.207031 89.632812 22.515625 89.976562 22.859375 C 90.320312 23.199219 90.625 23.574219 90.894531 23.976562 C 91.164062 24.378906 91.394531 24.804688 91.578125 25.253906 C 91.765625 25.703125 91.90625 26.164062 92 26.640625 C 92.09375 27.117188 92.144531 27.597656 92.144531 28.082031 L 92.144531 32.101562 L 57.855469 32.101562 Z M 109.285156 121.609375 C 109.285156 122.097656 109.234375 122.585938 109.136719 123.066406 C 109.039062 123.546875 108.898438 124.011719 108.707031 124.464844 C 108.519531 124.917969 108.289062 125.347656 108.015625 125.753906 C 107.742188 126.160156 107.433594 126.539062 107.085938 126.882812 C 106.738281 127.230469 106.359375 127.539062 105.953125 127.8125 C 105.542969 128.085938 105.113281 128.316406 104.660156 128.503906 C 104.207031 128.695312 103.738281 128.835938 103.257812 128.933594 C 102.777344 129.03125 102.289062 129.078125 101.800781 129.082031 L 48.230469 129.082031 C 47.738281 129.082031 47.25 129.035156 46.765625 128.9375 C 46.285156 128.84375 45.816406 128.699219 45.359375 128.511719 C 44.90625 128.324219 44.472656 128.097656 44.0625 127.824219 C 43.652344 127.550781 43.273438 127.242188 42.925781 126.894531 C 42.578125 126.546875 42.265625 126.171875 41.992188 125.761719 C 41.714844 125.355469 41.484375 124.925781 41.292969 124.46875 C 41.105469 124.015625 40.960938 123.550781 40.863281 123.066406 C 40.765625 122.585938 40.714844 122.101562 40.714844 121.609375 L 40.714844 43.511719 L 109.285156 43.511719 Z M 109.285156 121.609375 " fill-opacity="1" fill-rule="nonzero"/></g><path fill="#000000" d="M 60.714844 56.320312 C 60.339844 56.320312 59.96875 56.355469 59.597656 56.429688 C 59.230469 56.503906 58.875 56.609375 58.527344 56.753906 C 58.179688 56.898438 57.851562 57.074219 57.539062 57.28125 C 57.226562 57.488281 56.9375 57.726562 56.671875 57.992188 C 56.410156 58.253906 56.171875 58.542969 55.964844 58.855469 C 55.753906 59.167969 55.578125 59.496094 55.433594 59.839844 C 55.292969 60.1875 55.183594 60.542969 55.109375 60.910156 C 55.035156 61.277344 55 61.648438 55 62.023438 L 55 113.367188 C 55 113.738281 55.035156 114.109375 55.109375 114.476562 C 55.183594 114.847656 55.292969 115.203125 55.433594 115.546875 C 55.578125 115.894531 55.753906 116.222656 55.964844 116.535156 C 56.171875 116.847656 56.410156 117.132812 56.671875 117.398438 C 56.9375 117.664062 57.226562 117.902344 57.539062 118.109375 C 57.851562 118.316406 58.179688 118.492188 58.527344 118.636719 C 58.875 118.777344 59.230469 118.886719 59.597656 118.960938 C 59.96875 119.035156 60.339844 119.070312 60.714844 119.070312 C 61.089844 119.070312 61.460938 119.035156 61.828125 118.960938 C 62.195312 118.886719 62.554688 118.777344 62.902344 118.636719 C 63.246094 118.492188 63.578125 118.316406 63.890625 118.109375 C 64.199219 117.902344 64.488281 117.664062 64.753906 117.398438 C 65.019531 117.132812 65.257812 116.847656 65.464844 116.535156 C 65.675781 116.222656 65.851562 115.894531 65.992188 115.546875 C 66.136719 115.203125 66.246094 114.847656 66.320312 114.476562 C 66.390625 114.109375 66.429688 113.738281 66.429688 113.367188 L 66.429688 62.023438 C 66.429688 61.648438 66.390625 61.277344 66.320312 60.910156 C 66.246094 60.542969 66.136719 60.1875 65.992188 59.839844 C 65.851562 59.496094 65.675781 59.167969 65.464844 58.855469 C 65.257812 58.542969 65.019531 58.253906 64.753906 57.992188 C 64.488281 57.726562 64.199219 57.488281 63.890625 57.28125 C 63.578125 57.074219 63.246094 56.898438 62.902344 56.753906 C 62.554688 56.609375 62.195312 56.503906 61.828125 56.429688 C 61.460938 56.355469 61.089844 56.320312 60.714844 56.320312 Z M 60.714844 56.320312 " fill-opacity="1" fill-rule="nonzero"/><path fill="#000000" d="M 89.285156 56.320312 C 88.910156 56.320312 88.539062 56.355469 88.171875 56.429688 C 87.804688 56.503906 87.445312 56.609375 87.097656 56.753906 C 86.753906 56.898438 86.421875 57.074219 86.109375 57.28125 C 85.800781 57.488281 85.511719 57.726562 85.246094 57.992188 C 84.980469 58.253906 84.742188 58.542969 84.535156 58.855469 C 84.324219 59.167969 84.148438 59.496094 84.007812 59.839844 C 83.863281 60.1875 83.753906 60.542969 83.679688 60.910156 C 83.609375 61.277344 83.570312 61.648438 83.570312 62.023438 L 83.570312 113.367188 C 83.570312 113.738281 83.609375 114.109375 83.679688 114.476562 C 83.753906 114.847656 83.863281 115.203125 84.007812 115.546875 C 84.148438 115.894531 84.324219 116.222656 84.535156 116.535156 C 84.742188 116.847656 84.980469 117.132812 85.246094 117.398438 C 85.511719 117.664062 85.800781 117.902344 86.109375 118.109375 C 86.421875 118.316406 86.753906 118.492188 87.097656 118.636719 C 87.445312 118.777344 87.804688 118.886719 88.171875 118.960938 C 88.539062 119.035156 88.910156 119.070312 89.285156 119.070312 C 89.660156 119.070312 90.03125 119.035156 90.402344 118.960938 C 90.769531 118.886719 91.125 118.777344 91.472656 118.636719 C 91.820312 118.492188 92.148438 118.316406 92.460938 118.109375 C 92.773438 117.902344 93.0625 117.664062 93.328125 117.398438 C 93.589844 117.132812 93.828125 116.847656 94.035156 116.535156 C 94.246094 116.222656 94.421875 115.894531 94.566406 115.546875 C 94.707031 115.203125 94.816406 114.847656 94.890625 114.476562 C 94.964844 114.109375 95 113.738281 95 113.367188 L 95 62.023438 C 95 61.648438 94.964844 61.277344 94.890625 60.910156 C 94.816406 60.542969 94.707031 60.1875 94.566406 59.839844 C 94.421875 59.496094 94.246094 59.167969 94.035156 58.855469 C 93.828125 58.542969 93.589844 58.253906 93.328125 57.992188 C 93.0625 57.726562 92.773438 57.488281 92.460938 57.28125 C 92.148438 57.074219 91.820312 56.898438 91.472656 56.753906 C 91.125 56.609375 90.769531 56.503906 90.402344 56.429688 C 90.03125 56.355469 89.660156 56.320312 89.285156 56.320312 Z M 89.285156 56.320312 " fill-opacity="1" fill-rule="nonzero"/></svg>