<svg xmlns="http://www.w3.org/2000/svg" xmlns:xlink="http://www.w3.org/1999/xlink" width="200" zoomAndPan="magnify" viewBox="0 0 150 149.999998" height="200" preserveAspectRatio="xMidYMid meet" version="1.0"><defs><clipPath id="8bc76cdc7b"><path d="M 20.238281 15 L 129.738281 15 L 129.738281 135 L 20.238281 135 Z M 20.238281 15 " clip-rule="nonzero"/></clipPath></defs><g clip-path="url(#8bc76cdc7b)"><path fill="#ffffff" d="M 124.542969 35.882812 L 101.074219 35.882812 L 101.074219 32.207031 C 101.074219 31.644531 101.046875 31.082031 100.988281 30.523438 C 100.933594 29.964844 100.851562 29.410156 100.742188 28.855469 C 100.628906 28.304688 100.492188 27.761719 100.328125 27.222656 C 100.164062 26.683594 99.976562 26.15625 99.761719 25.636719 C 99.542969 25.117188 99.304688 24.609375 99.039062 24.113281 C 98.773438 23.617188 98.484375 23.132812 98.171875 22.667969 C 97.859375 22.199219 97.523438 21.746094 97.167969 21.3125 C 96.808594 20.878906 96.433594 20.460938 96.035156 20.0625 C 95.636719 19.664062 95.21875 19.289062 94.785156 18.929688 C 94.351562 18.574219 93.898438 18.238281 93.429688 17.925781 C 92.964844 17.613281 92.480469 17.324219 91.984375 17.058594 C 91.488281 16.792969 90.980469 16.554688 90.460938 16.339844 C 89.941406 16.121094 89.414062 15.933594 88.875 15.769531 C 88.335938 15.605469 87.792969 15.46875 87.242188 15.355469 C 86.691406 15.246094 86.132812 15.164062 85.574219 15.109375 C 85.015625 15.050781 84.453125 15.023438 83.890625 15.023438 L 66.105469 15.023438 C 65.542969 15.023438 64.980469 15.050781 64.421875 15.109375 C 63.863281 15.164062 63.308594 15.246094 62.753906 15.355469 C 62.203125 15.46875 61.660156 15.605469 61.121094 15.769531 C 60.582031 15.933594 60.054688 16.121094 59.535156 16.339844 C 59.015625 16.554688 58.507812 16.792969 58.011719 17.058594 C 57.515625 17.324219 57.03125 17.613281 56.566406 17.925781 C 56.097656 18.238281 55.644531 18.574219 55.210938 18.929688 C 54.777344 19.289062 54.359375 19.664062 53.960938 20.0625 C 53.5625 20.460938 53.1875 20.878906 52.828125 21.3125 C 52.472656 21.746094 52.136719 22.199219 51.824219 22.667969 C 51.511719 23.132812 51.222656 23.617188 50.957031 24.113281 C 50.691406 24.609375 50.453125 25.117188 50.234375 25.636719 C 50.019531 26.15625 49.832031 26.683594 49.667969 27.222656 C 49.503906 27.761719 49.367188 28.304688 49.253906 28.855469 C 49.144531 29.410156 49.0625 29.964844 49.007812 30.523438 C 48.949219 31.082031 48.921875 31.644531 48.921875 32.207031 L 48.921875 35.882812 L 25.453125 35.882812 C 25.109375 35.882812 24.769531 35.917969 24.433594 35.984375 C 24.097656 36.050781 23.773438 36.152344 23.457031 36.28125 C 23.140625 36.414062 22.839844 36.574219 22.554688 36.761719 C 22.269531 36.953125 22.007812 37.167969 21.765625 37.410156 C 21.523438 37.652344 21.304688 37.917969 21.117188 38.203125 C 20.925781 38.488281 20.765625 38.789062 20.632812 39.105469 C 20.503906 39.421875 20.402344 39.746094 20.335938 40.082031 C 20.269531 40.417969 20.238281 40.757812 20.238281 41.101562 C 20.238281 41.441406 20.269531 41.78125 20.335938 42.117188 C 20.402344 42.453125 20.503906 42.78125 20.632812 43.097656 C 20.765625 43.414062 20.925781 43.710938 21.117188 43.996094 C 21.304688 44.28125 21.523438 44.546875 21.765625 44.789062 C 22.007812 45.03125 22.269531 45.246094 22.554688 45.4375 C 22.839844 45.625 23.140625 45.789062 23.457031 45.917969 C 23.773438 46.050781 24.097656 46.148438 24.433594 46.214844 C 24.769531 46.28125 25.109375 46.316406 25.453125 46.316406 L 33.273438 46.316406 L 33.273438 117.714844 C 33.277344 118.28125 33.304688 118.84375 33.359375 119.40625 C 33.417969 119.96875 33.5 120.527344 33.613281 121.082031 C 33.722656 121.636719 33.859375 122.1875 34.027344 122.726562 C 34.191406 123.269531 34.382812 123.800781 34.597656 124.324219 C 34.816406 124.84375 35.058594 125.355469 35.324219 125.855469 C 35.59375 126.351562 35.882812 126.835938 36.199219 127.308594 C 36.511719 127.777344 36.847656 128.230469 37.207031 128.667969 C 37.566406 129.105469 37.949219 129.523438 38.347656 129.921875 C 38.75 130.320312 39.167969 130.703125 39.605469 131.058594 C 40.042969 131.417969 40.496094 131.753906 40.964844 132.070312 C 41.4375 132.382812 41.921875 132.671875 42.421875 132.941406 C 42.921875 133.207031 43.429688 133.449219 43.953125 133.664062 C 44.476562 133.878906 45.007812 134.070312 45.550781 134.234375 C 46.089844 134.398438 46.640625 134.535156 47.195312 134.644531 C 47.75 134.753906 48.308594 134.839844 48.871094 134.894531 C 49.433594 134.949219 50 134.976562 50.5625 134.976562 L 99.457031 134.976562 C 100.023438 134.976562 100.585938 134.949219 101.148438 134.890625 C 101.710938 134.835938 102.269531 134.753906 102.824219 134.640625 C 103.378906 134.53125 103.925781 134.390625 104.464844 134.226562 C 105.007812 134.0625 105.539062 133.871094 106.058594 133.65625 C 106.582031 133.4375 107.09375 133.199219 107.589844 132.929688 C 108.089844 132.664062 108.574219 132.375 109.042969 132.058594 C 109.511719 131.746094 109.964844 131.410156 110.402344 131.050781 C 110.839844 130.691406 111.257812 130.3125 111.65625 129.914062 C 112.058594 129.511719 112.4375 129.09375 112.792969 128.660156 C 113.152344 128.222656 113.488281 127.769531 113.804688 127.296875 C 114.117188 126.828125 114.410156 126.34375 114.675781 125.847656 C 114.941406 125.347656 115.183594 124.839844 115.398438 124.316406 C 115.617188 123.792969 115.808594 123.261719 115.972656 122.722656 C 116.136719 122.183594 116.273438 121.632812 116.386719 121.082031 C 116.496094 120.527344 116.578125 119.96875 116.636719 119.40625 C 116.691406 118.84375 116.71875 118.277344 116.722656 117.714844 L 116.722656 46.316406 L 124.542969 46.316406 C 124.886719 46.316406 125.226562 46.28125 125.5625 46.214844 C 125.898438 46.148438 126.222656 46.050781 126.539062 45.917969 C 126.855469 45.789062 127.15625 45.625 127.441406 45.4375 C 127.726562 45.246094 127.988281 45.03125 128.230469 44.789062 C 128.472656 44.546875 128.691406 44.28125 128.878906 43.996094 C 129.070312 43.710938 129.230469 43.414062 129.363281 43.097656 C 129.492188 42.78125 129.59375 42.453125 129.660156 42.117188 C 129.726562 41.78125 129.761719 41.441406 129.761719 41.101562 C 129.761719 40.757812 129.726562 40.417969 129.660156 40.082031 C 129.59375 39.746094 129.492188 39.421875 129.363281 39.105469 C 129.230469 38.789062 129.070312 38.488281 128.878906 38.203125 C 128.691406 37.917969 128.472656 37.652344 128.230469 37.410156 C 127.988281 37.167969 127.726562 36.953125 127.441406 36.761719 C 127.15625 36.574219 126.855469 36.414062 126.539062 36.28125 C 126.222656 36.152344 125.898438 36.050781 125.5625 35.984375 C 125.226562 35.917969 124.886719 35.882812 124.542969 35.882812 Z M 59.351562 32.207031 C 59.351562 31.765625 59.394531 31.324219 59.480469 30.890625 C 59.566406 30.453125 59.695312 30.03125 59.867188 29.621094 C 60.035156 29.214844 60.242188 28.824219 60.488281 28.457031 C 60.738281 28.085938 61.015625 27.746094 61.328125 27.433594 C 61.644531 27.117188 61.984375 26.839844 62.355469 26.59375 C 62.722656 26.34375 63.113281 26.136719 63.519531 25.96875 C 63.929688 25.796875 64.351562 25.671875 64.789062 25.582031 C 65.222656 25.496094 65.664062 25.453125 66.105469 25.453125 L 83.890625 25.453125 C 84.332031 25.453125 84.773438 25.496094 85.207031 25.582031 C 85.644531 25.671875 86.066406 25.796875 86.476562 25.96875 C 86.882812 26.136719 87.273438 26.34375 87.644531 26.59375 C 88.011719 26.839844 88.351562 27.117188 88.667969 27.433594 C 88.980469 27.746094 89.257812 28.085938 89.507812 28.457031 C 89.753906 28.824219 89.960938 29.214844 90.128906 29.621094 C 90.300781 30.03125 90.429688 30.453125 90.515625 30.890625 C 90.601562 31.324219 90.644531 31.765625 90.644531 32.207031 L 90.644531 35.882812 L 59.351562 35.882812 Z M 106.289062 117.714844 C 106.289062 118.164062 106.242188 118.605469 106.15625 119.046875 C 106.066406 119.484375 105.9375 119.910156 105.761719 120.324219 C 105.589844 120.738281 105.378906 121.132812 105.132812 121.503906 C 104.882812 121.875 104.597656 122.222656 104.28125 122.539062 C 103.964844 122.855469 103.621094 123.136719 103.246094 123.386719 C 102.875 123.636719 102.484375 123.847656 102.070312 124.019531 C 101.65625 124.191406 101.230469 124.320312 100.789062 124.410156 C 100.351562 124.5 99.90625 124.542969 99.457031 124.546875 L 50.5625 124.546875 C 50.113281 124.546875 49.667969 124.503906 49.230469 124.414062 C 48.789062 124.328125 48.359375 124.199219 47.945312 124.027344 C 47.53125 123.855469 47.136719 123.644531 46.761719 123.394531 C 46.386719 123.148438 46.042969 122.863281 45.722656 122.546875 C 45.40625 122.230469 45.121094 121.886719 44.871094 121.511719 C 44.621094 121.140625 44.410156 120.746094 44.234375 120.332031 C 44.0625 119.917969 43.929688 119.488281 43.84375 119.046875 C 43.753906 118.609375 43.707031 118.164062 43.707031 117.714844 L 43.707031 46.316406 L 106.289062 46.316406 Z M 106.289062 117.714844 " fill-opacity="1" fill-rule="nonzero"/></g><path fill="#ffffff" d="M 61.960938 58.023438 C 61.617188 58.023438 61.277344 58.058594 60.941406 58.125 C 60.605469 58.191406 60.28125 58.289062 59.964844 58.421875 C 59.648438 58.550781 59.347656 58.710938 59.0625 58.902344 C 58.777344 59.09375 58.515625 59.308594 58.273438 59.550781 C 58.03125 59.792969 57.8125 60.058594 57.625 60.339844 C 57.433594 60.625 57.273438 60.925781 57.140625 61.242188 C 57.011719 61.558594 56.910156 61.886719 56.84375 62.222656 C 56.777344 62.558594 56.746094 62.898438 56.746094 63.238281 L 56.746094 110.179688 C 56.746094 110.519531 56.777344 110.859375 56.84375 111.195312 C 56.910156 111.53125 57.011719 111.855469 57.140625 112.171875 C 57.273438 112.488281 57.433594 112.789062 57.625 113.074219 C 57.8125 113.359375 58.03125 113.625 58.273438 113.867188 C 58.515625 114.109375 58.777344 114.324219 59.0625 114.515625 C 59.347656 114.703125 59.648438 114.863281 59.964844 114.996094 C 60.28125 115.128906 60.605469 115.226562 60.941406 115.292969 C 61.277344 115.359375 61.617188 115.394531 61.960938 115.394531 C 62.300781 115.394531 62.640625 115.359375 62.976562 115.292969 C 63.3125 115.226562 63.640625 115.128906 63.957031 114.996094 C 64.273438 114.863281 64.574219 114.703125 64.855469 114.515625 C 65.140625 114.324219 65.40625 114.109375 65.648438 113.867188 C 65.890625 113.625 66.105469 113.359375 66.296875 113.074219 C 66.484375 112.789062 66.648438 112.488281 66.777344 112.171875 C 66.910156 111.855469 67.007812 111.53125 67.074219 111.195312 C 67.140625 110.859375 67.175781 110.519531 67.175781 110.179688 L 67.175781 63.238281 C 67.175781 62.898438 67.140625 62.558594 67.074219 62.222656 C 67.007812 61.886719 66.910156 61.558594 66.777344 61.242188 C 66.648438 60.925781 66.484375 60.625 66.296875 60.339844 C 66.105469 60.058594 65.890625 59.792969 65.648438 59.550781 C 65.40625 59.308594 65.140625 59.09375 64.855469 58.902344 C 64.574219 58.710938 64.273438 58.550781 63.957031 58.421875 C 63.640625 58.289062 63.3125 58.191406 62.976562 58.125 C 62.640625 58.058594 62.300781 58.023438 61.960938 58.023438 Z M 61.960938 58.023438 " fill-opacity="1" fill-rule="nonzero"/><path fill="#ffffff" d="M 88.035156 58.023438 C 87.695312 58.023438 87.355469 58.058594 87.019531 58.125 C 86.683594 58.191406 86.355469 58.289062 86.039062 58.421875 C 85.722656 58.550781 85.421875 58.710938 85.140625 58.902344 C 84.855469 59.09375 84.589844 59.308594 84.347656 59.550781 C 84.105469 59.792969 83.890625 60.058594 83.699219 60.339844 C 83.511719 60.625 83.347656 60.925781 83.21875 61.242188 C 83.085938 61.558594 82.988281 61.886719 82.921875 62.222656 C 82.855469 62.558594 82.820312 62.898438 82.820312 63.238281 L 82.820312 110.179688 C 82.820312 110.519531 82.855469 110.859375 82.921875 111.195312 C 82.988281 111.53125 83.085938 111.855469 83.21875 112.171875 C 83.347656 112.488281 83.511719 112.789062 83.699219 113.074219 C 83.890625 113.359375 84.105469 113.625 84.347656 113.867188 C 84.589844 114.109375 84.855469 114.324219 85.140625 114.515625 C 85.421875 114.703125 85.722656 114.863281 86.039062 114.996094 C 86.355469 115.128906 86.683594 115.226562 87.019531 115.292969 C 87.355469 115.359375 87.695312 115.394531 88.035156 115.394531 C 88.378906 115.394531 88.71875 115.359375 89.054688 115.292969 C 89.390625 115.226562 89.714844 115.128906 90.03125 114.996094 C 90.347656 114.863281 90.648438 114.703125 90.933594 114.515625 C 91.21875 114.324219 91.480469 114.109375 91.722656 113.867188 C 91.964844 113.625 92.183594 113.359375 92.371094 113.074219 C 92.5625 112.789062 92.722656 112.488281 92.855469 112.171875 C 92.984375 111.855469 93.085938 111.53125 93.152344 111.195312 C 93.21875 110.859375 93.253906 110.519531 93.253906 110.179688 L 93.253906 63.238281 C 93.253906 62.898438 93.21875 62.558594 93.152344 62.222656 C 93.085938 61.886719 92.984375 61.558594 92.855469 61.242188 C 92.722656 60.925781 92.5625 60.625 92.371094 60.339844 C 92.183594 60.058594 91.964844 59.792969 91.722656 59.550781 C 91.480469 59.308594 91.21875 59.09375 90.933594 58.902344 C 90.648438 58.710938 90.347656 58.550781 90.03125 58.421875 C 89.714844 58.289062 89.390625 58.191406 89.054688 58.125 C 88.71875 58.058594 88.378906 58.023438 88.035156 58.023438 Z M 88.035156 58.023438 " fill-opacity="1" fill-rule="nonzero"/></svg>