<svg xmlns="http://www.w3.org/2000/svg" xmlns:xlink="http://www.w3.org/1999/xlink" width="200" zoomAndPan="magnify" viewBox="0 0 150 149.999998" height="200" preserveAspectRatio="xMidYMid meet" version="1.0"><defs><clipPath id="bfac5aacc4"><path d="M 20.238281 15 L 129.738281 15 L 129.738281 135 L 20.238281 135 Z M 20.238281 15 " clip-rule="nonzero"/></clipPath></defs><g clip-path="url(#bfac5aacc4)"><path fill="#000000" d="M 124.523438 35.882812 L 101.058594 35.882812 L 101.058594 32.207031 C 101.058594 31.644531 101.027344 31.082031 100.972656 30.523438 C 100.917969 29.964844 100.832031 29.410156 100.722656 28.855469 C 100.613281 28.304688 100.476562 27.761719 100.3125 27.222656 C 100.148438 26.683594 99.957031 26.15625 99.742188 25.636719 C 99.527344 25.117188 99.285156 24.609375 99.019531 24.113281 C 98.757812 23.617188 98.46875 23.132812 98.152344 22.667969 C 97.839844 22.199219 97.507812 21.746094 97.148438 21.3125 C 96.792969 20.878906 96.414062 20.460938 96.019531 20.0625 C 95.621094 19.664062 95.203125 19.289062 94.769531 18.929688 C 94.335938 18.574219 93.882812 18.238281 93.414062 17.925781 C 92.949219 17.613281 92.464844 17.324219 91.96875 17.058594 C 91.476562 16.792969 90.96875 16.554688 90.449219 16.339844 C 89.929688 16.121094 89.398438 15.933594 88.859375 15.769531 C 88.324219 15.605469 87.777344 15.46875 87.226562 15.355469 C 86.675781 15.246094 86.121094 15.164062 85.558594 15.109375 C 85 15.050781 84.4375 15.023438 83.875 15.023438 L 66.097656 15.023438 C 65.535156 15.023438 64.972656 15.050781 64.414062 15.109375 C 63.851562 15.164062 63.296875 15.246094 62.746094 15.355469 C 62.195312 15.46875 61.648438 15.605469 61.113281 15.769531 C 60.574219 15.933594 60.042969 16.121094 59.523438 16.339844 C 59.003906 16.554688 58.496094 16.792969 58.003906 17.058594 C 57.507812 17.324219 57.023438 17.613281 56.558594 17.925781 C 56.089844 18.238281 55.636719 18.574219 55.203125 18.929688 C 54.769531 19.289062 54.351562 19.664062 53.953125 20.0625 C 53.558594 20.460938 53.179688 20.878906 52.824219 21.3125 C 52.464844 21.746094 52.132812 22.199219 51.820312 22.667969 C 51.503906 23.132812 51.214844 23.617188 50.953125 24.113281 C 50.6875 24.609375 50.445312 25.117188 50.230469 25.636719 C 50.015625 26.15625 49.824219 26.683594 49.660156 27.222656 C 49.496094 27.761719 49.359375 28.304688 49.25 28.855469 C 49.140625 29.410156 49.054688 29.964844 49 30.523438 C 48.945312 31.082031 48.914062 31.644531 48.914062 32.207031 L 48.914062 35.882812 L 25.449219 35.882812 C 25.109375 35.882812 24.769531 35.917969 24.433594 35.984375 C 24.097656 36.050781 23.773438 36.152344 23.457031 36.28125 C 23.140625 36.414062 22.839844 36.574219 22.554688 36.761719 C 22.269531 36.953125 22.003906 37.167969 21.761719 37.410156 C 21.523438 37.652344 21.304688 37.917969 21.113281 38.203125 C 20.925781 38.488281 20.765625 38.789062 20.632812 39.105469 C 20.503906 39.421875 20.402344 39.746094 20.335938 40.082031 C 20.269531 40.417969 20.238281 40.757812 20.238281 41.101562 C 20.238281 41.441406 20.269531 41.78125 20.335938 42.117188 C 20.402344 42.453125 20.503906 42.78125 20.632812 43.097656 C 20.765625 43.414062 20.925781 43.710938 21.113281 43.996094 C 21.304688 44.28125 21.523438 44.546875 21.761719 44.789062 C 22.003906 45.03125 22.269531 45.246094 22.554688 45.4375 C 22.839844 45.625 23.140625 45.789062 23.457031 45.917969 C 23.773438 46.050781 24.097656 46.148438 24.433594 46.214844 C 24.769531 46.28125 25.109375 46.316406 25.449219 46.316406 L 33.273438 46.316406 L 33.273438 117.714844 C 33.273438 118.28125 33.300781 118.84375 33.359375 119.40625 C 33.414062 119.96875 33.496094 120.527344 33.609375 121.082031 C 33.71875 121.636719 33.859375 122.1875 34.023438 122.726562 C 34.1875 123.269531 34.378906 123.800781 34.59375 124.324219 C 34.8125 124.84375 35.054688 125.355469 35.320312 125.855469 C 35.589844 126.351562 35.878906 126.835938 36.195312 127.308594 C 36.507812 127.777344 36.847656 128.230469 37.203125 128.667969 C 37.5625 129.105469 37.945312 129.523438 38.34375 129.921875 C 38.746094 130.320312 39.164062 130.703125 39.601562 131.058594 C 40.039062 131.417969 40.492188 131.753906 40.960938 132.070312 C 41.433594 132.382812 41.917969 132.671875 42.417969 132.941406 C 42.914062 133.207031 43.425781 133.449219 43.949219 133.664062 C 44.472656 133.878906 45.003906 134.070312 45.542969 134.234375 C 46.085938 134.398438 46.632812 134.535156 47.1875 134.644531 C 47.742188 134.753906 48.300781 134.839844 48.863281 134.894531 C 49.425781 134.949219 49.992188 134.976562 50.558594 134.976562 L 99.441406 134.976562 C 100.007812 134.976562 100.570312 134.949219 101.132812 134.890625 C 101.695312 134.835938 102.253906 134.753906 102.808594 134.640625 C 103.359375 134.53125 103.90625 134.390625 104.449219 134.226562 C 104.988281 134.0625 105.519531 133.871094 106.042969 133.65625 C 106.5625 133.4375 107.074219 133.199219 107.570312 132.929688 C 108.070312 132.664062 108.554688 132.375 109.023438 132.058594 C 109.492188 131.746094 109.945312 131.410156 110.382812 131.050781 C 110.820312 130.691406 111.238281 130.3125 111.636719 129.914062 C 112.039062 129.511719 112.417969 129.09375 112.773438 128.660156 C 113.132812 128.222656 113.46875 127.769531 113.785156 127.296875 C 114.097656 126.828125 114.386719 126.34375 114.65625 125.847656 C 114.921875 125.347656 115.164062 124.839844 115.378906 124.316406 C 115.597656 123.792969 115.785156 123.261719 115.953125 122.722656 C 116.117188 122.183594 116.253906 121.632812 116.363281 121.082031 C 116.476562 120.527344 116.558594 119.96875 116.613281 119.40625 C 116.671875 118.84375 116.699219 118.277344 116.699219 117.714844 L 116.699219 46.316406 L 124.523438 46.316406 C 124.863281 46.316406 125.203125 46.28125 125.539062 46.214844 C 125.875 46.148438 126.199219 46.050781 126.515625 45.917969 C 126.832031 45.789062 127.132812 45.625 127.417969 45.4375 C 127.703125 45.246094 127.96875 45.03125 128.210938 44.789062 C 128.453125 44.546875 128.667969 44.28125 128.859375 43.996094 C 129.046875 43.710938 129.207031 43.414062 129.339844 43.097656 C 129.46875 42.78125 129.570312 42.453125 129.636719 42.117188 C 129.703125 41.78125 129.738281 41.441406 129.738281 41.101562 C 129.738281 40.757812 129.703125 40.417969 129.636719 40.082031 C 129.570312 39.746094 129.46875 39.421875 129.339844 39.105469 C 129.207031 38.789062 129.046875 38.488281 128.859375 38.203125 C 128.667969 37.917969 128.453125 37.652344 128.210938 37.410156 C 127.96875 37.167969 127.703125 36.953125 127.417969 36.761719 C 127.132812 36.574219 126.832031 36.414062 126.515625 36.28125 C 126.199219 36.152344 125.875 36.050781 125.539062 35.984375 C 125.203125 35.917969 124.863281 35.882812 124.523438 35.882812 Z M 59.34375 32.207031 C 59.34375 31.765625 59.386719 31.324219 59.472656 30.890625 C 59.558594 30.453125 59.6875 30.03125 59.859375 29.621094 C 60.027344 29.214844 60.234375 28.824219 60.480469 28.457031 C 60.726562 28.085938 61.007812 27.746094 61.320312 27.433594 C 61.636719 27.117188 61.976562 26.839844 62.34375 26.59375 C 62.714844 26.34375 63.101562 26.136719 63.511719 25.96875 C 63.921875 25.796875 64.34375 25.671875 64.777344 25.582031 C 65.214844 25.496094 65.652344 25.453125 66.097656 25.453125 L 83.875 25.453125 C 84.320312 25.453125 84.757812 25.496094 85.195312 25.582031 C 85.628906 25.671875 86.050781 25.796875 86.460938 25.96875 C 86.871094 26.136719 87.257812 26.34375 87.628906 26.59375 C 87.996094 26.839844 88.339844 27.117188 88.652344 27.433594 C 88.964844 27.746094 89.246094 28.085938 89.492188 28.457031 C 89.738281 28.824219 89.945312 29.214844 90.113281 29.621094 C 90.285156 30.03125 90.414062 30.453125 90.5 30.890625 C 90.585938 31.324219 90.628906 31.765625 90.628906 32.207031 L 90.628906 35.882812 L 59.34375 35.882812 Z M 106.273438 117.714844 C 106.269531 118.164062 106.226562 118.605469 106.136719 119.046875 C 106.046875 119.484375 105.917969 119.910156 105.746094 120.324219 C 105.574219 120.738281 105.363281 121.132812 105.113281 121.503906 C 104.863281 121.875 104.582031 122.222656 104.265625 122.539062 C 103.945312 122.855469 103.601562 123.136719 103.230469 123.386719 C 102.859375 123.636719 102.464844 123.847656 102.050781 124.019531 C 101.636719 124.191406 101.210938 124.320312 100.773438 124.410156 C 100.332031 124.5 99.890625 124.542969 99.441406 124.546875 L 50.558594 124.546875 C 50.109375 124.546875 49.664062 124.503906 49.222656 124.414062 C 48.78125 124.328125 48.355469 124.199219 47.941406 124.027344 C 47.523438 123.855469 47.128906 123.644531 46.757812 123.394531 C 46.382812 123.148438 46.035156 122.863281 45.71875 122.546875 C 45.398438 122.230469 45.117188 121.886719 44.867188 121.511719 C 44.613281 121.140625 44.402344 120.746094 44.230469 120.332031 C 44.058594 119.917969 43.925781 119.488281 43.835938 119.046875 C 43.746094 118.609375 43.703125 118.164062 43.699219 117.714844 L 43.699219 46.316406 L 106.273438 46.316406 Z M 106.273438 117.714844 " fill-opacity="1" fill-rule="nonzero"/></g><path fill="#000000" d="M 61.949219 58.023438 C 61.609375 58.023438 61.269531 58.058594 60.933594 58.125 C 60.597656 58.191406 60.273438 58.289062 59.957031 58.421875 C 59.640625 58.550781 59.339844 58.710938 59.054688 58.902344 C 58.769531 59.09375 58.503906 59.308594 58.261719 59.550781 C 58.023438 59.792969 57.804688 60.058594 57.613281 60.339844 C 57.425781 60.625 57.265625 60.925781 57.132812 61.242188 C 57.003906 61.558594 56.902344 61.886719 56.835938 62.222656 C 56.769531 62.558594 56.738281 62.898438 56.738281 63.238281 L 56.738281 110.179688 C 56.738281 110.519531 56.769531 110.859375 56.835938 111.195312 C 56.902344 111.53125 57.003906 111.855469 57.132812 112.171875 C 57.265625 112.488281 57.425781 112.789062 57.613281 113.074219 C 57.804688 113.359375 58.023438 113.625 58.261719 113.867188 C 58.503906 114.109375 58.769531 114.324219 59.054688 114.515625 C 59.339844 114.703125 59.640625 114.863281 59.957031 114.996094 C 60.273438 115.128906 60.597656 115.226562 60.933594 115.292969 C 61.269531 115.359375 61.609375 115.394531 61.949219 115.394531 C 62.292969 115.394531 62.632812 115.359375 62.96875 115.292969 C 63.304688 115.226562 63.628906 115.128906 63.945312 114.996094 C 64.261719 114.863281 64.5625 114.703125 64.847656 114.515625 C 65.132812 114.324219 65.394531 114.109375 65.636719 113.867188 C 65.878906 113.625 66.097656 113.359375 66.285156 113.074219 C 66.476562 112.789062 66.636719 112.488281 66.769531 112.171875 C 66.898438 111.855469 66.996094 111.53125 67.066406 111.195312 C 67.132812 110.859375 67.164062 110.519531 67.164062 110.179688 L 67.164062 63.238281 C 67.164062 62.898438 67.132812 62.558594 67.066406 62.222656 C 66.996094 61.886719 66.898438 61.558594 66.769531 61.242188 C 66.636719 60.925781 66.476562 60.625 66.285156 60.339844 C 66.097656 60.058594 65.878906 59.792969 65.636719 59.550781 C 65.394531 59.308594 65.132812 59.09375 64.847656 58.902344 C 64.5625 58.710938 64.261719 58.550781 63.945312 58.421875 C 63.628906 58.289062 63.304688 58.191406 62.96875 58.125 C 62.632812 58.058594 62.292969 58.023438 61.949219 58.023438 Z M 61.949219 58.023438 " fill-opacity="1" fill-rule="nonzero"/><path fill="#000000" d="M 88.023438 58.023438 C 87.679688 58.023438 87.339844 58.058594 87.003906 58.125 C 86.667969 58.191406 86.34375 58.289062 86.027344 58.421875 C 85.710938 58.550781 85.410156 58.710938 85.125 58.902344 C 84.839844 59.09375 84.578125 59.308594 84.335938 59.550781 C 84.09375 59.792969 83.875 60.058594 83.6875 60.339844 C 83.496094 60.625 83.335938 60.925781 83.203125 61.242188 C 83.074219 61.558594 82.976562 61.886719 82.90625 62.222656 C 82.839844 62.558594 82.808594 62.898438 82.808594 63.238281 L 82.808594 110.179688 C 82.808594 110.519531 82.839844 110.859375 82.90625 111.195312 C 82.976562 111.53125 83.074219 111.855469 83.203125 112.171875 C 83.335938 112.488281 83.496094 112.789062 83.6875 113.074219 C 83.875 113.359375 84.09375 113.625 84.335938 113.867188 C 84.578125 114.109375 84.839844 114.324219 85.125 114.515625 C 85.410156 114.703125 85.710938 114.863281 86.027344 114.996094 C 86.34375 115.128906 86.667969 115.226562 87.003906 115.292969 C 87.339844 115.359375 87.679688 115.394531 88.023438 115.394531 C 88.363281 115.394531 88.703125 115.359375 89.039062 115.292969 C 89.375 115.226562 89.703125 115.128906 90.015625 114.996094 C 90.332031 114.863281 90.632812 114.703125 90.917969 114.515625 C 91.203125 114.324219 91.46875 114.109375 91.710938 113.867188 C 91.953125 113.625 92.167969 113.359375 92.359375 113.074219 C 92.546875 112.789062 92.707031 112.488281 92.839844 112.171875 C 92.96875 111.855469 93.070312 111.53125 93.136719 111.195312 C 93.203125 110.859375 93.238281 110.519531 93.238281 110.179688 L 93.238281 63.238281 C 93.238281 62.898438 93.203125 62.558594 93.136719 62.222656 C 93.070312 61.886719 92.96875 61.558594 92.839844 61.242188 C 92.707031 60.925781 92.546875 60.625 92.359375 60.339844 C 92.167969 60.058594 91.953125 59.792969 91.710938 59.550781 C 91.46875 59.308594 91.203125 59.09375 90.917969 58.902344 C 90.632812 58.710938 90.332031 58.550781 90.015625 58.421875 C 89.703125 58.289062 89.375 58.191406 89.039062 58.125 C 88.703125 58.058594 88.363281 58.023438 88.023438 58.023438 Z M 88.023438 58.023438 " fill-opacity="1" fill-rule="nonzero"/></svg>