<svg xmlns="http://www.w3.org/2000/svg" xmlns:xlink="http://www.w3.org/1999/xlink" width="200" zoomAndPan="magnify" viewBox="0 0 150 149.999998" height="200" preserveAspectRatio="xMidYMid meet" version="1.0"><path fill="#ffffff" d="M 40.515625 25.589844 C 26.605469 25.589844 15.28125 36.933594 15.28125 50.820312 L 15.28125 109.699219 C 15.28125 123.609375 26.605469 134.933594 40.515625 134.933594 L 99.390625 134.933594 C 113.300781 134.933594 124.625 123.609375 124.625 109.699219 L 124.625 84.46875 C 124.625 82.144531 122.742188 80.261719 120.421875 80.261719 C 118.097656 80.261719 116.214844 82.144531 116.214844 84.46875 L 116.214844 109.699219 C 116.214844 119.097656 108.789062 126.523438 99.390625 126.523438 L 40.515625 126.523438 C 31.140625 126.523438 23.691406 119.097656 23.691406 109.699219 L 23.691406 50.820312 C 23.691406 41.445312 31.140625 34 40.515625 34 L 65.746094 34 C 68.070312 34 69.953125 32.117188 69.953125 29.792969 C 69.953125 27.472656 68.070312 25.589844 65.746094 25.589844 Z M 40.515625 25.589844 " fill-opacity="1" fill-rule="nonzero"/><path fill="#ffffff" d="M 100.75 22.695312 L 51.949219 71.5 C 51.289062 72.15625 50.875 73.011719 50.765625 73.910156 L 47.566406 97.390625 C 47.195312 100.105469 49.472656 102.429688 52.210938 102.144531 L 76.195312 99.472656 C 77.160156 99.363281 78.035156 98.945312 78.714844 98.265625 L 127.515625 49.484375 C 134.878906 42.105469 134.878906 30.078125 127.515625 22.695312 C 120.289062 15.160156 107.824219 15.839844 100.75 22.695312 Z M 121.558594 28.65625 C 125.722656 32.816406 125.722656 39.34375 121.558594 43.527344 L 117.089844 47.996094 L 102.238281 33.125 L 106.6875 28.65625 C 111.570312 23.769531 117.59375 24.691406 121.558594 28.65625 Z M 96.28125 39.058594 L 111.15625 53.933594 L 73.808594 91.277344 L 56.636719 93.183594 L 58.890625 76.449219 Z M 96.28125 39.058594 " fill-opacity="1" fill-rule="nonzero"/></svg>