<svg xmlns="http://www.w3.org/2000/svg" xmlns:xlink="http://www.w3.org/1999/xlink" width="200" zoomAndPan="magnify" viewBox="0 0 150 149.999998" height="200" preserveAspectRatio="xMidYMid meet" version="1.0"><defs><clipPath id="228c3b1c3f"><path d="M 15 30 L 113 30 L 113 127.5 L 15 127.5 Z M 15 30 " clip-rule="nonzero"/></clipPath><clipPath id="d68e288c8a"><path d="M 45 22.5 L 135 22.5 L 135 83 L 45 83 Z M 45 22.5 " clip-rule="nonzero"/></clipPath></defs><g clip-path="url(#228c3b1c3f)"><path fill="#000000" d="M 97.5 112.5 L 30 112.5 L 30 45 L 52.5 45 L 52.5 30 L 22.5 30 C 18.359375 30 15 33.359375 15 37.5 L 15 120 C 15 124.148438 18.359375 127.5 22.5 127.5 L 105 127.5 C 109.148438 127.5 112.5 124.148438 112.5 120 L 112.5 82.734375 L 97.5 82.734375 Z M 97.5 112.5 " fill-opacity="1" fill-rule="nonzero"/></g><g clip-path="url(#d68e288c8a)"><path fill="#000000" d="M 133.5 45.75 L 103.5 23.25 C 102.375 22.394531 100.84375 22.261719 99.578125 22.898438 C 98.300781 23.535156 97.5 24.832031 97.5 26.25 L 97.5 37.5 L 86.25 37.5 C 63.503906 37.5 45 56.003906 45 78.75 C 45 80.488281 46.199219 82.003906 47.886719 82.402344 C 48.171875 82.46875 48.464844 82.5 48.75 82.5 C 50.144531 82.5 51.457031 81.71875 52.101562 80.429688 L 52.988281 78.667969 C 58.738281 67.15625 70.304688 60 83.175781 60 L 97.5 60 L 97.5 71.25 C 97.5 72.667969 98.300781 73.964844 99.570312 74.601562 C 100.835938 75.238281 102.367188 75.105469 103.5 74.25 L 133.5 51.75 C 134.445312 51.046875 135 49.925781 135 48.75 C 135 47.574219 134.445312 46.453125 133.5 45.75 Z M 133.5 45.75 " fill-opacity="1" fill-rule="nonzero"/></g></svg>