<svg xmlns="http://www.w3.org/2000/svg" xmlns:xlink="http://www.w3.org/1999/xlink" width="200" zoomAndPan="magnify" viewBox="0 0 150 149.999998" height="200" preserveAspectRatio="xMidYMid meet" version="1.0"><defs><clipPath id="da59851dfe"><path d="M 15 23 L 113 23 L 113 120.9375 L 15 120.9375 Z M 15 23 " clip-rule="nonzero"/></clipPath><clipPath id="599d2f10ea"><path d="M 45 15.9375 L 135 15.9375 L 135 76 L 45 76 Z M 45 15.9375 " clip-rule="nonzero"/></clipPath></defs><g clip-path="url(#da59851dfe)"><path fill="#ffffff" d="M 97.5 105.9375 L 30 105.9375 L 30 38.4375 L 52.5 38.4375 L 52.5 23.4375 L 22.5 23.4375 C 18.359375 23.4375 15 26.796875 15 30.9375 L 15 113.4375 C 15 117.585938 18.359375 120.9375 22.5 120.9375 L 105 120.9375 C 109.148438 120.9375 112.5 117.585938 112.5 113.4375 L 112.5 76.171875 L 97.5 76.171875 Z M 97.5 105.9375 " fill-opacity="1" fill-rule="nonzero"/></g><g clip-path="url(#599d2f10ea)"><path fill="#ffffff" d="M 133.5 39.1875 L 103.5 16.6875 C 102.375 15.832031 100.84375 15.699219 99.578125 16.335938 C 98.300781 16.972656 97.5 18.269531 97.5 19.6875 L 97.5 30.9375 L 86.25 30.9375 C 63.503906 30.9375 45 49.441406 45 72.1875 C 45 73.925781 46.199219 75.441406 47.886719 75.839844 C 48.171875 75.90625 48.464844 75.9375 48.75 75.9375 C 50.144531 75.9375 51.457031 75.15625 52.101562 73.867188 L 52.988281 72.105469 C 58.738281 60.59375 70.304688 53.4375 83.175781 53.4375 L 97.5 53.4375 L 97.5 64.6875 C 97.5 66.105469 98.300781 67.402344 99.570312 68.039062 C 100.835938 68.675781 102.367188 68.542969 103.5 67.6875 L 133.5 45.1875 C 134.445312 44.484375 135 43.363281 135 42.1875 C 135 41.011719 134.445312 39.890625 133.5 39.1875 Z M 133.5 39.1875 " fill-opacity="1" fill-rule="nonzero"/></g></svg>