<svg xmlns="http://www.w3.org/2000/svg" xmlns:xlink="http://www.w3.org/1999/xlink" width="200" zoomAndPan="magnify" viewBox="0 0 150 149.999998" height="200" preserveAspectRatio="xMidYMid meet" version="1.0"><path fill="#000000" d="M 92.128906 102.75 L 121.523438 132.132812 C 124.433594 135.039062 129.15625 135.039062 132.066406 132.128906 C 134.976562 129.21875 134.976562 124.492188 132.066406 121.582031 L 102.695312 92.222656 C 108.601562 84.183594 112.09375 74.261719 112.09375 63.523438 C 112.09375 36.742188 90.351562 15 63.570312 15 C 36.789062 15 15.042969 36.742188 15.042969 63.523438 C 15.042969 90.308594 36.789062 112.050781 63.570312 112.050781 C 74.242188 112.050781 84.113281 108.597656 92.128906 102.75 Z M 63.570312 29.914062 C 82.121094 29.914062 97.183594 44.976562 97.183594 63.523438 C 97.183594 82.074219 82.121094 97.136719 63.570312 97.136719 C 45.019531 97.136719 29.960938 82.074219 29.960938 63.523438 C 29.960938 44.976562 45.019531 29.914062 63.570312 29.914062 Z M 63.570312 29.914062 " fill-opacity="1" fill-rule="evenodd"/></svg>