<svg xmlns="http://www.w3.org/2000/svg" xmlns:xlink="http://www.w3.org/1999/xlink" width="200" zoomAndPan="magnify" viewBox="0 0 150 149.999998" height="200" preserveAspectRatio="xMidYMid meet" version="1.0"><defs><clipPath id="644b18b5e0"><path d="M 15 17.347656 L 135 17.347656 L 135 137 L 15 137 Z M 15 17.347656 " clip-rule="nonzero"/></clipPath></defs><g clip-path="url(#644b18b5e0)"><path fill="#ffffff" d="M 92.128906 105.097656 L 121.523438 134.480469 C 124.433594 137.386719 129.15625 137.386719 132.066406 134.476562 C 134.976562 131.566406 134.976562 126.839844 132.066406 123.929688 L 102.695312 94.570312 C 108.601562 86.53125 112.09375 76.609375 112.09375 65.875 C 112.09375 39.089844 90.351562 17.347656 63.570312 17.347656 C 36.789062 17.347656 15.042969 39.089844 15.042969 65.875 C 15.042969 92.65625 36.789062 114.398438 63.570312 114.398438 C 74.242188 114.398438 84.113281 110.945312 92.128906 105.097656 Z M 63.570312 32.261719 C 82.121094 32.261719 97.183594 47.324219 97.183594 65.875 C 97.183594 84.421875 82.121094 99.484375 63.570312 99.484375 C 45.019531 99.484375 29.960938 84.421875 29.960938 65.875 C 29.960938 47.324219 45.019531 32.261719 63.570312 32.261719 Z M 63.570312 32.261719 " fill-opacity="1" fill-rule="evenodd"/></g></svg>