<svg xmlns="http://www.w3.org/2000/svg" xmlns:xlink="http://www.w3.org/1999/xlink" width="200" zoomAndPan="magnify" viewBox="0 0 150 149.999998" height="200" preserveAspectRatio="xMidYMid meet" version="1.0"><path fill="#231f20" d="M 125.679688 62.484375 L 123.113281 62.484375 C 121.6875 62.484375 120.433594 61.5625 119.984375 60.222656 C 119.234375 57.960938 118.339844 55.757812 117.25 53.664062 C 116.609375 52.382812 116.832031 50.847656 117.863281 49.8125 L 119.707031 47.972656 C 123.335938 44.34375 123.335938 38.398438 119.707031 34.773438 L 115.1875 30.308594 C 111.558594 26.679688 105.640625 26.679688 101.984375 30.308594 L 100.144531 32.148438 C 99.140625 33.152344 97.578125 33.40625 96.320312 32.761719 C 94.226562 31.703125 92.023438 30.78125 89.761719 30.027344 C 88.394531 29.582031 87.503906 28.324219 87.503906 26.902344 L 87.503906 24.335938 C 87.503906 19.199219 83.316406 15.015625 78.179688 15.015625 L 71.847656 15.015625 C 66.710938 15.015625 62.527344 19.199219 62.527344 24.335938 L 62.527344 26.902344 C 62.527344 28.324219 61.605469 29.582031 60.265625 30.027344 C 58.003906 30.78125 55.800781 31.675781 53.707031 32.761719 C 52.421875 33.40625 50.886719 33.179688 49.855469 32.148438 L 48.015625 30.308594 C 44.386719 26.679688 38.441406 26.679688 34.8125 30.308594 L 30.320312 34.800781 C 26.691406 38.429688 26.691406 44.371094 30.320312 48 L 32.164062 49.84375 C 33.167969 50.847656 33.417969 52.382812 32.777344 53.664062 C 31.714844 55.757812 30.796875 57.960938 30.042969 60.222656 C 29.59375 61.589844 28.339844 62.484375 26.917969 62.484375 L 24.347656 62.484375 C 19.1875 62.484375 15 66.667969 15 71.832031 L 15 78.167969 C 15 83.300781 19.1875 87.488281 24.320312 87.488281 L 26.886719 87.488281 C 28.3125 87.488281 29.566406 88.410156 30.015625 89.75 C 30.765625 92.007812 31.660156 94.214844 32.75 96.308594 C 33.390625 97.589844 33.167969 99.125 32.136719 100.15625 L 30.292969 102 C 26.664062 105.628906 26.664062 111.570312 30.292969 115.199219 L 34.8125 119.664062 C 38.441406 123.292969 44.359375 123.292969 48.015625 119.664062 L 49.855469 117.824219 C 50.859375 116.820312 52.421875 116.566406 53.679688 117.210938 C 55.773438 118.269531 57.976562 119.191406 60.238281 119.945312 C 61.605469 120.390625 62.496094 121.648438 62.496094 123.070312 L 62.496094 125.664062 C 62.496094 130.800781 66.683594 134.984375 71.820312 134.984375 L 78.152344 134.984375 C 83.289062 134.984375 87.472656 130.800781 87.472656 125.664062 L 87.472656 123.070312 C 87.472656 121.648438 88.394531 120.390625 89.734375 119.945312 C 91.996094 119.191406 94.199219 118.296875 96.292969 117.210938 C 97.578125 116.566406 99.113281 116.789062 100.144531 117.824219 L 101.984375 119.664062 C 105.613281 123.292969 111.558594 123.292969 115.1875 119.664062 L 119.679688 115.171875 C 123.308594 111.542969 123.308594 105.601562 119.679688 101.972656 L 117.835938 100.128906 C 116.832031 99.125 116.582031 97.589844 117.222656 96.308594 C 118.285156 94.214844 119.203125 92.007812 119.957031 89.75 C 120.40625 88.382812 121.660156 87.488281 123.082031 87.488281 L 125.652344 87.488281 C 130.785156 87.488281 134.972656 83.300781 134.972656 78.167969 L 134.972656 71.832031 C 135 66.667969 130.8125 62.484375 125.679688 62.484375 Z M 129 78.140625 C 129 79.980469 127.492188 81.460938 125.679688 81.460938 L 123.113281 81.460938 C 119.09375 81.460938 115.546875 84.027344 114.292969 87.851562 C 113.652344 89.804688 112.84375 91.730469 111.921875 93.570312 C 110.105469 97.171875 110.777344 101.496094 113.625 104.371094 L 115.464844 106.214844 C 116.777344 107.527344 116.777344 109.617188 115.464844 110.929688 L 110.972656 115.421875 C 109.660156 116.734375 107.539062 116.707031 106.253906 115.421875 L 104.414062 113.582031 C 101.566406 110.734375 97.242188 110.039062 93.613281 111.878906 C 91.773438 112.800781 89.875 113.609375 87.894531 114.25 C 84.070312 115.507812 81.503906 119.050781 81.503906 123.070312 L 81.503906 125.664062 C 81.503906 127.507812 79.996094 128.984375 78.179688 128.984375 L 71.847656 128.984375 C 70.003906 128.984375 68.527344 127.480469 68.527344 125.664062 L 68.527344 123.070312 C 68.527344 119.050781 65.957031 115.507812 62.136719 114.25 C 60.179688 113.609375 58.253906 112.800781 56.414062 111.878906 C 55.074219 111.210938 53.625 110.875 52.199219 110.875 C 49.800781 110.875 47.429688 111.824219 45.640625 113.609375 L 43.800781 115.449219 C 42.488281 116.734375 40.394531 116.761719 39.082031 115.449219 L 34.589844 110.957031 C 33.277344 109.648438 33.277344 107.554688 34.589844 106.242188 L 36.433594 104.398438 C 39.277344 101.554688 39.976562 97.226562 38.136719 93.601562 C 37.214844 91.757812 36.40625 89.859375 35.761719 87.878906 C 34.507812 84.054688 30.960938 81.488281 26.945312 81.488281 L 24.375 81.488281 C 22.535156 81.488281 21.054688 79.980469 21.054688 78.167969 L 21.054688 71.832031 C 21.054688 69.992188 22.5625 68.511719 24.375 68.511719 L 26.945312 68.511719 C 30.960938 68.511719 34.507812 65.945312 35.761719 62.121094 C 36.40625 60.167969 37.214844 58.242188 38.136719 56.398438 C 39.949219 52.800781 39.277344 48.472656 36.433594 45.601562 L 34.589844 43.757812 C 33.277344 42.445312 33.277344 40.351562 34.589844 39.042969 L 39.082031 34.550781 C 40.394531 33.238281 42.488281 33.238281 43.800781 34.550781 L 45.640625 36.390625 C 48.488281 39.238281 52.84375 39.933594 56.441406 38.09375 C 58.285156 37.171875 60.179688 36.363281 62.164062 35.722656 C 65.984375 34.464844 68.554688 30.921875 68.554688 26.902344 L 68.554688 24.335938 C 68.554688 22.492188 70.058594 21.015625 71.875 21.015625 L 78.210938 21.015625 C 80.050781 21.015625 81.53125 22.519531 81.53125 24.335938 L 81.53125 26.902344 C 81.53125 30.921875 84.097656 34.464844 87.921875 35.722656 C 89.875 36.363281 91.800781 37.171875 93.640625 38.09375 C 97.242188 39.90625 101.566406 39.238281 104.441406 36.390625 L 106.285156 34.550781 C 107.566406 33.238281 109.6875 33.238281 111 34.550781 L 115.492188 39.042969 C 116.804688 40.351562 116.804688 42.445312 115.492188 43.757812 L 113.652344 45.601562 C 110.804688 48.445312 110.105469 52.773438 111.949219 56.398438 C 112.871094 58.242188 113.679688 60.140625 114.320312 62.121094 C 115.578125 65.945312 119.121094 68.511719 123.140625 68.511719 L 125.707031 68.511719 C 127.550781 68.511719 129.027344 70.019531 129.027344 71.832031 L 129.027344 78.140625 Z M 129 78.140625 " fill-opacity="1" fill-rule="nonzero"/><path fill="#231f20" d="M 75 43.480469 C 57.640625 43.480469 43.492188 57.601562 43.492188 74.984375 C 43.492188 92.371094 57.640625 106.492188 75 106.492188 C 92.359375 106.492188 106.507812 92.34375 106.507812 74.984375 C 106.507812 57.628906 92.359375 43.480469 75 43.480469 Z M 75 100.492188 C 60.933594 100.492188 49.492188 89.050781 49.492188 74.984375 C 49.492188 60.921875 60.933594 49.480469 75 49.480469 C 89.066406 49.480469 100.507812 60.921875 100.507812 74.984375 C 100.507812 89.050781 89.066406 100.492188 75 100.492188 Z M 75 100.492188 " fill-opacity="1" fill-rule="nonzero"/></svg>