<svg xmlns="http://www.w3.org/2000/svg" xmlns:xlink="http://www.w3.org/1999/xlink" width="200" zoomAndPan="magnify" viewBox="0 0 150 149.999998" height="200" preserveAspectRatio="xMidYMid meet" version="1.0"><defs><clipPath id="6b1c04088b"><path d="M 15 22.726562 L 135 22.726562 L 135 126.976562 L 15 126.976562 Z M 15 22.726562 " clip-rule="nonzero"/></clipPath></defs><g clip-path="url(#6b1c04088b)"><path fill="#ffffff" d="M 134.1875 69.675781 L 119.398438 57.859375 C 119.398438 57.789062 119.445312 57.742188 119.445312 57.667969 L 119.445312 30.609375 C 119.445312 29.53125 118.582031 28.667969 117.503906 28.667969 L 105.90625 28.667969 C 104.828125 28.667969 103.964844 29.53125 103.964844 30.609375 L 103.964844 45.542969 L 76.1875 23.300781 C 75.492188 22.726562 74.484375 22.726562 73.765625 23.300781 L 15.789062 69.675781 C 15.359375 70.011719 15.09375 70.539062 15.070312 71.089844 C 15.046875 71.640625 15.238281 72.167969 15.621094 72.550781 L 21.421875 78.351562 C 22.117188 79.046875 23.242188 79.117188 24.011719 78.496094 L 24.730469 77.921875 L 24.730469 125.328125 C 24.730469 126.40625 25.59375 127.269531 26.671875 127.269531 L 123.304688 127.269531 C 124.382812 127.269531 125.246094 126.40625 125.246094 125.328125 L 125.246094 77.894531 L 125.964844 78.472656 C 126.324219 78.757812 126.757812 78.902344 127.1875 78.902344 C 127.691406 78.902344 128.171875 78.710938 128.554688 78.328125 L 134.355469 72.527344 C 134.738281 72.144531 134.953125 71.59375 134.90625 71.066406 C 134.882812 70.539062 134.617188 70.011719 134.1875 69.675781 Z M 107.847656 47.984375 L 107.847656 32.527344 L 115.585938 32.527344 L 115.585938 54.792969 L 107.75 48.511719 C 107.796875 48.34375 107.847656 48.175781 107.847656 47.984375 Z M 61.445312 123.386719 L 61.445312 94.386719 L 88.503906 94.386719 L 88.503906 123.386719 Z M 121.386719 75.042969 L 121.386719 123.363281 L 92.386719 123.363281 L 92.386719 92.445312 C 92.386719 91.367188 91.523438 90.503906 90.445312 90.503906 L 59.53125 90.503906 C 58.449219 90.503906 57.589844 91.367188 57.589844 92.445312 L 57.589844 123.363281 L 28.589844 123.363281 L 28.589844 75.042969 C 28.589844 74.949219 28.539062 74.875 28.539062 74.78125 L 74.988281 36.960938 L 121.4375 74.804688 C 121.410156 74.875 121.386719 74.972656 121.386719 75.042969 Z M 127.042969 74.398438 L 76.210938 32.957031 C 75.851562 32.671875 75.417969 32.527344 74.988281 32.527344 C 74.554688 32.527344 74.125 32.671875 73.765625 32.957031 L 22.933594 74.398438 L 19.886719 71.355469 L 74.988281 27.277344 L 130.085938 71.355469 Z M 127.042969 74.398438 " fill-opacity="1" fill-rule="nonzero"/></g></svg>