<svg xmlns="http://www.w3.org/2000/svg" xmlns:xlink="http://www.w3.org/1999/xlink" width="200" zoomAndPan="magnify" viewBox="0 0 150 149.999998" height="200" preserveAspectRatio="xMidYMid meet" version="1.0"><defs><clipPath id="c7c3534aa8"><path d="M 15 22.726562 L 135 22.726562 L 135 126.976562 L 15 126.976562 Z M 15 22.726562 " clip-rule="nonzero"/></clipPath></defs><g clip-path="url(#c7c3534aa8)"><path fill="#000000" d="M 134.1875 69.542969 L 119.398438 57.761719 C 119.398438 57.691406 119.445312 57.640625 119.445312 57.570312 L 119.445312 30.589844 C 119.445312 29.511719 118.582031 28.652344 117.503906 28.652344 L 105.90625 28.652344 C 104.828125 28.652344 103.964844 29.511719 103.964844 30.589844 L 103.964844 45.476562 L 76.1875 23.296875 C 75.492188 22.726562 74.484375 22.726562 73.765625 23.296875 L 15.789062 69.542969 C 15.359375 69.878906 15.09375 70.40625 15.070312 70.953125 C 15.046875 71.503906 15.238281 72.03125 15.621094 72.414062 L 21.421875 78.195312 C 22.117188 78.890625 23.242188 78.960938 24.011719 78.339844 L 24.730469 77.765625 L 24.730469 125.039062 C 24.730469 126.113281 25.59375 126.976562 26.671875 126.976562 L 123.304688 126.976562 C 124.382812 126.976562 125.246094 126.113281 125.246094 125.039062 L 125.246094 77.742188 L 125.964844 78.316406 C 126.324219 78.601562 126.757812 78.746094 127.1875 78.746094 C 127.691406 78.746094 128.171875 78.554688 128.554688 78.171875 L 134.355469 72.386719 C 134.738281 72.007812 134.953125 71.457031 134.90625 70.929688 C 134.882812 70.40625 134.617188 69.878906 134.1875 69.542969 Z M 107.847656 47.914062 L 107.847656 32.5 L 115.585938 32.5 L 115.585938 54.703125 L 107.75 48.441406 C 107.796875 48.273438 107.847656 48.105469 107.847656 47.914062 Z M 61.445312 123.101562 L 61.445312 94.183594 L 88.503906 94.183594 L 88.503906 123.101562 Z M 121.386719 74.898438 L 121.386719 123.078125 L 92.386719 123.078125 L 92.386719 92.25 C 92.386719 91.171875 91.523438 90.3125 90.445312 90.3125 L 59.53125 90.3125 C 58.449219 90.3125 57.589844 91.171875 57.589844 92.25 L 57.589844 123.078125 L 28.589844 123.078125 L 28.589844 74.898438 C 28.589844 74.800781 28.539062 74.730469 28.539062 74.636719 L 74.988281 36.921875 L 121.4375 74.660156 C 121.410156 74.730469 121.386719 74.824219 121.386719 74.898438 Z M 127.042969 74.253906 L 76.210938 32.929688 C 75.851562 32.644531 75.417969 32.5 74.988281 32.5 C 74.554688 32.5 74.125 32.644531 73.765625 32.929688 L 22.933594 74.253906 L 19.886719 71.21875 L 74.988281 27.265625 L 130.085938 71.21875 Z M 127.042969 74.253906 " fill-opacity="1" fill-rule="nonzero"/></g></svg>