<svg xmlns="http://www.w3.org/2000/svg" xmlns:xlink="http://www.w3.org/1999/xlink" width="200" zoomAndPan="magnify" viewBox="0 0 150 149.999998" height="200" preserveAspectRatio="xMidYMid meet" version="1.0"><defs><clipPath id="149263e91b"><path d="M 30.949219 29.171875 L 118.699219 29.171875 L 118.699219 134.984375 L 30.949219 134.984375 Z M 30.949219 29.171875 " clip-rule="nonzero"/></clipPath></defs><g clip-path="url(#149263e91b)"><path fill="#ffffff" d="M 36.507812 31.746094 C 34.859375 31.746094 33.515625 33.089844 33.515625 34.738281 L 33.515625 129.421875 C 33.515625 131.074219 34.859375 132.417969 36.507812 132.417969 L 113.480469 132.417969 C 115.132812 132.417969 116.476562 131.074219 116.476562 129.421875 L 116.476562 34.738281 C 116.476562 33.089844 115.132812 31.746094 113.480469 31.746094 L 103.59375 31.746094 L 103.59375 35.960938 C 103.59375 38.496094 101.535156 40.554688 99.003906 40.554688 L 49.894531 40.554688 C 47.363281 40.554688 45.300781 38.496094 45.300781 35.960938 L 45.300781 31.746094 Z M 113.480469 134.984375 L 36.507812 134.984375 C 33.445312 134.984375 30.949219 132.488281 30.949219 129.421875 L 30.949219 34.738281 C 30.949219 31.675781 33.445312 29.179688 36.507812 29.179688 L 47.867188 29.179688 L 47.867188 35.960938 C 47.867188 37.078125 48.777344 37.988281 49.894531 37.988281 L 99.003906 37.988281 C 100.121094 37.988281 101.027344 37.078125 101.027344 35.960938 L 101.027344 29.179688 L 113.480469 29.179688 C 116.546875 29.179688 119.039062 31.675781 119.039062 34.738281 L 119.039062 129.421875 C 119.039062 132.488281 116.546875 134.984375 113.480469 134.984375 " fill-opacity="1" fill-rule="nonzero"/></g><path fill="#ffffff" d="M 49.894531 25.160156 C 48.777344 25.160156 47.867188 26.070312 47.867188 27.1875 L 47.867188 35.960938 C 47.867188 37.078125 48.777344 37.988281 49.894531 37.988281 L 99.003906 37.988281 C 100.121094 37.988281 101.027344 37.078125 101.027344 35.960938 L 101.027344 27.1875 C 101.027344 26.070312 100.121094 25.160156 99.003906 25.160156 L 87.9375 25.160156 C 85.886719 25.160156 84.019531 23.960938 83.058594 22.027344 C 81.714844 19.328125 78.582031 17.582031 75.070312 17.582031 C 71.5625 17.582031 68.429688 19.328125 67.085938 22.027344 C 66.128906 23.960938 64.257812 25.160156 62.207031 25.160156 Z M 99.003906 40.554688 L 49.894531 40.554688 C 47.359375 40.554688 45.300781 38.496094 45.300781 35.960938 L 45.300781 27.1875 C 45.300781 24.65625 47.359375 22.59375 49.894531 22.59375 L 62.207031 22.59375 C 63.277344 22.59375 64.265625 21.941406 64.789062 20.886719 C 66.558594 17.320312 70.597656 15.015625 75.070312 15.015625 C 79.546875 15.015625 83.585938 17.320312 85.355469 20.886719 C 85.878906 21.941406 86.867188 22.59375 87.9375 22.59375 L 99.003906 22.59375 C 101.535156 22.59375 103.59375 24.65625 103.59375 27.1875 L 103.59375 35.960938 C 103.59375 38.496094 101.535156 40.554688 99.003906 40.554688 " fill-opacity="1" fill-rule="nonzero"/><path fill="#ffffff" d="M 77.148438 29.113281 C 77.148438 30.300781 76.183594 31.265625 74.996094 31.265625 C 73.804688 31.265625 72.839844 30.300781 72.839844 29.113281 C 72.839844 27.921875 73.804688 26.957031 74.996094 26.957031 C 76.183594 26.957031 77.148438 27.921875 77.148438 29.113281 " fill-opacity="1" fill-rule="nonzero"/><path fill="#ffffff" d="M 102.191406 61.546875 L 79.714844 61.546875 C 78.535156 61.546875 77.578125 60.589844 77.578125 59.410156 C 77.578125 58.230469 78.535156 57.273438 79.714844 57.273438 L 102.191406 57.273438 C 103.371094 57.273438 104.328125 58.230469 104.328125 59.410156 C 104.328125 60.589844 103.371094 61.546875 102.191406 61.546875 " fill-opacity="1" fill-rule="nonzero"/><path fill="#ffffff" d="M 102.191406 84.667969 L 79.714844 84.667969 C 78.535156 84.667969 77.578125 83.710938 77.578125 82.53125 C 77.578125 81.347656 78.535156 80.390625 79.714844 80.390625 L 102.191406 80.390625 C 103.371094 80.390625 104.328125 81.347656 104.328125 82.53125 C 104.328125 83.710938 103.371094 84.667969 102.191406 84.667969 " fill-opacity="1" fill-rule="nonzero"/><path fill="#ffffff" d="M 52.0625 61.988281 C 52.488281 62.628906 52.949219 63.234375 53.433594 63.820312 C 53.914062 64.40625 54.457031 64.933594 55.027344 65.429688 L 55.273438 65.648438 L 55.382812 65.734375 C 56.210938 66.351562 57.386719 66.183594 58.003906 65.351562 C 58.847656 64.222656 59.605469 63.015625 60.476562 61.910156 C 61.324219 60.785156 62.191406 59.679688 63.015625 58.53125 C 63.851562 57.398438 64.671875 56.25 65.484375 55.09375 C 66.300781 53.9375 67.121094 52.789062 67.90625 51.609375 C 67.957031 51.535156 67.953125 51.4375 67.894531 51.367188 C 67.824219 51.277344 67.695312 51.265625 67.609375 51.339844 C 66.515625 52.242188 65.453125 53.175781 64.390625 54.105469 C 63.324219 55.03125 62.261719 55.964844 61.222656 56.917969 C 60.167969 57.851562 59.152344 58.828125 58.121094 59.789062 C 57.628906 60.265625 57.109375 60.71875 56.585938 61.167969 C 56.496094 61.089844 56.414062 61.003906 56.324219 60.929688 C 55.738281 60.445312 55.132812 59.988281 54.492188 59.558594 C 53.851562 59.132812 53.191406 58.726562 52.480469 58.371094 C 51.78125 58.003906 51.039062 57.679688 50.21875 57.429688 C 50.175781 57.417969 50.128906 57.417969 50.085938 57.429688 C 49.964844 57.464844 49.898438 57.59375 49.933594 57.714844 C 50.183594 58.535156 50.507812 59.277344 50.875 59.976562 C 51.230469 60.6875 51.636719 61.347656 52.0625 61.988281 " fill-opacity="1" fill-rule="nonzero"/><path fill="#ffffff" d="M 67.609375 74.457031 C 66.515625 75.363281 65.453125 76.296875 64.390625 77.226562 C 63.324219 78.152344 62.261719 79.085938 61.222656 80.035156 C 60.167969 80.972656 59.152344 81.949219 58.121094 82.910156 C 57.628906 83.386719 57.109375 83.839844 56.585938 84.289062 C 56.496094 84.210938 56.414062 84.125 56.324219 84.050781 C 55.738281 83.566406 55.132812 83.105469 54.492188 82.679688 C 53.851562 82.253906 53.191406 81.847656 52.480469 81.492188 C 51.78125 81.125 51.039062 80.796875 50.21875 80.550781 C 50.175781 80.539062 50.132812 80.535156 50.085938 80.550781 C 49.964844 80.585938 49.898438 80.714844 49.933594 80.835938 C 50.183594 81.652344 50.507812 82.398438 50.875 83.097656 C 51.230469 83.808594 51.636719 84.46875 52.0625 85.109375 C 52.492188 85.75 52.949219 86.355469 53.433594 86.941406 C 53.914062 87.527344 54.457031 88.050781 55.027344 88.550781 L 55.273438 88.765625 L 55.382812 88.851562 C 56.210938 89.472656 57.386719 89.300781 58.003906 88.472656 C 58.847656 87.34375 59.605469 86.136719 60.476562 85.03125 C 61.324219 83.90625 62.191406 82.800781 63.015625 81.652344 C 63.855469 80.519531 64.671875 79.371094 65.484375 78.210938 C 66.300781 77.058594 67.121094 75.910156 67.90625 74.726562 C 67.957031 74.65625 67.953125 74.558594 67.894531 74.484375 C 67.824219 74.398438 67.695312 74.386719 67.609375 74.457031 " fill-opacity="1" fill-rule="nonzero"/><path fill="#ffffff" d="M 67.609375 97.578125 C 66.515625 98.484375 65.453125 99.414062 64.390625 100.347656 C 63.324219 101.273438 62.261719 102.207031 61.222656 103.15625 C 60.167969 104.09375 59.152344 105.070312 58.121094 106.03125 C 57.628906 106.507812 57.109375 106.960938 56.585938 107.410156 C 56.496094 107.332031 56.414062 107.246094 56.324219 107.171875 C 55.738281 106.6875 55.132812 106.226562 54.492188 105.800781 C 53.851562 105.375 53.191406 104.96875 52.480469 104.609375 C 51.78125 104.242188 51.039062 103.917969 50.21875 103.671875 C 50.175781 103.65625 50.128906 103.65625 50.085938 103.671875 C 49.964844 103.707031 49.898438 103.835938 49.933594 103.957031 C 50.183594 104.773438 50.507812 105.515625 50.875 106.21875 C 51.230469 106.925781 51.636719 107.589844 52.0625 108.230469 C 52.488281 108.871094 52.949219 109.476562 53.433594 110.058594 C 53.914062 110.648438 54.457031 111.171875 55.027344 111.667969 L 55.273438 111.886719 L 55.382812 111.972656 C 56.210938 112.59375 57.386719 112.421875 58.003906 111.59375 C 58.847656 110.464844 59.605469 109.257812 60.476562 108.152344 C 61.324219 107.027344 62.191406 105.917969 63.015625 104.773438 C 63.855469 103.640625 64.671875 102.492188 65.484375 101.332031 C 66.300781 100.179688 67.121094 99.027344 67.90625 97.847656 C 67.957031 97.777344 67.953125 97.675781 67.894531 97.605469 C 67.824219 97.519531 67.695312 97.507812 67.609375 97.578125 " fill-opacity="1" fill-rule="nonzero"/><path fill="#ffffff" d="M 102.191406 107.789062 L 79.714844 107.789062 C 78.535156 107.789062 77.578125 106.832031 77.578125 105.652344 C 77.578125 104.46875 78.535156 103.511719 79.714844 103.511719 L 102.191406 103.511719 C 103.371094 103.511719 104.328125 104.46875 104.328125 105.652344 C 104.328125 106.832031 103.371094 107.789062 102.191406 107.789062 " fill-opacity="1" fill-rule="nonzero"/></svg>