<svg xmlns="http://www.w3.org/2000/svg" xmlns:xlink="http://www.w3.org/1999/xlink" width="128" zoomAndPan="magnify" viewBox="0 0 96 95.999999" height="128" preserveAspectRatio="xMidYMid meet" version="1.0"><defs><clipPath id="7c584e2b56"><path d="M 22.046875 22 L 73.796875 22 L 73.796875 74 L 22.046875 74 Z M 22.046875 22 " clip-rule="nonzero"/></clipPath></defs><path fill="#aeefef" d="M 70.011719 0.0195312 L 25.988281 0.0195312 C 11.664062 0.0195312 0 11.664062 0 26.007812 L 0 69.992188 C 0 84.320312 11.664062 95.980469 25.988281 95.980469 L 70.011719 95.980469 C 84.335938 95.980469 96 84.320312 96 69.992188 L 96 26.007812 C 96 11.664062 84.335938 0.0195312 70.011719 0.0195312 Z M 70.011719 0.0195312 " fill-opacity="1" fill-rule="nonzero"/><g clip-path="url(#7c584e2b56)"><path fill="#00aaab" d="M 69.273438 43.300781 L 52.816406 43.300781 L 52.816406 26.84375 C 52.816406 26.535156 52.785156 26.230469 52.726562 25.929688 C 52.664062 25.625 52.578125 25.332031 52.457031 25.046875 C 52.339844 24.761719 52.195312 24.492188 52.023438 24.234375 C 51.851562 23.980469 51.660156 23.742188 51.441406 23.523438 C 51.222656 23.304688 50.984375 23.113281 50.730469 22.941406 C 50.472656 22.769531 50.203125 22.625 49.917969 22.507812 C 49.632812 22.386719 49.339844 22.300781 49.035156 22.238281 C 48.734375 22.179688 48.429688 22.148438 48.121094 22.148438 C 47.8125 22.148438 47.507812 22.179688 47.203125 22.238281 C 46.902344 22.300781 46.609375 22.386719 46.324219 22.507812 C 46.039062 22.625 45.769531 22.769531 45.511719 22.941406 C 45.257812 23.113281 45.019531 23.304688 44.800781 23.523438 C 44.582031 23.742188 44.386719 23.980469 44.21875 24.234375 C 44.046875 24.492188 43.902344 24.761719 43.785156 25.046875 C 43.664062 25.332031 43.578125 25.625 43.515625 25.929688 C 43.457031 26.230469 43.425781 26.535156 43.425781 26.84375 L 43.425781 43.300781 L 26.972656 43.300781 C 26.664062 43.300781 26.359375 43.332031 26.054688 43.390625 C 25.753906 43.449219 25.457031 43.539062 25.171875 43.65625 C 24.886719 43.777344 24.617188 43.921875 24.359375 44.089844 C 24.105469 44.261719 23.867188 44.457031 23.648438 44.675781 C 23.429688 44.894531 23.234375 45.128906 23.0625 45.386719 C 22.894531 45.644531 22.746094 45.914062 22.628906 46.199219 C 22.511719 46.484375 22.421875 46.777344 22.363281 47.078125 C 22.300781 47.382812 22.273438 47.6875 22.273438 47.996094 C 22.273438 48.304688 22.300781 48.609375 22.363281 48.914062 C 22.421875 49.214844 22.511719 49.507812 22.628906 49.792969 C 22.746094 50.078125 22.894531 50.351562 23.0625 50.605469 C 23.234375 50.863281 23.429688 51.101562 23.648438 51.316406 C 23.867188 51.535156 24.105469 51.730469 24.359375 51.902344 C 24.617188 52.074219 24.886719 52.21875 25.171875 52.335938 C 25.457031 52.453125 25.753906 52.542969 26.054688 52.601562 C 26.359375 52.660156 26.664062 52.691406 26.972656 52.691406 L 43.425781 52.691406 L 43.425781 69.144531 C 43.425781 69.453125 43.457031 69.757812 43.515625 70.0625 C 43.578125 70.363281 43.667969 70.65625 43.785156 70.941406 C 43.902344 71.226562 44.046875 71.496094 44.21875 71.753906 C 44.390625 72.007812 44.582031 72.246094 44.800781 72.464844 C 45.019531 72.683594 45.257812 72.878906 45.511719 73.046875 C 45.769531 73.21875 46.039062 73.363281 46.324219 73.484375 C 46.609375 73.601562 46.902344 73.691406 47.207031 73.75 C 47.507812 73.808594 47.8125 73.839844 48.121094 73.839844 C 48.429688 73.839844 48.734375 73.808594 49.039062 73.75 C 49.339844 73.691406 49.632812 73.601562 49.917969 73.484375 C 50.203125 73.363281 50.472656 73.21875 50.730469 73.046875 C 50.988281 72.878906 51.222656 72.683594 51.441406 72.464844 C 51.660156 72.246094 51.855469 72.007812 52.027344 71.753906 C 52.195312 71.496094 52.339844 71.226562 52.460938 70.941406 C 52.578125 70.65625 52.667969 70.363281 52.726562 70.0625 C 52.785156 69.757812 52.816406 69.453125 52.816406 69.144531 L 52.816406 52.691406 L 69.273438 52.691406 C 69.582031 52.691406 69.886719 52.660156 70.191406 52.597656 C 70.492188 52.539062 70.785156 52.449219 71.070312 52.332031 C 71.355469 52.214844 71.625 52.070312 71.882812 51.898438 C 72.140625 51.726562 72.375 51.53125 72.59375 51.316406 C 72.8125 51.097656 73.007812 50.859375 73.179688 50.601562 C 73.347656 50.347656 73.492188 50.078125 73.613281 49.792969 C 73.730469 49.507812 73.820312 49.214844 73.878906 48.910156 C 73.9375 48.609375 73.96875 48.304688 73.96875 47.996094 C 73.96875 47.6875 73.9375 47.382812 73.878906 47.078125 C 73.820312 46.777344 73.730469 46.484375 73.613281 46.199219 C 73.492188 45.914062 73.347656 45.640625 73.179688 45.386719 C 73.007812 45.128906 72.8125 44.894531 72.59375 44.675781 C 72.375 44.457031 72.140625 44.261719 71.882812 44.089844 C 71.625 43.917969 71.355469 43.773438 71.070312 43.65625 C 70.785156 43.539062 70.492188 43.449219 70.191406 43.390625 C 69.886719 43.328125 69.582031 43.300781 69.273438 43.300781 Z M 69.273438 43.300781 " fill-opacity="1" fill-rule="nonzero"/></g></svg>