<svg xmlns="http://www.w3.org/2000/svg" xmlns:xlink="http://www.w3.org/1999/xlink" width="128" zoomAndPan="magnify" viewBox="0 0 96 95.999999" height="128" preserveAspectRatio="xMidYMid meet" version="1.0"><defs><clipPath id="6a92e4c1d8"><path d="M 22.046875 22 L 73.933594 22 L 73.933594 74 L 22.046875 74 Z M 22.046875 22 " clip-rule="nonzero"/></clipPath></defs><path fill="#00aaab" d="M 70.011719 0.0195312 L 25.988281 0.0195312 C 11.664062 0.0195312 0 11.664062 0 26.007812 L 0 69.992188 C 0 84.316406 11.664062 95.980469 25.988281 95.980469 L 70.011719 95.980469 C 84.335938 95.980469 96 84.316406 96 69.992188 L 96 26.007812 C 96 11.664062 84.335938 0.0195312 70.011719 0.0195312 Z M 70.011719 0.0195312 " fill-opacity="1" fill-rule="nonzero"/><g clip-path="url(#6a92e4c1d8)"><path fill="#aeefef" d="M 69.277344 43.300781 L 52.820312 43.300781 L 52.820312 26.84375 C 52.820312 26.535156 52.789062 26.230469 52.730469 25.929688 C 52.667969 25.625 52.578125 25.332031 52.460938 25.046875 C 52.34375 24.761719 52.199219 24.492188 52.027344 24.234375 C 51.855469 23.980469 51.660156 23.742188 51.445312 23.523438 C 51.226562 23.304688 50.988281 23.113281 50.730469 22.941406 C 50.476562 22.769531 50.207031 22.625 49.921875 22.507812 C 49.636719 22.390625 49.34375 22.300781 49.039062 22.238281 C 48.738281 22.179688 48.433594 22.148438 48.125 22.148438 C 47.816406 22.148438 47.511719 22.179688 47.207031 22.238281 C 46.90625 22.300781 46.613281 22.390625 46.328125 22.507812 C 46.042969 22.625 45.769531 22.769531 45.515625 22.941406 C 45.257812 23.113281 45.019531 23.304688 44.804688 23.523438 C 44.585938 23.742188 44.390625 23.980469 44.21875 24.234375 C 44.046875 24.492188 43.902344 24.761719 43.785156 25.046875 C 43.667969 25.332031 43.578125 25.625 43.519531 25.929688 C 43.457031 26.230469 43.429688 26.535156 43.429688 26.84375 L 43.429688 43.304688 L 26.972656 43.304688 C 26.664062 43.304688 26.359375 43.332031 26.054688 43.394531 C 25.753906 43.453125 25.457031 43.542969 25.171875 43.660156 C 24.886719 43.777344 24.617188 43.921875 24.359375 44.09375 C 24.105469 44.265625 23.867188 44.460938 23.648438 44.675781 C 23.429688 44.894531 23.234375 45.132812 23.0625 45.390625 C 22.894531 45.644531 22.746094 45.917969 22.628906 46.203125 C 22.511719 46.488281 22.421875 46.78125 22.363281 47.082031 C 22.300781 47.386719 22.273438 47.691406 22.273438 48 C 22.273438 48.308594 22.300781 48.613281 22.363281 48.914062 C 22.421875 49.21875 22.511719 49.511719 22.628906 49.796875 C 22.746094 50.082031 22.894531 50.351562 23.0625 50.609375 C 23.234375 50.867188 23.429688 51.101562 23.648438 51.320312 C 23.867188 51.539062 24.105469 51.734375 24.359375 51.90625 C 24.617188 52.078125 24.886719 52.222656 25.171875 52.339844 C 25.457031 52.457031 25.753906 52.546875 26.054688 52.605469 C 26.359375 52.664062 26.664062 52.695312 26.972656 52.695312 L 43.429688 52.695312 L 43.429688 69.148438 C 43.429688 69.457031 43.457031 69.761719 43.519531 70.066406 C 43.578125 70.367188 43.667969 70.660156 43.785156 70.945312 C 43.902344 71.230469 44.050781 71.503906 44.21875 71.757812 C 44.390625 72.015625 44.585938 72.253906 44.804688 72.46875 C 45.023438 72.6875 45.257812 72.882812 45.515625 73.054688 C 45.773438 73.226562 46.042969 73.371094 46.328125 73.488281 C 46.613281 73.605469 46.90625 73.695312 47.207031 73.753906 C 47.511719 73.816406 47.816406 73.84375 48.125 73.84375 C 48.433594 73.84375 48.738281 73.816406 49.039062 73.753906 C 49.34375 73.695312 49.636719 73.605469 49.921875 73.488281 C 50.207031 73.371094 50.476562 73.226562 50.734375 73.054688 C 50.988281 72.882812 51.226562 72.6875 51.445312 72.46875 C 51.664062 72.253906 51.855469 72.015625 52.027344 71.757812 C 52.199219 71.503906 52.34375 71.230469 52.460938 70.945312 C 52.582031 70.660156 52.667969 70.367188 52.730469 70.066406 C 52.789062 69.761719 52.820312 69.457031 52.820312 69.148438 L 52.820312 52.691406 L 69.277344 52.691406 C 69.585938 52.691406 69.890625 52.664062 70.195312 52.601562 C 70.496094 52.542969 70.789062 52.453125 71.074219 52.335938 C 71.359375 52.21875 71.632812 52.074219 71.886719 51.902344 C 72.144531 51.730469 72.382812 51.535156 72.597656 51.316406 C 72.816406 51.101562 73.011719 50.863281 73.183594 50.605469 C 73.355469 50.351562 73.5 50.078125 73.617188 49.792969 C 73.734375 49.507812 73.824219 49.214844 73.882812 48.914062 C 73.945312 48.609375 73.972656 48.304688 73.972656 47.996094 C 73.972656 47.6875 73.945312 47.382812 73.882812 47.082031 C 73.824219 46.777344 73.734375 46.484375 73.617188 46.199219 C 73.5 45.914062 73.355469 45.644531 73.183594 45.390625 C 73.011719 45.132812 72.816406 44.894531 72.597656 44.675781 C 72.382812 44.460938 72.144531 44.265625 71.886719 44.09375 C 71.632812 43.921875 71.359375 43.777344 71.074219 43.660156 C 70.789062 43.542969 70.496094 43.453125 70.195312 43.390625 C 69.890625 43.332031 69.585938 43.300781 69.277344 43.300781 Z M 69.277344 43.300781 " fill-opacity="1" fill-rule="nonzero"/></g></svg>