<svg xmlns="http://www.w3.org/2000/svg" xmlns:xlink="http://www.w3.org/1999/xlink" width="200" zoomAndPan="magnify" viewBox="0 0 150 149.999998" height="200" preserveAspectRatio="xMidYMid meet" version="1.0"><defs><clipPath id="b962af1663"><path d="M 29.371094 9.984375 L 120.871094 9.984375 L 120.871094 139.734375 L 29.371094 139.734375 Z M 29.371094 9.984375 " clip-rule="nonzero"/></clipPath></defs><g clip-path="url(#b962af1663)"><path fill="#000000" d="M 120.867188 67.941406 L 120.867188 72.636719 C 120.867188 96.207031 102.792969 115.644531 79.710938 117.929688 L 79.710938 130.492188 L 98.359375 130.492188 C 100.914062 130.492188 103 132.570312 103 135.113281 C 103 137.65625 100.914062 139.734375 98.359375 139.734375 L 51.882812 139.734375 C 49.324219 139.734375 47.238281 137.65625 47.238281 135.113281 C 47.238281 132.570312 49.324219 130.492188 51.882812 130.492188 L 70.398438 130.492188 L 70.398438 117.90625 C 47.394531 115.570312 29.371094 96.152344 29.371094 72.636719 L 29.371094 67.941406 C 29.371094 65.398438 31.460938 63.320312 34.015625 63.320312 C 36.570312 63.320312 38.65625 65.398438 38.65625 67.941406 L 38.65625 72.636719 C 38.65625 92.648438 55.011719 108.925781 75.121094 108.925781 C 95.230469 108.925781 111.582031 92.648438 111.582031 72.636719 L 111.582031 67.941406 C 111.582031 65.398438 113.667969 63.320312 116.222656 63.320312 C 118.78125 63.320312 120.867188 65.371094 120.867188 67.941406 Z M 75.121094 99.683594 C 89.671875 99.683594 101.488281 87.925781 101.488281 73.441406 L 101.488281 36.222656 C 101.488281 21.742188 89.671875 9.984375 75.121094 9.984375 C 60.566406 9.984375 48.75 21.742188 48.75 36.222656 L 48.75 73.441406 C 48.75 87.925781 60.566406 99.683594 75.121094 99.683594 Z M 75.121094 99.683594 " fill-opacity="1" fill-rule="nonzero"/></g></svg>