<svg xmlns="http://www.w3.org/2000/svg" xmlns:xlink="http://www.w3.org/1999/xlink" width="200" zoomAndPan="magnify" viewBox="0 0 150 149.999998" height="200" preserveAspectRatio="xMidYMid meet" version="1.0"><defs><clipPath id="8608fc4c06"><path d="M 16 26.847656 L 130 26.847656 L 130 122.847656 L 16 122.847656 Z M 16 26.847656 " clip-rule="nonzero"/></clipPath></defs><g clip-path="url(#8608fc4c06)"><path fill="#000000" d="M 67.0625 109.160156 C 63.253906 109.160156 60.148438 106.054688 60.148438 102.238281 C 60.148438 98.421875 63.253906 95.320312 67.0625 95.320312 C 70.875 95.320312 73.976562 98.421875 73.976562 102.238281 C 73.976562 106.054688 70.875 109.160156 67.0625 109.160156 Z M 67.0625 91.679688 C 61.238281 91.679688 56.496094 96.414062 56.496094 102.238281 C 56.496094 108.0625 61.238281 112.800781 67.0625 112.800781 C 72.890625 112.800781 77.628906 108.0625 77.628906 102.238281 C 77.628906 96.414062 72.890625 91.679688 67.0625 91.679688 Z M 64.703125 61.480469 C 59.355469 61.480469 55.007812 58.328125 55.007812 54.445312 C 55.007812 50.570312 59.355469 47.410156 64.703125 47.410156 C 70.046875 47.410156 74.398438 50.570312 74.398438 54.445312 C 74.398438 58.328125 70.046875 61.480469 64.703125 61.480469 Z M 64.703125 43.769531 C 57.339844 43.769531 51.351562 48.558594 51.351562 54.445312 C 51.351562 60.332031 57.339844 65.121094 64.703125 65.121094 C 72.0625 65.121094 78.050781 60.332031 78.050781 54.445312 C 78.050781 48.558594 72.0625 43.769531 64.703125 43.769531 Z M 110.917969 82.003906 C 107.109375 82.003906 104.003906 78.898438 104.003906 75.082031 C 104.003906 71.265625 107.109375 68.160156 110.917969 68.160156 C 114.730469 68.160156 117.832031 71.265625 117.832031 75.082031 C 117.832031 78.898438 114.730469 82.003906 110.917969 82.003906 Z M 110.917969 64.523438 C 105.09375 64.523438 100.351562 69.257812 100.351562 75.082031 C 100.351562 80.90625 105.09375 85.644531 110.917969 85.644531 C 116.746094 85.644531 121.484375 80.90625 121.484375 75.082031 C 121.484375 69.257812 116.746094 64.523438 110.917969 64.523438 Z M 95.4375 102.632812 C 91.625 102.632812 88.523438 99.53125 88.523438 95.714844 C 88.523438 91.898438 91.625 88.792969 95.4375 88.792969 C 99.25 88.792969 102.355469 91.898438 102.355469 95.714844 C 102.355469 99.53125 99.25 102.632812 95.4375 102.632812 Z M 95.4375 85.152344 C 89.609375 85.152344 84.871094 89.890625 84.871094 95.714844 C 84.871094 101.539062 89.609375 106.273438 95.4375 106.273438 C 101.265625 106.273438 106.007812 101.539062 106.007812 95.714844 C 106.007812 89.890625 101.265625 85.152344 95.4375 85.152344 Z M 91.566406 115.996094 C 84.644531 118.125 77.632812 119.207031 70.734375 119.207031 C 48.136719 119.207031 30.847656 107.777344 23.734375 96.445312 C 19.777344 90.140625 18.898438 84.007812 21.257812 79.167969 C 22.410156 76.808594 25.683594 76.335938 30.59375 76.335938 L 34.140625 76.355469 C 38.472656 76.355469 45.714844 76.355469 46.863281 69.617188 C 47.941406 63.261719 43.257812 60.105469 39.496094 57.566406 C 37.394531 56.148438 35.410156 54.808594 34.949219 53.300781 C 34.179688 50.773438 34.441406 48.363281 35.746094 45.933594 C 38.875 40.105469 47.535156 35.683594 52.257812 34.265625 C 60.609375 31.761719 68.660156 30.488281 76.175781 30.488281 C 103.070312 30.488281 119.792969 46.78125 123.949219 61.917969 C 130.945312 87.390625 118.839844 107.609375 91.566406 115.996094 Z M 127.476562 60.957031 C 122.964844 44.527344 104.988281 26.847656 76.175781 26.847656 C 68.300781 26.847656 59.898438 28.167969 51.207031 30.78125 C 46.480469 32.199219 36.492188 36.835938 32.527344 44.21875 C 30.765625 47.496094 30.40625 50.90625 31.453125 54.355469 C 32.289062 57.097656 34.914062 58.867188 37.449219 60.582031 C 41.492188 63.308594 43.898438 65.234375 43.257812 69.007812 C 42.78125 71.816406 40.570312 72.714844 34.140625 72.714844 L 30.59375 72.695312 C 26.765625 72.695312 20.355469 72.695312 17.972656 77.574219 C 15.042969 83.585938 15.988281 90.972656 20.640625 98.378906 C 28.285156 110.554688 46.742188 122.847656 70.734375 122.847656 C 78.003906 122.847656 85.371094 121.710938 92.644531 119.476562 C 121.59375 110.570312 134.941406 88.144531 127.476562 60.957031 Z M 42.019531 98.992188 C 38.210938 98.992188 35.109375 95.886719 35.109375 92.074219 C 35.109375 88.257812 38.210938 85.152344 42.019531 85.152344 C 45.835938 85.152344 48.9375 88.257812 48.9375 92.074219 C 48.9375 95.886719 45.835938 98.992188 42.019531 98.992188 Z M 42.019531 81.511719 C 36.195312 81.511719 31.453125 86.246094 31.453125 92.074219 C 31.453125 97.898438 36.195312 102.632812 42.019531 102.632812 C 47.851562 102.632812 52.589844 97.898438 52.589844 92.074219 C 52.589844 86.246094 47.851562 81.511719 42.019531 81.511719 " fill-opacity="1" fill-rule="nonzero"/></g></svg>