<svg xmlns="http://www.w3.org/2000/svg" xmlns:xlink="http://www.w3.org/1999/xlink" width="200" zoomAndPan="magnify" viewBox="0 0 150 149.999998" height="200" preserveAspectRatio="xMidYMid meet" version="1.0"><defs><clipPath id="b9418c40e6"><path d="M 16 26.847656 L 130 26.847656 L 130 122.847656 L 16 122.847656 Z M 16 26.847656 " clip-rule="nonzero"/></clipPath></defs><g clip-path="url(#b9418c40e6)"><path fill="#ffffff" d="M 67.0625 109.417969 C 63.253906 109.417969 60.148438 106.304688 60.148438 102.476562 C 60.148438 98.648438 63.253906 95.535156 67.0625 95.535156 C 70.875 95.535156 73.976562 98.648438 73.976562 102.476562 C 73.976562 106.304688 70.875 109.417969 67.0625 109.417969 Z M 67.0625 91.882812 C 61.238281 91.882812 56.496094 96.636719 56.496094 102.476562 C 56.496094 108.320312 61.238281 113.074219 67.0625 113.074219 C 72.890625 113.074219 77.628906 108.320312 77.628906 102.476562 C 77.628906 96.636719 72.890625 91.882812 67.0625 91.882812 Z M 64.703125 61.589844 C 59.355469 61.589844 55.007812 58.425781 55.007812 54.535156 C 55.007812 50.644531 59.355469 47.476562 64.703125 47.476562 C 70.046875 47.476562 74.398438 50.644531 74.398438 54.535156 C 74.398438 58.425781 70.046875 61.589844 64.703125 61.589844 Z M 64.703125 43.824219 C 57.339844 43.824219 51.351562 48.628906 51.351562 54.535156 C 51.351562 60.4375 57.339844 65.242188 64.703125 65.242188 C 72.0625 65.242188 78.050781 60.4375 78.050781 54.535156 C 78.050781 48.628906 72.0625 43.824219 64.703125 43.824219 Z M 110.917969 82.175781 C 107.109375 82.175781 104.003906 79.0625 104.003906 75.234375 C 104.003906 71.40625 107.109375 68.292969 110.917969 68.292969 C 114.730469 68.292969 117.832031 71.40625 117.832031 75.234375 C 117.832031 79.0625 114.730469 82.175781 110.917969 82.175781 Z M 110.917969 64.640625 C 105.09375 64.640625 100.351562 69.394531 100.351562 75.234375 C 100.351562 81.078125 105.09375 85.828125 110.917969 85.828125 C 116.746094 85.828125 121.484375 81.078125 121.484375 75.234375 C 121.484375 69.394531 116.746094 64.640625 110.917969 64.640625 Z M 95.4375 102.875 C 91.625 102.875 88.523438 99.761719 88.523438 95.933594 C 88.523438 92.105469 91.625 88.992188 95.4375 88.992188 C 99.25 88.992188 102.355469 92.105469 102.355469 95.933594 C 102.355469 99.761719 99.25 102.875 95.4375 102.875 Z M 95.4375 85.339844 C 89.609375 85.339844 84.871094 90.089844 84.871094 95.933594 C 84.871094 101.777344 89.609375 106.527344 95.4375 106.527344 C 101.265625 106.527344 106.007812 101.777344 106.007812 95.933594 C 106.007812 90.089844 101.265625 85.339844 95.4375 85.339844 Z M 91.566406 116.28125 C 84.644531 118.417969 77.632812 119.5 70.734375 119.5 C 48.136719 119.5 30.847656 108.03125 23.734375 96.667969 C 19.777344 90.34375 18.898438 84.1875 21.257812 79.335938 C 22.410156 76.96875 25.683594 76.492188 30.59375 76.492188 L 34.140625 76.511719 C 38.472656 76.511719 45.714844 76.511719 46.863281 69.753906 C 47.941406 63.378906 43.257812 60.210938 39.496094 57.664062 C 37.394531 56.238281 35.410156 54.894531 34.949219 53.382812 C 34.179688 50.851562 34.441406 48.433594 35.746094 45.996094 C 38.875 40.148438 47.535156 35.714844 52.257812 34.289062 C 60.609375 31.777344 68.660156 30.5 76.175781 30.5 C 103.070312 30.5 119.792969 46.84375 123.949219 62.027344 C 130.945312 87.582031 118.839844 107.863281 91.566406 116.28125 Z M 127.476562 61.066406 C 122.964844 44.582031 104.988281 26.847656 76.175781 26.847656 C 68.300781 26.847656 59.898438 28.171875 51.207031 30.792969 C 46.480469 32.21875 36.492188 36.867188 32.527344 44.273438 C 30.765625 47.5625 30.40625 50.980469 31.453125 54.441406 C 32.289062 57.191406 34.914062 58.96875 37.449219 60.6875 C 41.492188 63.425781 43.898438 65.359375 43.257812 69.144531 C 42.78125 71.957031 40.570312 72.859375 34.140625 72.859375 L 30.59375 72.839844 C 26.765625 72.839844 20.355469 72.839844 17.972656 77.734375 C 15.042969 83.765625 15.988281 91.175781 20.640625 98.605469 C 28.285156 110.820312 46.742188 123.152344 70.734375 123.152344 C 78.003906 123.152344 85.371094 122.011719 92.644531 119.769531 C 121.59375 110.835938 134.941406 88.339844 127.476562 61.066406 Z M 42.019531 99.222656 C 38.210938 99.222656 35.109375 96.109375 35.109375 92.28125 C 35.109375 88.453125 38.210938 85.339844 42.019531 85.339844 C 45.835938 85.339844 48.9375 88.453125 48.9375 92.28125 C 48.9375 96.109375 45.835938 99.222656 42.019531 99.222656 Z M 42.019531 81.683594 C 36.195312 81.683594 31.453125 86.4375 31.453125 92.28125 C 31.453125 98.121094 36.195312 102.875 42.019531 102.875 C 47.851562 102.875 52.589844 98.121094 52.589844 92.28125 C 52.589844 86.4375 47.851562 81.683594 42.019531 81.683594 " fill-opacity="1" fill-rule="nonzero"/></g></svg>