<svg xmlns="http://www.w3.org/2000/svg" xmlns:xlink="http://www.w3.org/1999/xlink" width="200" zoomAndPan="magnify" viewBox="0 0 150 149.999998" height="200" preserveAspectRatio="xMidYMid meet" version="1.0"><defs><clipPath id="d6b1ff1e8f"><path d="M 16.730469 51 L 132.980469 51 L 132.980469 108 L 16.730469 108 Z M 16.730469 51 " clip-rule="nonzero"/></clipPath><clipPath id="e786166b24"><path d="M 16.730469 17 L 132.980469 17 L 132.980469 132.980469 L 16.730469 132.980469 Z M 16.730469 17 " clip-rule="nonzero"/></clipPath></defs><g clip-path="url(#d6b1ff1e8f)"><path fill="#231f20" d="M 19.496094 107.570312 C 18.730469 107.582031 18.082031 107.304688 17.558594 106.742188 C 17.296875 106.480469 17.097656 106.179688 16.953125 105.839844 C 16.8125 105.5 16.742188 105.144531 16.742188 104.777344 C 16.742188 104.40625 16.8125 104.050781 16.953125 103.710938 C 17.097656 103.371094 17.296875 103.070312 17.558594 102.808594 L 51.605469 69.597656 C 51.863281 69.34375 52.160156 69.148438 52.496094 69.011719 C 52.832031 68.875 53.179688 68.804688 53.542969 68.804688 C 53.90625 68.804688 54.253906 68.875 54.589844 69.011719 C 54.925781 69.148438 55.222656 69.34375 55.480469 69.597656 L 68.597656 82.496094 L 100.984375 52.710938 C 101.242188 52.480469 101.535156 52.304688 101.859375 52.179688 C 102.183594 52.054688 102.519531 51.992188 102.867188 51.992188 C 103.210938 51.992188 103.546875 52.054688 103.871094 52.179688 C 104.199219 52.304688 104.488281 52.480469 104.746094 52.710938 L 131.761719 77.789062 C 132 78.042969 132.1875 78.335938 132.316406 78.660156 C 132.445312 78.988281 132.507812 79.328125 132.507812 79.675781 C 132.507812 80.027344 132.445312 80.367188 132.316406 80.691406 C 132.1875 81.019531 132.003906 81.308594 131.765625 81.566406 C 131.527344 81.824219 131.25 82.027344 130.933594 82.179688 C 130.617188 82.328125 130.285156 82.417969 129.933594 82.441406 C 129.585938 82.464844 129.242188 82.425781 128.90625 82.320312 C 128.574219 82.214844 128.269531 82.050781 127.996094 81.828125 L 103.03125 58.523438 L 70.59375 88.363281 C 70.332031 88.601562 70.035156 88.785156 69.707031 88.914062 C 69.378906 89.042969 69.035156 89.105469 68.683594 89.105469 C 68.328125 89.105469 67.988281 89.042969 67.65625 88.914062 C 67.328125 88.785156 67.03125 88.601562 66.773438 88.363281 L 53.707031 75.132812 L 21.601562 106.574219 C 21.054688 107.230469 20.351562 107.5625 19.496094 107.570312 Z M 19.496094 107.570312 " fill-opacity="1" fill-rule="nonzero"/></g><path fill="#231f20" d="M 47.175781 57.363281 C 46.386719 57.367188 45.601562 57.292969 44.828125 57.140625 C 44.050781 56.988281 43.296875 56.765625 42.566406 56.464844 C 41.835938 56.164062 41.140625 55.796875 40.480469 55.359375 C 39.824219 54.925781 39.214844 54.425781 38.652344 53.871094 C 38.09375 53.3125 37.59375 52.707031 37.152344 52.050781 C 36.710938 51.394531 36.335938 50.703125 36.035156 49.972656 C 35.730469 49.242188 35.5 48.492188 35.34375 47.714844 C 35.1875 46.941406 35.109375 46.160156 35.109375 45.367188 C 35.105469 44.578125 35.183594 43.796875 35.335938 43.019531 C 35.488281 42.246094 35.71875 41.492188 36.019531 40.761719 C 36.320312 40.03125 36.691406 39.335938 37.128906 38.679688 C 37.570312 38.023438 38.066406 37.414062 38.625 36.855469 C 39.1875 36.296875 39.792969 35.796875 40.449219 35.359375 C 41.109375 34.921875 41.800781 34.550781 42.53125 34.246094 C 43.261719 33.945312 44.015625 33.71875 44.792969 33.566406 C 45.566406 33.410156 46.347656 33.335938 47.140625 33.335938 C 47.929688 33.339844 48.710938 33.417969 49.488281 33.574219 C 50.261719 33.726562 51.015625 33.957031 51.742188 34.261719 C 52.472656 34.566406 53.164062 34.9375 53.820312 35.378906 C 54.476562 35.820312 55.085938 36.320312 55.640625 36.882812 C 56.199219 37.441406 56.695312 38.050781 57.132812 38.710938 C 57.570312 39.367188 57.9375 40.0625 58.238281 40.796875 C 58.535156 41.527344 58.761719 42.28125 58.914062 43.054688 C 59.0625 43.832031 59.136719 44.613281 59.132812 45.40625 C 59.128906 46.1875 59.050781 46.964844 58.894531 47.734375 C 58.738281 48.503906 58.511719 49.25 58.207031 49.972656 C 57.90625 50.695312 57.539062 51.382812 57.101562 52.035156 C 56.664062 52.6875 56.167969 53.289062 55.613281 53.84375 C 55.0625 54.398438 54.457031 54.894531 53.804688 55.328125 C 53.15625 55.765625 52.46875 56.136719 51.742188 56.4375 C 51.019531 56.738281 50.273438 56.96875 49.503906 57.125 C 48.738281 57.277344 47.960938 57.359375 47.175781 57.363281 Z M 47.175781 38.929688 C 46.75 38.925781 46.328125 38.960938 45.910156 39.042969 C 45.492188 39.121094 45.085938 39.242188 44.6875 39.402344 C 44.292969 39.5625 43.917969 39.757812 43.5625 39.992188 C 43.207031 40.226562 42.878906 40.492188 42.574219 40.792969 C 42.269531 41.089844 42 41.417969 41.761719 41.769531 C 41.519531 42.121094 41.320312 42.496094 41.152344 42.886719 C 40.988281 43.28125 40.863281 43.683594 40.777344 44.101562 C 40.691406 44.519531 40.648438 44.941406 40.644531 45.367188 C 40.640625 45.792969 40.679688 46.214844 40.761719 46.632812 C 40.84375 47.050781 40.964844 47.457031 41.125 47.851562 C 41.285156 48.246094 41.484375 48.621094 41.71875 48.976562 C 41.953125 49.332031 42.222656 49.664062 42.523438 49.964844 C 42.820312 50.265625 43.148438 50.539062 43.5 50.777344 C 43.855469 51.015625 44.226562 51.214844 44.621094 51.378906 C 45.015625 51.542969 45.417969 51.667969 45.835938 51.753906 C 46.253906 51.835938 46.675781 51.878906 47.101562 51.882812 C 47.527344 51.882812 47.949219 51.84375 48.367188 51.761719 C 48.785156 51.679688 49.191406 51.554688 49.585938 51.394531 C 49.980469 51.230469 50.355469 51.03125 50.710938 50.796875 C 51.0625 50.558594 51.390625 50.292969 51.695312 49.992188 C 51.996094 49.691406 52.265625 49.363281 52.503906 49.007812 C 52.738281 48.65625 52.941406 48.28125 53.101562 47.886719 C 53.265625 47.496094 53.390625 47.089844 53.472656 46.671875 C 53.554688 46.253906 53.597656 45.832031 53.597656 45.40625 C 53.597656 44.980469 53.558594 44.5625 53.476562 44.148438 C 53.394531 43.734375 53.269531 43.332031 53.109375 42.9375 C 52.949219 42.546875 52.75 42.175781 52.519531 41.824219 C 52.285156 41.472656 52.019531 41.144531 51.71875 40.84375 C 51.421875 40.542969 51.097656 40.277344 50.746094 40.039062 C 50.398438 39.800781 50.027344 39.601562 49.636719 39.4375 C 49.25 39.273438 48.847656 39.148438 48.433594 39.0625 C 48.019531 38.976562 47.597656 38.933594 47.175781 38.929688 Z M 47.175781 38.929688 " fill-opacity="1" fill-rule="nonzero"/><g clip-path="url(#e786166b24)"><path fill="#231f20" d="M 113.605469 133.089844 L 36.105469 133.089844 C 35.476562 133.085938 34.851562 133.050781 34.226562 132.984375 C 33.601562 132.917969 32.984375 132.820312 32.367188 132.695312 C 31.753906 132.566406 31.148438 132.414062 30.546875 132.226562 C 29.949219 132.042969 29.359375 131.828125 28.78125 131.585938 C 28.199219 131.34375 27.636719 131.070312 27.082031 130.773438 C 26.53125 130.476562 25.992188 130.152344 25.472656 129.804688 C 24.949219 129.453125 24.449219 129.078125 23.964844 128.679688 C 23.476562 128.28125 23.015625 127.859375 22.570312 127.417969 C 22.125 126.972656 21.703125 126.507812 21.304688 126.023438 C 20.90625 125.539062 20.535156 125.035156 20.183594 124.515625 C 19.832031 123.992188 19.511719 123.457031 19.210938 122.902344 C 18.914062 122.351562 18.644531 121.785156 18.402344 121.207031 C 18.160156 120.628906 17.945312 120.039062 17.761719 119.4375 C 17.574219 118.839844 17.417969 118.234375 17.292969 117.617188 C 17.164062 117.003906 17.070312 116.382812 17.003906 115.757812 C 16.9375 115.136719 16.902344 114.507812 16.894531 113.882812 L 16.894531 36.382812 C 16.902344 35.753906 16.9375 35.128906 17.003906 34.503906 C 17.070312 33.878906 17.164062 33.261719 17.292969 32.644531 C 17.417969 32.03125 17.574219 31.421875 17.761719 30.824219 C 17.945312 30.222656 18.160156 29.636719 18.402344 29.054688 C 18.644531 28.476562 18.914062 27.910156 19.210938 27.359375 C 19.511719 26.804688 19.832031 26.269531 20.183594 25.75 C 20.535156 25.226562 20.90625 24.722656 21.304688 24.238281 C 21.703125 23.753906 22.125 23.289062 22.570312 22.847656 C 23.015625 22.402344 23.476562 21.980469 23.964844 21.582031 C 24.449219 21.183594 24.949219 20.808594 25.472656 20.460938 C 25.992188 20.109375 26.53125 19.785156 27.082031 19.488281 C 27.636719 19.191406 28.199219 18.921875 28.78125 18.679688 C 29.359375 18.4375 29.949219 18.222656 30.546875 18.035156 C 31.148438 17.851562 31.753906 17.695312 32.367188 17.570312 C 32.984375 17.441406 33.601562 17.347656 34.226562 17.28125 C 34.851562 17.214844 35.476562 17.179688 36.105469 17.171875 L 113.605469 17.171875 C 114.238281 17.171875 114.871094 17.203125 115.503906 17.265625 C 116.136719 17.328125 116.761719 17.421875 117.382812 17.546875 C 118.007812 17.667969 118.621094 17.824219 119.230469 18.007812 C 119.835938 18.191406 120.433594 18.40625 121.019531 18.648438 C 121.605469 18.890625 122.179688 19.160156 122.738281 19.460938 C 123.296875 19.757812 123.839844 20.085938 124.367188 20.4375 C 124.898438 20.789062 125.40625 21.167969 125.894531 21.570312 C 126.386719 21.972656 126.855469 22.398438 127.304688 22.847656 C 127.753906 23.296875 128.179688 23.765625 128.582031 24.257812 C 128.984375 24.746094 129.363281 25.257812 129.714844 25.785156 C 130.066406 26.3125 130.394531 26.855469 130.691406 27.414062 C 130.992188 27.972656 131.261719 28.546875 131.503906 29.132812 C 131.746094 29.71875 131.960938 30.316406 132.144531 30.921875 C 132.328125 31.53125 132.484375 32.144531 132.609375 32.769531 C 132.730469 33.390625 132.824219 34.015625 132.886719 34.648438 C 132.949219 35.28125 132.980469 35.914062 132.980469 36.546875 L 132.980469 113.882812 C 132.972656 114.511719 132.9375 115.140625 132.871094 115.769531 C 132.804688 116.398438 132.707031 117.019531 132.578125 117.636719 C 132.453125 118.257812 132.292969 118.867188 132.105469 119.46875 C 131.917969 120.070312 131.703125 120.664062 131.457031 121.246094 C 131.210938 121.828125 130.9375 122.394531 130.636719 122.949219 C 130.335938 123.503906 130.011719 124.042969 129.65625 124.566406 C 129.304688 125.089844 128.925781 125.59375 128.523438 126.078125 C 128.121094 126.566406 127.695312 127.03125 127.246094 127.476562 C 126.796875 127.917969 126.328125 128.339844 125.839844 128.738281 C 125.351562 129.136719 124.84375 129.511719 124.316406 129.859375 C 123.792969 130.210938 123.25 130.53125 122.691406 130.828125 C 122.136719 131.125 121.566406 131.390625 120.980469 131.632812 C 120.398438 131.871094 119.804688 132.082031 119.199219 132.265625 C 118.59375 132.449219 117.984375 132.601562 117.363281 132.722656 C 116.746094 132.84375 116.121094 132.9375 115.492188 133 C 114.867188 133.058594 114.234375 133.089844 113.605469 133.089844 Z M 36.105469 22.707031 C 35.195312 22.707031 34.296875 22.796875 33.40625 22.972656 C 32.515625 23.152344 31.648438 23.414062 30.808594 23.761719 C 29.96875 24.109375 29.171875 24.535156 28.417969 25.039062 C 27.660156 25.546875 26.960938 26.121094 26.320312 26.761719 C 25.675781 27.40625 25.101562 28.101562 24.597656 28.859375 C 24.09375 29.613281 23.667969 30.414062 23.320312 31.25 C 22.972656 32.089844 22.707031 32.957031 22.53125 33.847656 C 22.355469 34.738281 22.265625 35.640625 22.265625 36.546875 L 22.265625 113.882812 C 22.265625 114.789062 22.355469 115.691406 22.53125 116.582031 C 22.707031 117.472656 22.972656 118.339844 23.320312 119.175781 C 23.667969 120.015625 24.09375 120.816406 24.597656 121.570312 C 25.101562 122.324219 25.675781 123.023438 26.320312 123.667969 C 26.960938 124.308594 27.660156 124.882812 28.417969 125.386719 C 29.171875 125.894531 29.96875 126.320312 30.808594 126.667969 C 31.648438 127.015625 32.515625 127.277344 33.40625 127.453125 C 34.296875 127.632812 35.195312 127.722656 36.105469 127.722656 L 113.605469 127.722656 C 114.511719 127.722656 115.414062 127.632812 116.304688 127.453125 C 117.195312 127.277344 118.0625 127.015625 118.902344 126.667969 C 119.742188 126.320312 120.539062 125.894531 121.292969 125.386719 C 122.050781 124.882812 122.75 124.308594 123.390625 123.667969 C 124.035156 123.023438 124.605469 122.324219 125.113281 121.570312 C 125.617188 120.816406 126.042969 120.015625 126.390625 119.175781 C 126.738281 118.339844 127 117.472656 127.179688 116.582031 C 127.355469 115.691406 127.445312 114.789062 127.445312 113.882812 L 127.445312 36.382812 C 127.445312 35.472656 127.355469 34.574219 127.179688 33.683594 C 127 32.789062 126.738281 31.925781 126.390625 31.085938 C 126.042969 30.246094 125.617188 29.449219 125.113281 28.691406 C 124.605469 27.9375 124.035156 27.238281 123.390625 26.597656 C 122.75 25.953125 122.050781 25.378906 121.292969 24.875 C 120.539062 24.371094 119.742188 23.945312 118.902344 23.597656 C 118.0625 23.25 117.195312 22.984375 116.304688 22.808594 C 115.414062 22.632812 114.511719 22.542969 113.605469 22.542969 Z M 36.105469 22.707031 " fill-opacity="1" fill-rule="nonzero"/></g></svg>