<svg xmlns="http://www.w3.org/2000/svg" xmlns:xlink="http://www.w3.org/1999/xlink" width="200" zoomAndPan="magnify" viewBox="0 0 150 149.999998" height="200" preserveAspectRatio="xMidYMid meet" version="1.0"><defs><clipPath id="7813af52ff"><path d="M 15 17 L 135 17 L 135 136.730469 L 15 136.730469 Z M 15 17 " clip-rule="nonzero"/></clipPath></defs><path fill="#ffffff" d="M 17.855469 110.5 C 17.0625 110.511719 16.398438 110.226562 15.855469 109.644531 C 15.585938 109.375 15.378906 109.066406 15.230469 108.714844 C 15.085938 108.363281 15.011719 107.996094 15.011719 107.617188 C 15.011719 107.234375 15.085938 106.867188 15.230469 106.515625 C 15.378906 106.164062 15.585938 105.855469 15.855469 105.585938 L 51 71.300781 C 51.265625 71.039062 51.574219 70.839844 51.917969 70.695312 C 52.265625 70.554688 52.625 70.484375 53 70.484375 C 53.375 70.484375 53.734375 70.554688 54.082031 70.695312 C 54.425781 70.839844 54.734375 71.039062 55 71.300781 L 68.542969 84.617188 L 101.972656 53.871094 C 102.238281 53.632812 102.539062 53.449219 102.875 53.324219 C 103.210938 53.195312 103.554688 53.128906 103.914062 53.128906 C 104.273438 53.128906 104.621094 53.195312 104.953125 53.324219 C 105.289062 53.449219 105.589844 53.632812 105.855469 53.871094 L 133.742188 79.757812 C 133.988281 80.023438 134.179688 80.324219 134.3125 80.660156 C 134.445312 80.996094 134.511719 81.34375 134.515625 81.707031 C 134.515625 82.070312 134.449219 82.417969 134.316406 82.753906 C 134.183594 83.09375 133.992188 83.394531 133.746094 83.65625 C 133.5 83.921875 133.214844 84.132812 132.886719 84.289062 C 132.5625 84.445312 132.21875 84.535156 131.855469 84.5625 C 131.496094 84.585938 131.140625 84.542969 130.796875 84.433594 C 130.453125 84.328125 130.136719 84.15625 129.855469 83.929688 L 104.085938 59.871094 L 70.601562 90.671875 C 70.332031 90.917969 70.027344 91.109375 69.6875 91.242188 C 69.347656 91.375 68.992188 91.441406 68.628906 91.441406 C 68.261719 91.441406 67.910156 91.375 67.570312 91.242188 C 67.230469 91.109375 66.925781 90.917969 66.65625 90.671875 L 53.171875 77.015625 L 20.027344 109.472656 C 19.464844 110.152344 18.738281 110.492188 17.855469 110.5 Z M 17.855469 110.5 " fill-opacity="1" fill-rule="nonzero"/><path fill="#ffffff" d="M 46.429688 58.671875 C 45.613281 58.675781 44.804688 58.601562 44.003906 58.445312 C 43.203125 58.289062 42.425781 58.054688 41.671875 57.746094 C 40.914062 57.4375 40.199219 57.058594 39.519531 56.605469 C 38.839844 56.15625 38.207031 55.644531 37.628906 55.066406 C 37.050781 54.492188 36.535156 53.867188 36.078125 53.191406 C 35.625 52.511719 35.242188 51.796875 34.925781 51.042969 C 34.613281 50.292969 34.375 49.515625 34.214844 48.714844 C 34.054688 47.914062 33.972656 47.109375 33.972656 46.292969 C 33.96875 45.476562 34.046875 44.667969 34.207031 43.867188 C 34.367188 43.066406 34.601562 42.289062 34.910156 41.535156 C 35.222656 40.78125 35.605469 40.066406 36.058594 39.386719 C 36.511719 38.710938 37.027344 38.082031 37.601562 37.503906 C 38.179688 36.929688 38.808594 36.414062 39.488281 35.960938 C 40.164062 35.507812 40.882812 35.125 41.636719 34.8125 C 42.390625 34.5 43.167969 34.265625 43.964844 34.109375 C 44.765625 33.949219 45.574219 33.871094 46.390625 33.871094 C 47.207031 33.875 48.015625 33.957031 48.8125 34.117188 C 49.613281 34.277344 50.390625 34.515625 51.144531 34.828125 C 51.894531 35.140625 52.609375 35.527344 53.289062 35.980469 C 53.964844 36.4375 54.589844 36.953125 55.167969 37.53125 C 55.742188 38.109375 56.253906 38.738281 56.707031 39.417969 C 57.15625 40.097656 57.535156 40.816406 57.847656 41.570312 C 58.15625 42.328125 58.386719 43.105469 58.542969 43.90625 C 58.699219 44.707031 58.773438 45.515625 58.769531 46.328125 C 58.769531 47.140625 58.683594 47.941406 58.523438 48.734375 C 58.363281 49.527344 58.128906 50.296875 57.816406 51.042969 C 57.503906 51.792969 57.125 52.5 56.675781 53.171875 C 56.222656 53.847656 55.710938 54.46875 55.140625 55.039062 C 54.566406 55.613281 53.945312 56.125 53.273438 56.574219 C 52.601562 57.027344 51.890625 57.40625 51.144531 57.71875 C 50.394531 58.03125 49.625 58.265625 48.832031 58.425781 C 48.039062 58.585938 47.238281 58.667969 46.429688 58.671875 Z M 46.429688 39.644531 C 45.988281 39.640625 45.554688 39.679688 45.121094 39.761719 C 44.6875 39.84375 44.269531 39.96875 43.863281 40.132812 C 43.453125 40.296875 43.066406 40.5 42.699219 40.742188 C 42.332031 40.984375 41.992188 41.261719 41.675781 41.570312 C 41.363281 41.878906 41.085938 42.214844 40.835938 42.578125 C 40.589844 42.941406 40.382812 43.328125 40.210938 43.730469 C 40.039062 44.136719 39.910156 44.554688 39.820312 44.984375 C 39.734375 45.417969 39.6875 45.851562 39.6875 46.292969 C 39.683594 46.730469 39.722656 47.167969 39.808594 47.597656 C 39.890625 48.03125 40.015625 48.449219 40.183594 48.855469 C 40.347656 49.265625 40.550781 49.652344 40.796875 50.019531 C 41.039062 50.386719 41.3125 50.722656 41.625 51.035156 C 41.933594 51.347656 42.269531 51.628906 42.636719 51.875 C 43 52.121094 43.386719 52.328125 43.789062 52.496094 C 44.195312 52.667969 44.613281 52.796875 45.046875 52.882812 C 45.476562 52.96875 45.914062 53.015625 46.351562 53.015625 C 46.792969 53.015625 47.226562 52.976562 47.660156 52.890625 C 48.089844 52.804688 48.511719 52.679688 48.917969 52.511719 C 49.324219 52.34375 49.710938 52.140625 50.074219 51.894531 C 50.441406 51.652344 50.78125 51.375 51.09375 51.0625 C 51.402344 50.753906 51.679688 50.414062 51.925781 50.050781 C 52.171875 49.683594 52.378906 49.300781 52.546875 48.894531 C 52.714844 48.488281 52.84375 48.066406 52.929688 47.636719 C 53.015625 47.207031 53.058594 46.769531 53.058594 46.328125 C 53.058594 45.894531 53.015625 45.460938 52.929688 45.03125 C 52.84375 44.605469 52.71875 44.1875 52.554688 43.785156 C 52.386719 43.378906 52.183594 42.996094 51.941406 42.632812 C 51.699219 42.269531 51.425781 41.933594 51.121094 41.621094 C 50.8125 41.3125 50.476562 41.035156 50.117188 40.789062 C 49.753906 40.546875 49.371094 40.339844 48.96875 40.167969 C 48.566406 40 48.152344 39.871094 47.726562 39.78125 C 47.296875 39.695312 46.863281 39.648438 46.429688 39.644531 Z M 46.429688 39.644531 " fill-opacity="1" fill-rule="nonzero"/><g clip-path="url(#7813af52ff)"><path fill="#ffffff" d="M 115 136.84375 L 35 136.84375 C 34.351562 136.839844 33.707031 136.800781 33.0625 136.734375 C 32.417969 136.664062 31.777344 136.566406 31.144531 136.433594 C 30.507812 136.304688 29.882812 136.144531 29.261719 135.953125 C 28.644531 135.761719 28.035156 135.539062 27.4375 135.289062 C 26.839844 135.039062 26.257812 134.761719 25.6875 134.453125 C 25.117188 134.144531 24.5625 133.8125 24.023438 133.449219 C 23.484375 133.089844 22.964844 132.703125 22.464844 132.292969 C 21.964844 131.878906 21.488281 131.445312 21.027344 130.988281 C 20.570312 130.527344 20.136719 130.050781 19.722656 129.550781 C 19.3125 129.050781 18.925781 128.53125 18.566406 127.992188 C 18.203125 127.453125 17.871094 126.898438 17.5625 126.328125 C 17.253906 125.757812 16.976562 125.175781 16.726562 124.578125 C 16.476562 123.980469 16.253906 123.371094 16.0625 122.753906 C 15.871094 122.132812 15.710938 121.507812 15.582031 120.871094 C 15.449219 120.238281 15.351562 119.597656 15.28125 118.953125 C 15.214844 118.308594 15.175781 117.664062 15.171875 117.015625 L 15.171875 37.015625 C 15.175781 36.367188 15.214844 35.722656 15.28125 35.078125 C 15.351562 34.433594 15.449219 33.792969 15.582031 33.160156 C 15.710938 32.523438 15.871094 31.898438 16.0625 31.277344 C 16.253906 30.660156 16.476562 30.050781 16.726562 29.453125 C 16.976562 28.855469 17.253906 28.273438 17.5625 27.703125 C 17.871094 27.132812 18.203125 26.578125 18.566406 26.039062 C 18.925781 25.5 19.3125 24.980469 19.722656 24.480469 C 20.136719 23.980469 20.570312 23.503906 21.027344 23.042969 C 21.488281 22.585938 21.964844 22.152344 22.464844 21.738281 C 22.964844 21.328125 23.484375 20.941406 24.023438 20.582031 C 24.5625 20.21875 25.117188 19.886719 25.6875 19.578125 C 26.257812 19.269531 26.839844 18.992188 27.4375 18.742188 C 28.035156 18.492188 28.644531 18.269531 29.261719 18.078125 C 29.882812 17.886719 30.507812 17.726562 31.144531 17.597656 C 31.777344 17.464844 32.417969 17.367188 33.0625 17.296875 C 33.707031 17.230469 34.351562 17.191406 35 17.1875 L 115 17.1875 C 115.65625 17.1875 116.308594 17.21875 116.960938 17.285156 C 117.613281 17.347656 118.257812 17.445312 118.902344 17.570312 C 119.542969 17.699219 120.179688 17.859375 120.804688 18.046875 C 121.433594 18.238281 122.046875 18.457031 122.652344 18.710938 C 123.257812 18.960938 123.851562 19.238281 124.429688 19.546875 C 125.003906 19.855469 125.566406 20.195312 126.113281 20.558594 C 126.65625 20.921875 127.179688 21.3125 127.6875 21.726562 C 128.195312 22.140625 128.679688 22.582031 129.140625 23.042969 C 129.605469 23.507812 130.042969 23.992188 130.460938 24.5 C 130.875 25.003906 131.265625 25.53125 131.628906 26.074219 C 131.992188 26.621094 132.328125 27.179688 132.636719 27.757812 C 132.945312 28.335938 133.226562 28.929688 133.476562 29.535156 C 133.726562 30.136719 133.949219 30.753906 134.140625 31.382812 C 134.328125 32.007812 134.488281 32.644531 134.617188 33.285156 C 134.742188 33.925781 134.839844 34.574219 134.902344 35.226562 C 134.96875 35.878906 135 36.53125 135 37.1875 L 135 117.015625 C 134.996094 117.667969 134.957031 118.316406 134.886719 118.964844 C 134.820312 119.613281 134.71875 120.253906 134.585938 120.894531 C 134.453125 121.53125 134.292969 122.160156 134.097656 122.78125 C 133.90625 123.40625 133.683594 124.015625 133.429688 124.617188 C 133.175781 125.21875 132.894531 125.804688 132.582031 126.375 C 132.273438 126.949219 131.933594 127.503906 131.570312 128.042969 C 131.207031 128.585938 130.816406 129.105469 130.398438 129.605469 C 129.984375 130.109375 129.542969 130.589844 129.082031 131.046875 C 128.621094 131.503906 128.136719 131.941406 127.628906 132.351562 C 127.125 132.761719 126.601562 133.148438 126.058594 133.507812 C 125.515625 133.871094 124.957031 134.203125 124.382812 134.507812 C 123.804688 134.8125 123.214844 135.089844 122.613281 135.339844 C 122.011719 135.585938 121.398438 135.804688 120.773438 135.992188 C 120.152344 136.179688 119.519531 136.335938 118.882812 136.464844 C 118.242188 136.589844 117.597656 136.683594 116.949219 136.75 C 116.300781 136.8125 115.652344 136.84375 115 136.84375 Z M 35 22.902344 C 34.0625 22.902344 33.132812 22.992188 32.214844 23.175781 C 31.292969 23.359375 30.398438 23.628906 29.53125 23.988281 C 28.667969 24.347656 27.84375 24.789062 27.0625 25.308594 C 26.285156 25.828125 25.5625 26.421875 24.898438 27.085938 C 24.234375 27.75 23.644531 28.46875 23.121094 29.25 C 22.601562 30.03125 22.160156 30.851562 21.800781 31.71875 C 21.441406 32.585938 21.171875 33.480469 20.988281 34.398438 C 20.804688 35.320312 20.714844 36.25 20.714844 37.1875 L 20.714844 117.015625 C 20.714844 117.953125 20.804688 118.882812 20.988281 119.800781 C 21.171875 120.722656 21.441406 121.617188 21.800781 122.484375 C 22.160156 123.347656 22.601562 124.171875 23.121094 124.953125 C 23.644531 125.730469 24.234375 126.453125 24.898438 127.117188 C 25.5625 127.78125 26.285156 128.371094 27.0625 128.894531 C 27.84375 129.414062 28.667969 129.855469 29.53125 130.214844 C 30.398438 130.574219 31.292969 130.84375 32.214844 131.027344 C 33.132812 131.210938 34.0625 131.300781 35 131.300781 L 115 131.300781 C 115.9375 131.300781 116.867188 131.210938 117.785156 131.027344 C 118.707031 130.84375 119.601562 130.574219 120.46875 130.214844 C 121.332031 129.855469 122.15625 129.414062 122.9375 128.894531 C 123.714844 128.371094 124.4375 127.78125 125.101562 127.117188 C 125.765625 126.453125 126.355469 125.730469 126.878906 124.953125 C 127.398438 124.171875 127.839844 123.347656 128.199219 122.484375 C 128.558594 121.617188 128.828125 120.722656 129.011719 119.800781 C 129.195312 118.882812 129.285156 117.953125 129.285156 117.015625 L 129.285156 37.015625 C 129.285156 36.078125 129.195312 35.148438 129.011719 34.230469 C 128.828125 33.308594 128.558594 32.414062 128.199219 31.546875 C 127.839844 30.683594 127.398438 29.859375 126.878906 29.078125 C 126.355469 28.300781 125.765625 27.578125 125.101562 26.914062 C 124.4375 26.25 123.714844 25.660156 122.9375 25.136719 C 122.15625 24.617188 121.332031 24.175781 120.46875 23.816406 C 119.601562 23.457031 118.707031 23.1875 117.785156 23.003906 C 116.867188 22.820312 115.9375 22.730469 115 22.730469 Z M 35 22.902344 " fill-opacity="1" fill-rule="nonzero"/></g></svg>