<svg xmlns="http://www.w3.org/2000/svg" xmlns:xlink="http://www.w3.org/1999/xlink" width="200" zoomAndPan="magnify" viewBox="0 0 150 149.999998" height="200" preserveAspectRatio="xMidYMid meet" version="1.0"><defs><clipPath id="779f545911"><path d="M 15 15 L 135 15 L 135 135 L 15 135 Z M 15 15 " clip-rule="nonzero"/></clipPath></defs><path fill="#231f20" d="M 17.855469 108.769531 C 17.0625 108.78125 16.398438 108.496094 15.855469 107.914062 C 15.585938 107.644531 15.378906 107.335938 15.230469 106.984375 C 15.085938 106.632812 15.011719 106.265625 15.011719 105.886719 C 15.011719 105.503906 15.085938 105.136719 15.230469 104.785156 C 15.378906 104.433594 15.585938 104.125 15.855469 103.855469 L 51 69.570312 C 51.265625 69.308594 51.574219 69.109375 51.917969 68.964844 C 52.265625 68.824219 52.625 68.753906 53 68.753906 C 53.375 68.753906 53.734375 68.824219 54.082031 68.964844 C 54.425781 69.109375 54.734375 69.308594 55 69.570312 L 68.542969 82.886719 L 101.972656 52.144531 C 102.238281 51.902344 102.539062 51.71875 102.875 51.59375 C 103.210938 51.464844 103.554688 51.402344 103.914062 51.402344 C 104.273438 51.402344 104.621094 51.464844 104.953125 51.59375 C 105.289062 51.71875 105.589844 51.902344 105.855469 52.144531 L 133.742188 78.027344 C 133.988281 78.292969 134.179688 78.59375 134.3125 78.929688 C 134.445312 79.265625 134.511719 79.617188 134.515625 79.976562 C 134.515625 80.339844 134.449219 80.6875 134.316406 81.027344 C 134.183594 81.363281 133.992188 81.664062 133.746094 81.929688 C 133.5 82.191406 133.214844 82.402344 132.886719 82.558594 C 132.5625 82.714844 132.21875 82.804688 131.855469 82.832031 C 131.496094 82.855469 131.140625 82.8125 130.796875 82.707031 C 130.453125 82.597656 130.136719 82.429688 129.855469 82.199219 L 104.085938 58.144531 L 70.601562 88.941406 C 70.332031 89.191406 70.027344 89.378906 69.6875 89.511719 C 69.347656 89.644531 68.992188 89.710938 68.628906 89.710938 C 68.261719 89.710938 67.910156 89.644531 67.570312 89.511719 C 67.230469 89.378906 66.925781 89.191406 66.65625 88.941406 L 53.171875 75.285156 L 20.027344 107.742188 C 19.464844 108.421875 18.738281 108.765625 17.855469 108.769531 Z M 17.855469 108.769531 " fill-opacity="1" fill-rule="nonzero"/><path fill="#231f20" d="M 46.429688 56.941406 C 45.613281 56.945312 44.804688 56.871094 44.003906 56.714844 C 43.203125 56.558594 42.425781 56.328125 41.671875 56.015625 C 40.914062 55.707031 40.199219 55.328125 39.519531 54.875 C 38.839844 54.425781 38.207031 53.914062 37.628906 53.339844 C 37.050781 52.761719 36.535156 52.136719 36.078125 51.460938 C 35.625 50.78125 35.242188 50.066406 34.925781 49.316406 C 34.613281 48.5625 34.375 47.785156 34.214844 46.984375 C 34.054688 46.1875 33.972656 45.378906 33.972656 44.5625 C 33.96875 43.746094 34.046875 42.9375 34.207031 42.136719 C 34.367188 41.335938 34.601562 40.558594 34.910156 39.804688 C 35.222656 39.050781 35.605469 38.335938 36.058594 37.65625 C 36.511719 36.980469 37.027344 36.351562 37.601562 35.773438 C 38.179688 35.199219 38.808594 34.683594 39.488281 34.230469 C 40.164062 33.777344 40.882812 33.394531 41.636719 33.082031 C 42.390625 32.773438 43.167969 32.535156 43.964844 32.378906 C 44.765625 32.21875 45.574219 32.140625 46.390625 32.144531 C 47.207031 32.144531 48.015625 32.226562 48.8125 32.386719 C 49.613281 32.546875 50.390625 32.785156 51.144531 33.097656 C 51.894531 33.410156 52.609375 33.796875 53.289062 34.25 C 53.964844 34.707031 54.589844 35.222656 55.167969 35.800781 C 55.742188 36.378906 56.253906 37.007812 56.707031 37.691406 C 57.15625 38.371094 57.535156 39.085938 57.847656 39.839844 C 58.15625 40.597656 58.386719 41.375 58.542969 42.175781 C 58.699219 42.976562 58.773438 43.785156 58.769531 44.601562 C 58.769531 45.410156 58.683594 46.210938 58.523438 47.003906 C 58.363281 47.796875 58.128906 48.566406 57.816406 49.316406 C 57.503906 50.0625 57.125 50.769531 56.675781 51.445312 C 56.222656 52.117188 55.710938 52.738281 55.140625 53.3125 C 54.566406 53.882812 53.945312 54.394531 53.273438 54.84375 C 52.601562 55.296875 51.890625 55.675781 51.144531 55.988281 C 50.394531 56.300781 49.625 56.535156 48.832031 56.695312 C 48.039062 56.855469 47.238281 56.9375 46.429688 56.941406 Z M 46.429688 37.914062 C 45.988281 37.910156 45.554688 37.949219 45.121094 38.03125 C 44.6875 38.113281 44.269531 38.238281 43.863281 38.402344 C 43.453125 38.566406 43.066406 38.773438 42.699219 39.011719 C 42.332031 39.253906 41.992188 39.53125 41.675781 39.839844 C 41.363281 40.148438 41.085938 40.484375 40.835938 40.847656 C 40.589844 41.210938 40.382812 41.597656 40.210938 42 C 40.039062 42.40625 39.910156 42.824219 39.820312 43.253906 C 39.734375 43.6875 39.6875 44.121094 39.6875 44.5625 C 39.683594 45 39.722656 45.4375 39.808594 45.867188 C 39.890625 46.300781 40.015625 46.71875 40.183594 47.128906 C 40.347656 47.535156 40.550781 47.921875 40.796875 48.289062 C 41.039062 48.65625 41.3125 48.996094 41.625 49.308594 C 41.933594 49.621094 42.269531 49.898438 42.636719 50.144531 C 43 50.390625 43.386719 50.597656 43.789062 50.765625 C 44.195312 50.9375 44.613281 51.066406 45.046875 51.152344 C 45.476562 51.238281 45.914062 51.285156 46.351562 51.285156 C 46.792969 51.285156 47.226562 51.246094 47.660156 51.160156 C 48.089844 51.074219 48.511719 50.949219 48.917969 50.78125 C 49.324219 50.613281 49.710938 50.410156 50.074219 50.164062 C 50.441406 49.921875 50.78125 49.644531 51.09375 49.335938 C 51.402344 49.023438 51.679688 48.6875 51.925781 48.320312 C 52.171875 47.953125 52.378906 47.570312 52.546875 47.164062 C 52.714844 46.757812 52.84375 46.339844 52.929688 45.90625 C 53.015625 45.476562 53.058594 45.039062 53.058594 44.601562 C 53.058594 44.164062 53.015625 43.730469 52.929688 43.300781 C 52.84375 42.875 52.71875 42.457031 52.554688 42.054688 C 52.386719 41.652344 52.183594 41.265625 51.941406 40.902344 C 51.699219 40.539062 51.425781 40.203125 51.121094 39.890625 C 50.8125 39.582031 50.476562 39.304688 50.117188 39.0625 C 49.753906 38.816406 49.371094 38.609375 48.96875 38.441406 C 48.566406 38.269531 48.152344 38.140625 47.726562 38.050781 C 47.296875 37.964844 46.863281 37.917969 46.429688 37.914062 Z M 46.429688 37.914062 " fill-opacity="1" fill-rule="nonzero"/><g clip-path="url(#779f545911)"><path fill="#231f20" d="M 115 135.113281 L 35 135.113281 C 34.351562 135.109375 33.707031 135.070312 33.0625 135.003906 C 32.417969 134.933594 31.777344 134.835938 31.144531 134.707031 C 30.507812 134.574219 29.882812 134.414062 29.261719 134.222656 C 28.644531 134.03125 28.035156 133.808594 27.4375 133.558594 C 26.839844 133.308594 26.257812 133.03125 25.6875 132.722656 C 25.117188 132.414062 24.5625 132.082031 24.023438 131.71875 C 23.484375 131.359375 22.964844 130.972656 22.464844 130.5625 C 21.964844 130.148438 21.488281 129.714844 21.027344 129.257812 C 20.570312 128.800781 20.136719 128.320312 19.722656 127.820312 C 19.3125 127.320312 18.925781 126.800781 18.566406 126.261719 C 18.203125 125.722656 17.871094 125.167969 17.5625 124.597656 C 17.253906 124.027344 16.976562 123.445312 16.726562 122.847656 C 16.476562 122.25 16.253906 121.640625 16.0625 121.023438 C 15.871094 120.402344 15.710938 119.777344 15.582031 119.140625 C 15.449219 118.507812 15.351562 117.867188 15.28125 117.222656 C 15.214844 116.578125 15.175781 115.933594 15.171875 115.285156 L 15.171875 35.285156 C 15.175781 34.636719 15.214844 33.992188 15.28125 33.347656 C 15.351562 32.703125 15.449219 32.0625 15.582031 31.429688 C 15.710938 30.792969 15.871094 30.167969 16.0625 29.546875 C 16.253906 28.929688 16.476562 28.320312 16.726562 27.722656 C 16.976562 27.125 17.253906 26.542969 17.5625 25.972656 C 17.871094 25.402344 18.203125 24.847656 18.566406 24.308594 C 18.925781 23.773438 19.3125 23.253906 19.722656 22.753906 C 20.136719 22.25 20.570312 21.773438 21.027344 21.3125 C 21.488281 20.855469 21.964844 20.421875 22.464844 20.007812 C 22.964844 19.597656 23.484375 19.210938 24.023438 18.851562 C 24.5625 18.488281 25.117188 18.15625 25.6875 17.847656 C 26.257812 17.542969 26.839844 17.261719 27.4375 17.011719 C 28.035156 16.761719 28.644531 16.539062 29.261719 16.347656 C 29.882812 16.15625 30.507812 15.996094 31.144531 15.867188 C 31.777344 15.734375 32.417969 15.636719 33.0625 15.566406 C 33.707031 15.5 34.351562 15.460938 35 15.457031 L 115 15.457031 C 115.65625 15.457031 116.308594 15.488281 116.960938 15.554688 C 117.613281 15.617188 118.257812 15.714844 118.902344 15.839844 C 119.542969 15.96875 120.179688 16.128906 120.804688 16.316406 C 121.433594 16.507812 122.046875 16.730469 122.652344 16.980469 C 123.257812 17.230469 123.851562 17.511719 124.429688 17.820312 C 125.003906 18.128906 125.566406 18.464844 126.113281 18.828125 C 126.65625 19.191406 127.179688 19.582031 127.6875 19.996094 C 128.195312 20.414062 128.679688 20.851562 129.140625 21.316406 C 129.605469 21.777344 130.042969 22.261719 130.460938 22.769531 C 130.875 23.277344 131.265625 23.800781 131.628906 24.347656 C 131.992188 24.890625 132.328125 25.453125 132.636719 26.027344 C 132.945312 26.605469 133.226562 27.199219 133.476562 27.804688 C 133.726562 28.410156 133.949219 29.023438 134.140625 29.652344 C 134.328125 30.277344 134.488281 30.914062 134.617188 31.554688 C 134.742188 32.199219 134.839844 32.84375 134.902344 33.496094 C 134.96875 34.148438 135 34.800781 135 35.457031 L 135 115.285156 C 134.996094 115.9375 134.957031 116.585938 134.886719 117.234375 C 134.820312 117.882812 134.71875 118.523438 134.585938 119.164062 C 134.453125 119.800781 134.292969 120.429688 134.097656 121.054688 C 133.90625 121.675781 133.683594 122.285156 133.429688 122.886719 C 133.175781 123.488281 132.894531 124.074219 132.582031 124.644531 C 132.273438 125.21875 131.933594 125.773438 131.570312 126.316406 C 131.207031 126.855469 130.816406 127.375 130.398438 127.875 C 129.984375 128.378906 129.542969 128.859375 129.082031 129.316406 C 128.621094 129.777344 128.136719 130.210938 127.628906 130.621094 C 127.125 131.035156 126.601562 131.417969 126.058594 131.78125 C 125.515625 132.140625 124.957031 132.472656 124.382812 132.777344 C 123.804688 133.082031 123.214844 133.359375 122.613281 133.609375 C 122.011719 133.855469 121.398438 134.074219 120.773438 134.261719 C 120.152344 134.449219 119.519531 134.609375 118.882812 134.734375 C 118.242188 134.859375 117.597656 134.957031 116.949219 135.019531 C 116.300781 135.082031 115.652344 135.113281 115 135.113281 Z M 35 21.171875 C 34.0625 21.171875 33.132812 21.261719 32.214844 21.445312 C 31.292969 21.628906 30.398438 21.898438 29.53125 22.257812 C 28.667969 22.617188 27.84375 23.058594 27.0625 23.578125 C 26.285156 24.101562 25.5625 24.691406 24.898438 25.355469 C 24.234375 26.019531 23.644531 26.742188 23.121094 27.519531 C 22.601562 28.300781 22.160156 29.125 21.800781 29.992188 C 21.441406 30.855469 21.171875 31.75 20.988281 32.671875 C 20.804688 33.589844 20.714844 34.519531 20.714844 35.457031 L 20.714844 115.285156 C 20.714844 116.222656 20.804688 117.152344 20.988281 118.074219 C 21.171875 118.992188 21.441406 119.886719 21.800781 120.753906 C 22.160156 121.621094 22.601562 122.441406 23.121094 123.222656 C 23.644531 124.003906 24.234375 124.722656 24.898438 125.386719 C 25.5625 126.050781 26.285156 126.644531 27.0625 127.164062 C 27.84375 127.683594 28.667969 128.125 29.53125 128.484375 C 30.398438 128.84375 31.292969 129.113281 32.214844 129.296875 C 33.132812 129.480469 34.0625 129.570312 35 129.570312 L 115 129.570312 C 115.9375 129.570312 116.867188 129.480469 117.785156 129.296875 C 118.707031 129.113281 119.601562 128.84375 120.46875 128.484375 C 121.332031 128.125 122.15625 127.683594 122.9375 127.164062 C 123.714844 126.644531 124.4375 126.050781 125.101562 125.386719 C 125.765625 124.722656 126.355469 124.003906 126.878906 123.222656 C 127.398438 122.441406 127.839844 121.621094 128.199219 120.753906 C 128.558594 119.886719 128.828125 118.992188 129.011719 118.074219 C 129.195312 117.152344 129.285156 116.222656 129.285156 115.285156 L 129.285156 35.285156 C 129.285156 34.347656 129.195312 33.417969 129.011719 32.5 C 128.828125 31.578125 128.558594 30.683594 128.199219 29.820312 C 127.839844 28.953125 127.398438 28.128906 126.878906 27.347656 C 126.355469 26.570312 125.765625 25.847656 125.101562 25.183594 C 124.4375 24.519531 123.714844 23.929688 122.9375 23.40625 C 122.15625 22.886719 121.332031 22.445312 120.46875 22.085938 C 119.601562 21.726562 118.707031 21.457031 117.785156 21.273438 C 116.867188 21.089844 115.9375 21 115 21 Z M 35 21.171875 " fill-opacity="1" fill-rule="nonzero"/></g></svg>