<svg xmlns="http://www.w3.org/2000/svg" xmlns:xlink="http://www.w3.org/1999/xlink" width="200" zoomAndPan="magnify" viewBox="0 0 150 149.999998" height="200" preserveAspectRatio="xMidYMid meet" version="1.0"><path fill="#ffffff" d="M 18.542969 97.53125 L 52.476562 97.53125 L 52.476562 131.472656 C 52.476562 131.941406 52.566406 132.390625 52.746094 132.820312 C 52.921875 133.25 53.175781 133.632812 53.507812 133.964844 C 53.835938 134.292969 54.21875 134.546875 54.648438 134.726562 C 55.082031 134.90625 55.53125 134.996094 55.996094 134.996094 L 94.011719 134.996094 C 94.476562 134.996094 94.925781 134.90625 95.359375 134.726562 C 95.789062 134.546875 96.171875 134.292969 96.5 133.964844 C 96.832031 133.632812 97.085938 133.25 97.261719 132.820312 C 97.441406 132.390625 97.53125 131.941406 97.53125 131.472656 L 97.53125 97.53125 L 131.460938 97.53125 C 131.929688 97.53125 132.378906 97.441406 132.8125 97.265625 C 133.242188 97.085938 133.625 96.832031 133.953125 96.5 C 134.285156 96.171875 134.539062 95.789062 134.71875 95.359375 C 134.898438 94.925781 134.988281 94.476562 134.988281 94.011719 L 134.988281 55.988281 C 134.988281 55.519531 134.898438 55.070312 134.722656 54.636719 C 134.542969 54.207031 134.289062 53.824219 133.957031 53.496094 C 133.628906 53.164062 133.246094 52.910156 132.816406 52.730469 C 132.382812 52.550781 131.933594 52.460938 131.46875 52.460938 L 97.53125 52.460938 L 97.53125 18.519531 C 97.53125 18.054688 97.441406 17.605469 97.261719 17.171875 C 97.085938 16.742188 96.832031 16.359375 96.5 16.03125 C 96.171875 15.699219 95.789062 15.445312 95.359375 15.265625 C 94.925781 15.089844 94.476562 15 94.011719 15 L 55.996094 15 C 55.53125 15 55.082031 15.089844 54.648438 15.269531 C 54.21875 15.445312 53.839844 15.699219 53.507812 16.03125 C 53.179688 16.359375 52.921875 16.742188 52.746094 17.171875 C 52.566406 17.605469 52.476562 18.054688 52.476562 18.519531 L 52.476562 52.460938 L 18.542969 52.460938 C 18.078125 52.460938 17.628906 52.550781 17.195312 52.730469 C 16.765625 52.910156 16.382812 53.164062 16.054688 53.496094 C 15.722656 53.824219 15.46875 54.207031 15.289062 54.636719 C 15.109375 55.070312 15.023438 55.519531 15.023438 55.988281 L 15.023438 94.011719 C 15.023438 94.476562 15.113281 94.925781 15.292969 95.359375 C 15.46875 95.789062 15.726562 96.167969 16.054688 96.5 C 16.386719 96.828125 16.765625 97.082031 17.199219 97.261719 C 17.628906 97.441406 18.078125 97.53125 18.542969 97.53125 Z M 22.066406 59.507812 L 55.996094 59.507812 C 56.464844 59.507812 56.914062 59.417969 57.34375 59.242188 C 57.777344 59.0625 58.160156 58.808594 58.488281 58.476562 C 58.820312 58.148438 59.074219 57.765625 59.253906 57.335938 C 59.433594 56.902344 59.523438 56.453125 59.523438 55.988281 L 59.523438 22.042969 L 90.492188 22.042969 L 90.492188 55.988281 C 90.492188 56.453125 90.578125 56.902344 90.757812 57.335938 C 90.9375 57.765625 91.191406 58.144531 91.519531 58.476562 C 91.851562 58.804688 92.230469 59.0625 92.664062 59.238281 C 93.09375 59.417969 93.542969 59.507812 94.011719 59.507812 L 127.941406 59.507812 L 127.941406 90.488281 L 94.011719 90.488281 C 93.542969 90.488281 93.09375 90.578125 92.664062 90.757812 C 92.230469 90.933594 91.851562 91.1875 91.519531 91.519531 C 91.191406 91.851562 90.9375 92.230469 90.757812 92.664062 C 90.578125 93.09375 90.488281 93.542969 90.492188 94.011719 L 90.492188 127.949219 L 59.523438 127.949219 L 59.523438 94.011719 C 59.523438 93.542969 59.433594 93.09375 59.253906 92.664062 C 59.074219 92.230469 58.820312 91.851562 58.492188 91.519531 C 58.160156 91.1875 57.777344 90.933594 57.347656 90.757812 C 56.917969 90.578125 56.464844 90.488281 56 90.488281 L 22.066406 90.488281 Z M 22.066406 59.507812 " fill-opacity="1" fill-rule="nonzero"/></svg>