<svg xmlns="http://www.w3.org/2000/svg" xmlns:xlink="http://www.w3.org/1999/xlink" width="200" zoomAndPan="magnify" viewBox="0 0 150 149.999998" height="200" preserveAspectRatio="xMidYMid meet" version="1.0"><defs><clipPath id="56c71a4145"><path d="M 20.925781 15 L 128.925781 15 L 128.925781 135 L 20.925781 135 Z M 20.925781 15 " clip-rule="nonzero"/></clipPath></defs><g clip-path="url(#56c71a4145)"><path fill="#000000" d="M 110.878906 15 C 110.289062 15 109.703125 15.027344 109.117188 15.085938 C 108.53125 15.144531 107.949219 15.230469 107.371094 15.347656 C 106.792969 15.460938 106.222656 15.605469 105.660156 15.773438 C 105.097656 15.945312 104.542969 16.144531 104 16.371094 C 103.453125 16.597656 102.921875 16.847656 102.402344 17.125 C 101.886719 17.402344 101.378906 17.707031 100.890625 18.035156 C 100.402344 18.359375 99.929688 18.710938 99.472656 19.085938 C 99.019531 19.460938 98.582031 19.855469 98.167969 20.273438 C 97.75 20.6875 97.355469 21.125 96.980469 21.582031 C 96.609375 22.035156 96.257812 22.507812 95.929688 23 C 95.605469 23.488281 95.300781 23.996094 95.023438 24.515625 C 94.746094 25.035156 94.496094 25.566406 94.269531 26.113281 C 94.042969 26.65625 93.847656 27.210938 93.675781 27.773438 C 93.503906 28.339844 93.363281 28.910156 93.246094 29.488281 C 93.132812 30.066406 93.046875 30.648438 92.988281 31.234375 C 92.929688 31.824219 92.902344 32.410156 92.902344 33 C 92.90625 34.132812 93.015625 35.253906 93.230469 36.363281 L 50.59375 61.265625 C 48.96875 59.886719 47.160156 58.832031 45.160156 58.101562 C 43.164062 57.367188 41.101562 57 38.972656 57 C 38.382812 57 37.796875 57.027344 37.210938 57.085938 C 36.625 57.144531 36.042969 57.230469 35.464844 57.347656 C 34.886719 57.460938 34.316406 57.605469 33.753906 57.773438 C 33.191406 57.945312 32.636719 58.144531 32.09375 58.371094 C 31.546875 58.597656 31.015625 58.847656 30.496094 59.125 C 29.976562 59.402344 29.472656 59.707031 28.984375 60.035156 C 28.496094 60.359375 28.023438 60.710938 27.566406 61.085938 C 27.113281 61.460938 26.675781 61.855469 26.261719 62.273438 C 25.84375 62.6875 25.449219 63.125 25.074219 63.582031 C 24.703125 64.035156 24.351562 64.507812 24.023438 65 C 23.699219 65.488281 23.394531 65.996094 23.117188 66.515625 C 22.839844 67.035156 22.589844 67.566406 22.363281 68.113281 C 22.136719 68.65625 21.941406 69.210938 21.769531 69.773438 C 21.597656 70.339844 21.457031 70.910156 21.339844 71.488281 C 21.226562 72.066406 21.140625 72.648438 21.082031 73.234375 C 21.023438 73.824219 20.996094 74.410156 20.996094 75 C 20.996094 75.589844 21.023438 76.175781 21.082031 76.765625 C 21.140625 77.351562 21.226562 77.933594 21.339844 78.511719 C 21.457031 79.089844 21.597656 79.660156 21.769531 80.226562 C 21.941406 80.789062 22.136719 81.34375 22.363281 81.886719 C 22.589844 82.433594 22.839844 82.964844 23.117188 83.484375 C 23.394531 84.003906 23.699219 84.511719 24.023438 85 C 24.351562 85.492188 24.703125 85.964844 25.074219 86.417969 C 25.449219 86.875 25.84375 87.3125 26.261719 87.726562 C 26.675781 88.144531 27.113281 88.539062 27.566406 88.914062 C 28.023438 89.289062 28.496094 89.640625 28.984375 89.964844 C 29.472656 90.292969 29.976562 90.597656 30.496094 90.875 C 31.015625 91.152344 31.546875 91.402344 32.09375 91.628906 C 32.636719 91.855469 33.191406 92.054688 33.753906 92.226562 C 34.316406 92.394531 34.886719 92.539062 35.464844 92.652344 C 36.042969 92.769531 36.625 92.855469 37.210938 92.914062 C 37.796875 92.972656 38.382812 93 38.972656 93 C 41.097656 92.996094 43.15625 92.625 45.148438 91.890625 C 47.144531 91.15625 48.949219 90.097656 50.570312 88.722656 L 93.230469 113.636719 C 93.015625 114.746094 92.90625 115.867188 92.902344 117 C 92.902344 117.589844 92.929688 118.175781 92.988281 118.765625 C 93.046875 119.351562 93.132812 119.933594 93.246094 120.511719 C 93.363281 121.089844 93.503906 121.660156 93.675781 122.226562 C 93.847656 122.789062 94.042969 123.34375 94.269531 123.886719 C 94.496094 124.433594 94.746094 124.964844 95.023438 125.484375 C 95.300781 126.003906 95.605469 126.511719 95.929688 127 C 96.257812 127.492188 96.609375 127.964844 96.980469 128.417969 C 97.355469 128.875 97.75 129.3125 98.167969 129.726562 C 98.582031 130.144531 99.019531 130.539062 99.472656 130.914062 C 99.929688 131.289062 100.402344 131.640625 100.890625 131.964844 C 101.378906 132.292969 101.886719 132.597656 102.402344 132.875 C 102.921875 133.152344 103.453125 133.402344 104 133.628906 C 104.542969 133.855469 105.097656 134.054688 105.660156 134.226562 C 106.222656 134.394531 106.792969 134.539062 107.371094 134.652344 C 107.949219 134.769531 108.53125 134.855469 109.117188 134.914062 C 109.703125 134.972656 110.289062 135 110.878906 135 C 111.46875 135 112.054688 134.972656 112.640625 134.914062 C 113.226562 134.855469 113.808594 134.769531 114.386719 134.652344 C 114.960938 134.539062 115.53125 134.394531 116.097656 134.226562 C 116.660156 134.054688 117.214844 133.855469 117.757812 133.628906 C 118.300781 133.402344 118.832031 133.152344 119.351562 132.875 C 119.871094 132.597656 120.375 132.292969 120.867188 131.964844 C 121.355469 131.640625 121.828125 131.289062 122.28125 130.914062 C 122.738281 130.539062 123.171875 130.144531 123.589844 129.726562 C 124.003906 129.3125 124.402344 128.875 124.773438 128.417969 C 125.148438 127.964844 125.5 127.492188 125.824219 127 C 126.152344 126.511719 126.453125 126.003906 126.730469 125.484375 C 127.007812 124.964844 127.261719 124.433594 127.488281 123.886719 C 127.710938 123.34375 127.910156 122.789062 128.082031 122.226562 C 128.25 121.660156 128.394531 121.089844 128.507812 120.511719 C 128.625 119.933594 128.710938 119.351562 128.769531 118.765625 C 128.824219 118.175781 128.855469 117.589844 128.855469 117 C 128.855469 116.410156 128.824219 115.824219 128.769531 115.234375 C 128.710938 114.648438 128.625 114.066406 128.507812 113.488281 C 128.394531 112.910156 128.25 112.339844 128.082031 111.773438 C 127.910156 111.210938 127.710938 110.65625 127.488281 110.113281 C 127.261719 109.566406 127.007812 109.035156 126.730469 108.515625 C 126.453125 107.996094 126.152344 107.488281 125.824219 107 C 125.5 106.507812 125.148438 106.035156 124.773438 105.582031 C 124.402344 105.125 124.003906 104.6875 123.589844 104.273438 C 123.171875 103.855469 122.738281 103.460938 122.28125 103.085938 C 121.828125 102.710938 121.355469 102.359375 120.867188 102.035156 C 120.375 101.707031 119.871094 101.402344 119.351562 101.125 C 118.832031 100.847656 118.300781 100.597656 117.757812 100.371094 C 117.214844 100.144531 116.660156 99.945312 116.097656 99.773438 C 115.53125 99.605469 114.960938 99.460938 114.386719 99.347656 C 113.808594 99.230469 113.226562 99.144531 112.640625 99.085938 C 112.054688 99.027344 111.46875 99 110.878906 99 C 108.75 99.003906 106.691406 99.371094 104.695312 100.105469 C 102.699219 100.84375 100.890625 101.898438 99.269531 103.277344 L 56.621094 78.363281 C 56.835938 77.253906 56.945312 76.132812 56.949219 75 C 56.945312 73.867188 56.835938 72.746094 56.621094 71.636719 L 99.257812 46.734375 C 100.878906 48.113281 102.691406 49.167969 104.6875 49.898438 C 106.6875 50.632812 108.75 51 110.878906 51 C 111.46875 51 112.054688 50.972656 112.640625 50.914062 C 113.226562 50.855469 113.808594 50.769531 114.386719 50.652344 C 114.960938 50.539062 115.53125 50.394531 116.097656 50.226562 C 116.660156 50.054688 117.214844 49.855469 117.757812 49.628906 C 118.300781 49.402344 118.832031 49.152344 119.351562 48.875 C 119.871094 48.597656 120.375 48.292969 120.867188 47.964844 C 121.355469 47.640625 121.828125 47.289062 122.28125 46.914062 C 122.738281 46.539062 123.171875 46.144531 123.589844 45.726562 C 124.003906 45.3125 124.402344 44.875 124.773438 44.417969 C 125.148438 43.964844 125.5 43.492188 125.824219 43 C 126.152344 42.511719 126.453125 42.003906 126.730469 41.484375 C 127.007812 40.964844 127.261719 40.433594 127.488281 39.886719 C 127.710938 39.34375 127.910156 38.789062 128.082031 38.226562 C 128.25 37.660156 128.394531 37.089844 128.507812 36.511719 C 128.625 35.933594 128.710938 35.351562 128.769531 34.765625 C 128.824219 34.175781 128.855469 33.589844 128.855469 33 C 128.855469 32.410156 128.824219 31.824219 128.769531 31.234375 C 128.710938 30.648438 128.625 30.066406 128.507812 29.488281 C 128.394531 28.910156 128.25 28.339844 128.082031 27.773438 C 127.910156 27.210938 127.710938 26.65625 127.488281 26.113281 C 127.261719 25.566406 127.007812 25.035156 126.730469 24.515625 C 126.453125 23.996094 126.152344 23.488281 125.824219 23 C 125.5 22.507812 125.148438 22.035156 124.773438 21.582031 C 124.402344 21.125 124.003906 20.6875 123.589844 20.273438 C 123.171875 19.855469 122.738281 19.460938 122.28125 19.085938 C 121.828125 18.710938 121.355469 18.359375 120.867188 18.035156 C 120.375 17.707031 119.871094 17.402344 119.351562 17.125 C 118.832031 16.847656 118.300781 16.597656 117.757812 16.371094 C 117.214844 16.144531 116.660156 15.945312 116.097656 15.773438 C 115.53125 15.605469 114.960938 15.460938 114.386719 15.347656 C 113.808594 15.230469 113.226562 15.144531 112.640625 15.085938 C 112.054688 15.027344 111.46875 15 110.878906 15 Z M 110.878906 15 " fill-opacity="1" fill-rule="nonzero"/></g></svg>