<svg xmlns="http://www.w3.org/2000/svg" xmlns:xlink="http://www.w3.org/1999/xlink" width="200" zoomAndPan="magnify" viewBox="0 0 150 149.999998" height="200" preserveAspectRatio="xMidYMid meet" version="1.0"><defs><clipPath id="4b80dbe5b0"><path d="M 20.925781 12.773438 L 128.925781 12.773438 L 128.925781 132.773438 L 20.925781 132.773438 Z M 20.925781 12.773438 " clip-rule="nonzero"/></clipPath></defs><g clip-path="url(#4b80dbe5b0)"><path fill="#ffffff" d="M 110.996094 12.773438 C 110.40625 12.773438 109.816406 12.804688 109.230469 12.859375 C 108.644531 12.917969 108.0625 13.003906 107.484375 13.121094 C 106.90625 13.234375 106.335938 13.378906 105.769531 13.550781 C 105.207031 13.71875 104.652344 13.917969 104.105469 14.144531 C 103.5625 14.371094 103.03125 14.621094 102.511719 14.898438 C 101.992188 15.175781 101.484375 15.480469 100.996094 15.808594 C 100.503906 16.136719 100.03125 16.484375 99.578125 16.859375 C 99.121094 17.234375 98.683594 17.628906 98.265625 18.046875 C 97.851562 18.464844 97.457031 18.898438 97.082031 19.355469 C 96.707031 19.8125 96.355469 20.285156 96.027344 20.773438 C 95.703125 21.265625 95.398438 21.769531 95.121094 22.289062 C 94.84375 22.808594 94.589844 23.339844 94.367188 23.886719 C 94.140625 24.429688 93.941406 24.984375 93.769531 25.550781 C 93.597656 26.113281 93.457031 26.683594 93.339844 27.261719 C 93.226562 27.839844 93.140625 28.421875 93.082031 29.011719 C 93.023438 29.597656 92.996094 30.183594 92.996094 30.773438 C 93 31.90625 93.109375 33.027344 93.324219 34.136719 L 50.632812 59.039062 C 49.007812 57.664062 47.191406 56.605469 45.191406 55.875 C 43.191406 55.140625 41.125 54.773438 38.996094 54.773438 C 38.40625 54.773438 37.816406 54.804688 37.230469 54.859375 C 36.644531 54.917969 36.0625 55.003906 35.484375 55.121094 C 34.90625 55.234375 34.335938 55.378906 33.769531 55.550781 C 33.207031 55.71875 32.652344 55.917969 32.105469 56.144531 C 31.5625 56.371094 31.03125 56.621094 30.511719 56.898438 C 29.992188 57.175781 29.484375 57.480469 28.996094 57.808594 C 28.503906 58.136719 28.03125 58.484375 27.578125 58.859375 C 27.121094 59.234375 26.683594 59.628906 26.265625 60.046875 C 25.851562 60.464844 25.457031 60.898438 25.082031 61.355469 C 24.707031 61.8125 24.355469 62.285156 24.027344 62.773438 C 23.703125 63.265625 23.398438 63.769531 23.121094 64.289062 C 22.84375 64.808594 22.589844 65.339844 22.367188 65.886719 C 22.140625 66.429688 21.941406 66.984375 21.769531 67.550781 C 21.597656 68.113281 21.457031 68.683594 21.339844 69.261719 C 21.226562 69.839844 21.140625 70.421875 21.082031 71.011719 C 21.023438 71.597656 20.996094 72.183594 20.996094 72.773438 C 20.996094 73.363281 21.023438 73.953125 21.082031 74.539062 C 21.140625 75.125 21.226562 75.707031 21.339844 76.285156 C 21.457031 76.863281 21.597656 77.433594 21.769531 78 C 21.941406 78.5625 22.140625 79.117188 22.367188 79.664062 C 22.589844 80.207031 22.84375 80.738281 23.121094 81.257812 C 23.398438 81.777344 23.703125 82.285156 24.027344 82.773438 C 24.355469 83.265625 24.707031 83.738281 25.082031 84.191406 C 25.457031 84.648438 25.851562 85.085938 26.265625 85.503906 C 26.683594 85.917969 27.121094 86.3125 27.578125 86.6875 C 28.03125 87.0625 28.503906 87.414062 28.996094 87.742188 C 29.484375 88.066406 29.992188 88.371094 30.511719 88.648438 C 31.03125 88.925781 31.5625 89.179688 32.105469 89.402344 C 32.652344 89.628906 33.207031 89.828125 33.769531 90 C 34.335938 90.171875 34.90625 90.3125 35.484375 90.429688 C 36.0625 90.542969 36.644531 90.628906 37.230469 90.6875 C 37.816406 90.746094 38.40625 90.773438 38.996094 90.773438 C 41.121094 90.769531 43.183594 90.398438 45.179688 89.664062 C 47.175781 88.929688 48.988281 87.875 50.609375 86.496094 L 93.324219 111.410156 C 93.109375 112.523438 93 113.644531 92.996094 114.773438 C 92.996094 115.363281 93.023438 115.953125 93.082031 116.539062 C 93.140625 117.125 93.226562 117.707031 93.339844 118.285156 C 93.457031 118.863281 93.597656 119.433594 93.769531 120 C 93.941406 120.5625 94.140625 121.117188 94.367188 121.664062 C 94.589844 122.207031 94.84375 122.738281 95.121094 123.257812 C 95.398438 123.777344 95.703125 124.285156 96.027344 124.773438 C 96.355469 125.265625 96.707031 125.738281 97.082031 126.191406 C 97.457031 126.648438 97.851562 127.085938 98.265625 127.503906 C 98.683594 127.917969 99.121094 128.3125 99.578125 128.6875 C 100.03125 129.0625 100.503906 129.414062 100.996094 129.742188 C 101.484375 130.066406 101.992188 130.371094 102.511719 130.648438 C 103.03125 130.925781 103.5625 131.179688 104.105469 131.402344 C 104.652344 131.628906 105.207031 131.828125 105.769531 132 C 106.335938 132.171875 106.90625 132.3125 107.484375 132.429688 C 108.0625 132.542969 108.644531 132.628906 109.230469 132.6875 C 109.816406 132.746094 110.40625 132.773438 110.996094 132.773438 C 111.585938 132.773438 112.171875 132.746094 112.757812 132.6875 C 113.347656 132.628906 113.929688 132.542969 114.507812 132.429688 C 115.085938 132.3125 115.65625 132.171875 116.21875 132 C 116.785156 131.828125 117.339844 131.628906 117.882812 131.402344 C 118.429688 131.179688 118.960938 130.925781 119.480469 130.648438 C 120 130.371094 120.503906 130.066406 120.996094 129.742188 C 121.484375 129.414062 121.957031 129.0625 122.414062 128.6875 C 122.871094 128.3125 123.304688 127.917969 123.722656 127.503906 C 124.140625 127.085938 124.535156 126.648438 124.910156 126.191406 C 125.285156 125.738281 125.632812 125.265625 125.960938 124.773438 C 126.289062 124.285156 126.59375 123.777344 126.871094 123.257812 C 127.148438 122.738281 127.398438 122.207031 127.625 121.664062 C 127.851562 121.117188 128.050781 120.5625 128.21875 120 C 128.390625 119.433594 128.535156 118.863281 128.648438 118.285156 C 128.765625 117.707031 128.851562 117.125 128.910156 116.539062 C 128.964844 115.953125 128.996094 115.363281 128.996094 114.773438 C 128.996094 114.183594 128.964844 113.597656 128.910156 113.011719 C 128.851562 112.421875 128.765625 111.839844 128.648438 111.261719 C 128.535156 110.683594 128.390625 110.113281 128.21875 109.550781 C 128.050781 108.984375 127.851562 108.429688 127.625 107.886719 C 127.398438 107.339844 127.148438 106.808594 126.871094 106.289062 C 126.59375 105.769531 126.289062 105.265625 125.960938 104.773438 C 125.632812 104.285156 125.285156 103.8125 124.910156 103.355469 C 124.535156 102.898438 124.140625 102.464844 123.722656 102.046875 C 123.304688 101.628906 122.871094 101.234375 122.414062 100.859375 C 121.957031 100.484375 121.484375 100.136719 120.996094 99.808594 C 120.503906 99.480469 120 99.175781 119.480469 98.898438 C 118.960938 98.621094 118.429688 98.371094 117.882812 98.144531 C 117.339844 97.917969 116.785156 97.71875 116.21875 97.550781 C 115.65625 97.378906 115.085938 97.234375 114.507812 97.121094 C 113.929688 97.003906 113.347656 96.917969 112.757812 96.859375 C 112.171875 96.804688 111.585938 96.773438 110.996094 96.773438 C 108.867188 96.777344 106.800781 97.144531 104.804688 97.882812 C 102.804688 98.617188 100.992188 99.671875 99.371094 101.050781 L 56.667969 76.136719 C 56.882812 75.027344 56.992188 73.90625 56.996094 72.773438 C 56.992188 71.644531 56.882812 70.523438 56.667969 69.410156 L 99.359375 44.507812 C 100.984375 45.886719 102.796875 46.941406 104.796875 47.675781 C 106.800781 48.40625 108.863281 48.773438 110.996094 48.773438 C 111.585938 48.773438 112.171875 48.746094 112.757812 48.6875 C 113.347656 48.628906 113.929688 48.542969 114.507812 48.429688 C 115.085938 48.3125 115.65625 48.171875 116.21875 48 C 116.785156 47.828125 117.339844 47.628906 117.882812 47.402344 C 118.429688 47.179688 118.960938 46.925781 119.480469 46.648438 C 120 46.371094 120.503906 46.066406 120.996094 45.742188 C 121.484375 45.414062 121.957031 45.0625 122.414062 44.6875 C 122.871094 44.3125 123.304688 43.917969 123.722656 43.503906 C 124.140625 43.085938 124.535156 42.648438 124.910156 42.191406 C 125.285156 41.738281 125.632812 41.265625 125.960938 40.773438 C 126.289062 40.285156 126.59375 39.78125 126.871094 39.257812 C 127.148438 38.738281 127.398438 38.207031 127.625 37.664062 C 127.851562 37.117188 128.050781 36.5625 128.21875 36 C 128.390625 35.433594 128.535156 34.863281 128.648438 34.285156 C 128.765625 33.707031 128.851562 33.125 128.910156 32.539062 C 128.964844 31.953125 128.996094 31.363281 128.996094 30.773438 C 128.996094 30.183594 128.964844 29.597656 128.910156 29.011719 C 128.851562 28.421875 128.765625 27.839844 128.648438 27.261719 C 128.535156 26.683594 128.390625 26.113281 128.21875 25.550781 C 128.050781 24.984375 127.851562 24.429688 127.625 23.886719 C 127.398438 23.339844 127.148438 22.808594 126.871094 22.289062 C 126.59375 21.769531 126.289062 21.265625 125.960938 20.773438 C 125.632812 20.285156 125.285156 19.8125 124.910156 19.355469 C 124.535156 18.898438 124.140625 18.464844 123.722656 18.046875 C 123.304688 17.628906 122.871094 17.234375 122.414062 16.859375 C 121.957031 16.484375 121.484375 16.136719 120.996094 15.808594 C 120.503906 15.480469 120 15.175781 119.480469 14.898438 C 118.960938 14.621094 118.429688 14.371094 117.882812 14.144531 C 117.339844 13.917969 116.785156 13.71875 116.21875 13.550781 C 115.65625 13.378906 115.085938 13.234375 114.507812 13.121094 C 113.929688 13.003906 113.347656 12.917969 112.757812 12.859375 C 112.171875 12.804688 111.585938 12.773438 110.996094 12.773438 Z M 110.996094 12.773438 " fill-opacity="1" fill-rule="nonzero"/></g></svg>