<svg xmlns="http://www.w3.org/2000/svg" xmlns:xlink="http://www.w3.org/1999/xlink" width="200" zoomAndPan="magnify" viewBox="0 0 150 149.999998" height="200" preserveAspectRatio="xMidYMid meet" version="1.0"><defs><clipPath id="014d739477"><path d="M 15.109375 16 L 135 16 L 135 135 L 15.109375 135 Z M 15.109375 16 " clip-rule="nonzero"/></clipPath></defs><g clip-path="url(#014d739477)"><path fill="#000000" d="M 129.976562 21.46875 C 123.515625 15.007812 113.003906 15.011719 106.542969 21.46875 C 103.546875 24.464844 97.890625 32.449219 93.601562 40.628906 C 92.871094 42.027344 92.214844 43.363281 91.628906 44.636719 L 66.640625 45.949219 C 66.183594 45.972656 65.753906 46.164062 65.433594 46.488281 L 15.882812 96.035156 C 15.164062 96.757812 15.164062 97.921875 15.882812 98.644531 L 51.695312 134.457031 C 52.054688 134.816406 52.527344 134.996094 53 134.996094 C 53.472656 134.996094 53.945312 134.816406 54.300781 134.457031 L 103.855469 84.90625 C 104.175781 84.585938 104.367188 84.15625 104.390625 83.699219 L 105.613281 60.347656 C 107.242188 59.636719 108.972656 58.808594 110.816406 57.839844 C 118.996094 53.558594 126.980469 47.898438 129.976562 44.902344 C 133.105469 41.769531 134.828125 37.609375 134.828125 33.183594 C 134.828125 28.757812 133.105469 24.597656 129.976562 21.46875 Z M 91.914062 56.226562 C 92.96875 56.816406 93.683594 57.945312 93.683594 59.234375 C 93.683594 59.300781 93.675781 59.363281 93.675781 59.425781 C 93.167969 59.316406 92.796875 59.128906 92.554688 58.886719 C 92.113281 58.445312 91.859375 57.570312 91.914062 56.226562 Z M 102.054688 57.816406 L 101.84375 61.820312 L 100.742188 82.800781 L 53 130.542969 L 19.796875 97.339844 L 67.539062 49.597656 L 90.050781 48.414062 C 89.539062 49.777344 89.136719 51.050781 88.84375 52.230469 C 85.570312 52.882812 83.089844 55.777344 83.089844 59.234375 C 83.089844 63.175781 86.292969 66.375 90.230469 66.375 C 92.730469 66.375 94.929688 65.085938 96.207031 63.140625 C 96.941406 62.019531 97.371094 60.679688 97.371094 59.246094 L 97.371094 59.234375 C 97.371094 56.125 95.371094 53.472656 92.585938 52.496094 C 92.9375 51.25 93.429688 49.824219 94.097656 48.203125 L 102.582031 47.757812 Z M 91.359375 62.496094 C 91.007812 62.617188 90.628906 62.6875 90.230469 62.6875 C 88.328125 62.6875 86.777344 61.140625 86.777344 59.234375 C 86.777344 58.078125 87.355469 57.050781 88.238281 56.425781 C 88.210938 58.632812 88.777344 60.328125 89.949219 61.496094 C 90.355469 61.902344 90.828125 62.234375 91.359375 62.496094 Z M 127.367188 42.292969 C 124.628906 45.03125 116.867188 50.507812 109.105469 54.574219 C 107.949219 55.179688 106.863281 55.71875 105.832031 56.199219 L 106.371094 45.90625 C 106.398438 45.382812 106.207031 44.875 105.835938 44.503906 C 105.464844 44.132812 104.957031 43.9375 104.433594 43.96875 L 95.816406 44.417969 C 96.144531 43.75 96.496094 43.058594 96.871094 42.339844 C 100.9375 34.578125 106.410156 26.816406 109.152344 24.078125 C 111.660156 21.566406 114.960938 20.3125 118.257812 20.3125 C 121.558594 20.3125 124.855469 21.566406 127.367188 24.078125 C 129.800781 26.511719 131.140625 29.746094 131.140625 33.183594 C 131.140625 36.625 129.800781 39.859375 127.367188 42.292969 Z M 127.367188 42.292969 " fill-opacity="1" fill-rule="nonzero"/></g></svg>